<svg xmlns="http://www.w3.org/2000/svg" xmlns:xlink="http://www.w3.org/1999/xlink" width="116.144" height="53.161" viewBox="0 0 116.144 53.161">
  <defs>
    <style>
      .cls-1 {
        fill: url(#linear-gradient);
      }

      .cls-2 {
        fill: #fff;
      }
    </style>
    <linearGradient id="linear-gradient" x2="1" y2="1" gradientUnits="objectBoundingBox">
      <stop offset="0" stop-color="#d82121"/>
      <stop offset="1" stop-color="#fd9b64"/>
    </linearGradient>
  </defs>
  <g id="グループ_1" data-name="グループ 1" transform="translate(-902.296 -513.999)">
    <path id="パス_1722" data-name="パス 1722" d="M-57.7,0h4.784c2.512,0,3.856-1.072,3.856-2.9a2.423,2.423,0,0,0-2.288-2.432v-.016A2.28,2.28,0,0,0-49.336-7.68c0-1.824-1.184-2.88-3.744-2.88H-57.7Zm2.144-6.128v-2.72h2.176c1.184,0,1.76.448,1.76,1.36s-.576,1.36-1.76,1.36Zm0,4.464V-4.432h2.448c1.184,0,1.76.5,1.76,1.376,0,.9-.576,1.392-1.76,1.392ZM-38.888,0H-36.6l-3.856-10.56H-43.1L-46.952,0H-44.7l.864-2.576h4.08Zm-4.384-4.208,1.008-3.008.448-1.568h.032l.48,1.6L-40.3-4.208Zm18.176,1.3-2.032-.608A2.3,2.3,0,0,1-29.56-1.648c-1.776,0-2.816-1.3-2.816-3.632,0-2.352,1.1-3.632,2.864-3.632A2.087,2.087,0,0,1-27.24-7.136l2-.848c-.592-1.84-2.208-2.736-4.368-2.736-3.088,0-5.056,2.048-5.056,5.44S-32.712.16-29.576.16A4.331,4.331,0,0,0-25.1-2.912ZM-15.224,0H-12.7l-3.936-6.24,3.808-4.32h-2.56L-19.72-5.552V-10.56h-2.208V0h2.208V-3.1l1.5-1.712ZM4.28-10.56h-9.3v1.776h3.552V0H.744V-8.784H4.28Zm7.248-.16c-3.136,0-5.088,2.048-5.088,5.44S8.392.16,11.528.16,16.6-1.888,16.6-5.28,14.664-10.72,11.528-10.72Zm0,1.808c1.76,0,2.784,1.28,2.784,3.632s-1.024,3.632-2.784,3.632c-1.776,0-2.8-1.28-2.8-3.632S9.752-8.912,11.528-8.912ZM34.3-10.56H25v1.776h3.552V0H30.76V-8.784H34.3Zm7.248-.16c-3.136,0-5.088,2.048-5.088,5.44S38.408.16,41.544.16s5.072-2.048,5.072-5.44S44.68-10.72,41.544-10.72Zm0,1.808c1.76,0,2.784,1.28,2.784,3.632S43.3-1.648,41.544-1.648c-1.776,0-2.8-1.28-2.8-3.632S39.768-8.912,41.544-8.912ZM54.552-10.56H50.12V0h2.208V-3.84h2.224C57-3.84,58.44-5.072,58.44-7.168,58.44-9.328,57-10.56,54.552-10.56Zm-.336,5.008H52.328V-8.8h1.888c1.376,0,1.984.544,1.984,1.616S55.592-5.552,54.216-5.552Z" transform="translate(960 567)"/>
    <circle id="楕円形_2" data-name="楕円形 2" class="cls-1" cx="12" cy="12" r="12" transform="translate(948 513.999)"/>
    <path id="合体_1" data-name="合体 1" class="cls-2" d="M0,6.523V.932A.932.932,0,0,1,.932,0H6.522a.932.932,0,0,1,0,1.864H1.863V6.523A.932.932,0,0,1,0,6.523Z" transform="translate(960 521.971) rotate(45)"/>
  </g>
</svg>
