<svg xmlns="http://www.w3.org/2000/svg" xmlns:xlink="http://www.w3.org/1999/xlink" width="348" height="120" viewBox="0 0 348 120">
  <defs>
    <style>
      .cls-1 {
        fill: none;
      }

      .cls-2 {
        fill: #fff;
        stroke: #e0deda;
        stroke-width: 4px;
      }

      .cls-3 {
        fill: #595757;
      }

      .cls-4 {
        clip-path: url(#clip-path);
      }

      .cls-5 {
        clip-path: url(#clip-path-2);
      }

      .cls-6 {
        fill: url(#linear-gradient);
      }

      .cls-7 {
        clip-path: url(#clip-path-3);
      }

      .cls-8 {
        fill: url(#linear-gradient-2);
      }

      .cls-9 {
        clip-path: url(#clip-path-4);
      }

      .cls-10 {
        fill: url(#linear-gradient-3);
      }

      .cls-11 {
        fill: #e62320;
      }

      .cls-12 {
        clip-path: url(#clip-path-6);
      }

      .cls-13 {
        fill: url(#linear-gradient-4);
      }

      .cls-14 {
        clip-path: url(#clip-path-7);
      }

      .cls-15 {
        fill: url(#linear-gradient-5);
      }

      .cls-16 {
        clip-path: url(#clip-path-8);
      }

      .cls-17 {
        fill: url(#linear-gradient-6);
      }

      .cls-18 {
        clip-path: url(#clip-path-9);
      }

      .cls-19 {
        fill: url(#linear-gradient-7);
      }

      .cls-20 {
        clip-path: url(#clip-path-11);
      }

      .cls-21 {
        fill: url(#linear-gradient-8);
      }

      .cls-22 {
        clip-path: url(#clip-path-12);
      }

      .cls-23 {
        fill: url(#linear-gradient-9);
      }

      .cls-24 {
        clip-path: url(#clip-path-13);
      }

      .cls-25 {
        fill: url(#linear-gradient-10);
      }

      .cls-26 {
        clip-path: url(#clip-path-14);
      }

      .cls-27 {
        fill: url(#linear-gradient-11);
      }

      .cls-28 {
        clip-path: url(#clip-path-15);
      }

      .cls-29 {
        fill: url(#linear-gradient-12);
      }

      .cls-30 {
        clip-path: url(#clip-path-16);
      }

      .cls-31 {
        fill: url(#linear-gradient-13);
      }

      .cls-32 {
        clip-path: url(#clip-path-17);
      }

      .cls-33 {
        fill: url(#linear-gradient-14);
      }

      .cls-34 {
        clip-path: url(#clip-path-18);
      }

      .cls-35 {
        fill: url(#linear-gradient-15);
      }

      .cls-36 {
        clip-path: url(#clip-path-19);
      }

      .cls-37 {
        fill: url(#linear-gradient-16);
      }

      .cls-38 {
        clip-path: url(#clip-path-20);
      }

      .cls-39 {
        fill: url(#linear-gradient-17);
      }

      .cls-40 {
        fill: #00a23e;
      }

      .cls-41 {
        clip-path: url(#clip-path-22);
      }

      .cls-42 {
        fill: url(#linear-gradient-18);
      }

      .cls-43 {
        clip-path: url(#clip-path-23);
      }

      .cls-44 {
        fill: url(#linear-gradient-19);
      }

      .cls-45 {
        clip-path: url(#clip-path-24);
      }

      .cls-46 {
        fill: url(#linear-gradient-20);
      }

      .cls-47 {
        fill: #ed86b3;
      }

      .cls-48 {
        clip-path: url(#clip-path-26);
      }

      .cls-49 {
        fill: url(#linear-gradient-21);
      }

      .cls-50 {
        clip-path: url(#clip-path-27);
      }

      .cls-51 {
        fill: url(#linear-gradient-22);
      }

      .cls-52 {
        fill: #5e66ad;
      }

      .cls-53 {
        clip-path: url(#clip-path-29);
      }

      .cls-54 {
        fill: url(#linear-gradient-23);
      }

      .cls-55 {
        clip-path: url(#clip-path-30);
      }

      .cls-56 {
        fill: url(#linear-gradient-24);
      }

      .cls-57 {
        clip-path: url(#clip-path-31);
      }

      .cls-58 {
        fill: url(#linear-gradient-25);
      }

      .cls-59 {
        clip-path: url(#clip-path-32);
      }

      .cls-60 {
        fill: url(#linear-gradient-26);
      }

      .cls-61 {
        clip-path: url(#clip-path-33);
      }

      .cls-62 {
        fill: url(#linear-gradient-27);
      }

      .cls-63 {
        clip-path: url(#clip-path-34);
      }

      .cls-64 {
        fill: url(#linear-gradient-28);
      }

      .cls-65 {
        clip-path: url(#clip-path-35);
      }

      .cls-66 {
        fill: url(#linear-gradient-29);
      }

      .cls-67 {
        clip-path: url(#clip-path-36);
      }

      .cls-68 {
        fill: url(#linear-gradient-30);
      }

      .cls-69 {
        clip-path: url(#clip-path-37);
      }

      .cls-70 {
        fill: url(#linear-gradient-31);
      }

      .cls-71 {
        clip-path: url(#clip-path-38);
      }

      .cls-72 {
        fill: url(#linear-gradient-32);
      }

      .cls-73 {
        clip-path: url(#clip-path-39);
      }

      .cls-74 {
        fill: url(#linear-gradient-33);
      }

      .cls-75 {
        clip-path: url(#clip-path-40);
      }

      .cls-76 {
        fill: url(#linear-gradient-34);
      }

      .cls-77 {
        clip-path: url(#clip-path-41);
      }

      .cls-78 {
        fill: url(#linear-gradient-35);
      }

      .cls-79 {
        stroke: none;
      }
    </style>
    <clipPath id="clip-path">
      <rect id="長方形_370" data-name="長方形 370" class="cls-1" width="244.547" height="71.587"/>
    </clipPath>
    <clipPath id="clip-path-2">
      <path id="パス_483" data-name="パス 483" class="cls-1" d="M10.654,19.526A13.131,13.131,0,0,0,8.8,25.55a9.887,9.887,0,0,0,2.626,6.179,18.075,18.075,0,0,1,3.244,5.716,33.986,33.986,0,0,1,1.236,9.578c.154,4.171.309,8.188,3.244,11.586l1.39-1.39c-2.472-2.781-2.626-6.025-2.781-10.2a36.149,36.149,0,0,0-1.39-10.041,19.928,19.928,0,0,0-3.553-6.334,8.033,8.033,0,0,1-2.163-5.1,11.586,11.586,0,0,1,1.7-5.252,31.6,31.6,0,0,0,2.008-4.48l-1.7-.618a38.712,38.712,0,0,1-2.008,4.326" transform="translate(-8.8 -15.2)"/>
    </clipPath>
    <linearGradient id="linear-gradient" x1="-0.573" y1="1.091" x2="-0.487" y2="1.091" gradientUnits="objectBoundingBox">
      <stop offset="0" stop-color="#ed86b3"/>
      <stop offset="1" stop-color="#a57eb6"/>
    </linearGradient>
    <clipPath id="clip-path-3">
      <path id="パス_484" data-name="パス 484" class="cls-1" d="M25.663,20.781a21.628,21.628,0,0,1,2.935,11.9c0,2.935-.154,5.407-.309,8.188a82.185,82.185,0,0,0,.154,17.766h-5.87v-.309l-1.7-.772a2.008,2.008,0,0,0-.309,2.163,1.7,1.7,0,0,0,1.7.772h5.87a1.776,1.776,0,0,0,2.008-2.317,79.714,79.714,0,0,1-.154-17.457c.154-2.626.309-5.407.309-8.342A23.327,23.327,0,0,0,27.054,19.7Z" transform="translate(-20.38 -19.7)"/>
    </clipPath>
    <linearGradient id="linear-gradient-2" x1="-0.379" y1="1.952" x2="-0.342" y2="1.952" gradientUnits="objectBoundingBox">
      <stop offset="0" stop-color="#15a590"/>
      <stop offset="1" stop-color="#00a23e"/>
    </linearGradient>
    <clipPath id="clip-path-4">
      <path id="パス_485" data-name="パス 485" class="cls-1" d="M22.83,12.932c-1.7,5.87-3.244,12.05-9.423,12.05a6.334,6.334,0,0,1-4.48-1.854L8,21.892l-1.7.927a7.415,7.415,0,0,0,1.39,1.7,8.188,8.188,0,0,0,5.716,2.472c7.415,0,9.578-7.415,11.123-13.44s2.317-8.342,4.943-8.342V3.2c-4.171,0-5.407,4.789-6.8,9.732" transform="translate(-6.3 -3.2)"/>
    </clipPath>
    <linearGradient id="linear-gradient-3" x1="-0.42" y1="2.814" x2="-0.353" y2="2.814" gradientUnits="objectBoundingBox">
      <stop offset="0" stop-color="#e62320"/>
      <stop offset="1" stop-color="#ed86b3"/>
    </linearGradient>
    <clipPath id="clip-path-6">
      <path id="パス_487" data-name="パス 487" class="cls-1" d="M10.87,13.39a2.163,2.163,0,0,1,.618,1.545A6.488,6.488,0,0,1,5,20.806v1.854a8.5,8.5,0,0,0,6.025-2.472,7.57,7.57,0,0,0,2.317-5.252A4.017,4.017,0,0,0,12.106,12Z" transform="translate(-5 -12)"/>
    </clipPath>
    <linearGradient id="linear-gradient-4" x1="-0.368" y1="4.129" x2="-0.253" y2="4.129" gradientUnits="objectBoundingBox">
      <stop offset="0" stop-color="#ef8200"/>
      <stop offset="1" stop-color="#e62320"/>
    </linearGradient>
    <clipPath id="clip-path-7">
      <path id="パス_488" data-name="パス 488" class="cls-1" d="M17.8,2.1V4.108c2.317,0,3.244,5.1,4.326,10.659.463,2.163.927,4.48,1.39,6.643a38.93,38.93,0,0,0,3.553,9.115l1.7-.927a37.23,37.23,0,0,1-3.4-8.651c-.618-2.163-.927-4.48-1.39-6.643-1.39-6.8-2.317-12.2-6.179-12.2Z" transform="translate(-17.8 -2.1)"/>
    </clipPath>
    <linearGradient id="linear-gradient-5" x1="-1.172" y1="2.285" x2="-1.094" y2="2.285" gradientUnits="objectBoundingBox">
      <stop offset="0" stop-color="#fcd006"/>
      <stop offset="1" stop-color="#00a23e"/>
    </linearGradient>
    <clipPath id="clip-path-8">
      <path id="パス_489" data-name="パス 489" class="cls-1" d="M20.8,35.168a30.743,30.743,0,0,0,.309,3.862h1.854a30.742,30.742,0,0,1-.309-3.862c0-5.716,2.317-7.415,5.1-9.423L26.67,24.2c-2.935,2.163-5.87,4.326-5.87,10.968" transform="translate(-20.8 -24.2)"/>
    </clipPath>
    <linearGradient id="linear-gradient-6" x1="-1.695" y1="2.974" x2="-1.6" y2="2.974" gradientUnits="objectBoundingBox">
      <stop offset="0" stop-color="#b983b7"/>
      <stop offset="1" stop-color="#5e66ad"/>
    </linearGradient>
    <clipPath id="clip-path-9">
      <path id="パス_490" data-name="パス 490" class="cls-1" d="M29.6,19.67c.154,2.626.309,5.252-2.008,7.57a21.164,21.164,0,0,1-3.09,2.472l1.081,1.545a21.627,21.627,0,0,0,3.244-2.781c2.781-2.935,2.626-6.179,2.472-8.96a12.05,12.05,0,0,1,.463-5.1l-1.7-.618a13.6,13.6,0,0,0-.463,5.87" transform="translate(-24.5 -13.8)"/>
    </clipPath>
    <linearGradient id="linear-gradient-7" x1="-1.713" y1="3.792" x2="-1.631" y2="3.792" gradientUnits="objectBoundingBox">
      <stop offset="0" stop-color="#e62320"/>
      <stop offset="0.5" stop-color="#ed86b3"/>
      <stop offset="1" stop-color="#b983b7"/>
    </linearGradient>
    <clipPath id="clip-path-11">
      <path id="パス_492" data-name="パス 492" class="cls-1" d="M32.7,13.972a2.317,2.317,0,0,1-.618,2.472,4.789,4.789,0,0,1-2.781,1.39v1.854a6.643,6.643,0,0,0,4.171-1.854A4.171,4.171,0,0,0,34.4,13.2Z" transform="translate(-29.3 -13.2)"/>
    </clipPath>
    <linearGradient id="linear-gradient-8" x1="-4.965" y1="6.036" x2="-4.789" y2="6.036" xlink:href="#linear-gradient-4"/>
    <clipPath id="clip-path-12">
      <path id="パス_493" data-name="パス 493" class="cls-1" d="M25.1,13.718c.927,3.4,2.626,6.179,6.025,6.179h.463V18.043h-.463c-2.317,0-3.4-1.854-4.326-4.943Z" transform="translate(-25.1 -13.1)"/>
    </clipPath>
    <linearGradient id="linear-gradient-9" x1="-3.967" y1="5.58" x2="-3.803" y2="5.58" gradientUnits="objectBoundingBox">
      <stop offset="0" stop-color="#fbc70d"/>
      <stop offset="1" stop-color="#ef8200"/>
    </linearGradient>
    <clipPath id="clip-path-13">
      <path id="パス_494" data-name="パス 494" class="cls-1" d="M21.3,5.108c1.854,0,2.935,1.7,3.708,4.48a35.536,35.536,0,0,1,1.081,4.634,46.429,46.429,0,0,0,1.081,4.943l1.854-.618c-.309-1.39-.772-2.935-1.081-4.789s-.618-3.09-.927-4.634S24.544,3.1,21.454,3.1Z" transform="translate(-21.3 -3.1)"/>
    </clipPath>
    <linearGradient id="linear-gradient-10" x1="-2.402" y1="3.84" x2="-2.28" y2="3.84" gradientUnits="objectBoundingBox">
      <stop offset="0" stop-color="#fbc70d"/>
      <stop offset="1" stop-color="#ed86b3"/>
    </linearGradient>
    <clipPath id="clip-path-14">
      <path id="パス_495" data-name="パス 495" class="cls-1" d="M21.054,33.7l.463,3.09c.772,4.943,1.545,10.2-.618,13.44L22.6,51c2.317-3.862,1.545-9.269.772-14.521L22.908,33.7Z" transform="translate(-20.9 -33.7)"/>
    </clipPath>
    <linearGradient id="linear-gradient-11" x1="-1.473" y1="2.993" x2="-1.384" y2="2.993" gradientUnits="objectBoundingBox">
      <stop offset="0" stop-color="#5e66ad"/>
      <stop offset="1" stop-color="#15a590"/>
    </linearGradient>
    <clipPath id="clip-path-15">
      <path id="パス_496" data-name="パス 496" class="cls-1" d="M30.6,21h0a11.277,11.277,0,0,0,2.472,6.952,8.806,8.806,0,0,1,2.008,5.407,15.294,15.294,0,0,1-.309,3.09l1.854.309a17.3,17.3,0,0,0,.463-3.4,10.5,10.5,0,0,0-2.317-6.488A9.423,9.423,0,0,1,32.608,21Z" transform="translate(-30.6 -21)"/>
    </clipPath>
    <linearGradient id="linear-gradient-12" x1="-4.232" y1="2.332" x2="-4.087" y2="2.332" xlink:href="#linear-gradient-2"/>
    <clipPath id="clip-path-16">
      <path id="パス_497" data-name="パス 497" class="cls-1" d="M47.18,58.612h0m4.326-37.848a16.53,16.53,0,0,1,.772,4.943,29.506,29.506,0,0,1-2.008,10.35c-1.545,4.789-3.4,10.2-3.09,22.091a2.936,2.936,0,0,1,0,.618H45.79l-2.472-.309L42.7,60.311l2.935.309a4.058,4.058,0,0,0,2.935-.463,2.472,2.472,0,0,0,.618-2.008c-.309-11.586,1.39-16.839,2.935-21.473a31.36,31.36,0,0,0,2.163-10.968,18.847,18.847,0,0,0-.772-5.407Z" transform="translate(-42.7 -20.3)"/>
    </clipPath>
    <linearGradient id="linear-gradient-13" x1="-1.214" y1="1.525" x2="-1.177" y2="1.525" xlink:href="#linear-gradient"/>
    <clipPath id="clip-path-17">
      <path id="パス_498" data-name="パス 498" class="cls-1" d="M33,34.4A14.83,14.83,0,0,0,37.945,45.83a5.252,5.252,0,0,1,1.7,2.008l1.7-.927a7.261,7.261,0,0,0-2.163-2.472,13.131,13.131,0,0,1-4.326-9.887,15.294,15.294,0,0,1,.463-3.09L33.465,31A16.839,16.839,0,0,0,33,34.4" transform="translate(-32.997 -31)"/>
    </clipPath>
    <linearGradient id="linear-gradient-14" x1="-3.598" y1="1.327" x2="-3.483" y2="1.327" xlink:href="#linear-gradient-11"/>
    <clipPath id="clip-path-18">
      <path id="パス_499" data-name="パス 499" class="cls-1" d="M31.682,20.307A7.415,7.415,0,0,0,30.6,24.323h1.854a5.561,5.561,0,0,1,.772-2.935c1.545-2.472,5.716-4.017,10.041-4.634L42.8,14.9c-4.789.618-9.423,2.472-11.277,5.407" transform="translate(-30.599 -14.9)"/>
    </clipPath>
    <linearGradient id="linear-gradient-15" x1="-2.902" y1="3.413" x2="-2.804" y2="3.413" xlink:href="#linear-gradient-5"/>
    <clipPath id="clip-path-19">
      <path id="パス_500" data-name="パス 500" class="cls-1" d="M41.625,43.694a38.622,38.622,0,0,1,.154,4.634l1.854.463a35.531,35.531,0,0,0-.154-5.407c-.309-4.48-.618-9.423,1.7-14.058l-1.7-.927c-2.626,5.1-2.317,10.659-2.008,15.139" transform="translate(-41.27 -28.4)"/>
    </clipPath>
    <linearGradient id="linear-gradient-16" x1="-2.672" y1="3.361" x2="-2.597" y2="3.361" xlink:href="#linear-gradient-11"/>
    <clipPath id="clip-path-20">
      <path id="パス_501" data-name="パス 501" class="cls-1" d="M42.8,31l1.7.927A11.123,11.123,0,0,1,54.7,26.21V24.2A12.977,12.977,0,0,0,42.954,31" transform="translate(-42.8 -24.197)"/>
    </clipPath>
    <linearGradient id="linear-gradient-17" x1="-4.626" y1="2.927" x2="-4.516" y2="2.927" xlink:href="#linear-gradient-2"/>
    <clipPath id="clip-path-22">
      <path id="パス_503" data-name="パス 503" class="cls-1" d="M61.988,51.211H55.654v-.618l-1.854.463c.463,1.545.772,2.008,2.626,2.008H62.76a1.475,1.475,0,0,0,1.081-2.626C59.67,45.959,59.825,39.47,59.825,33.6H57.971c0,5.87-.154,12.513,4.017,17.457" transform="translate(-53.8 -33.6)"/>
    </clipPath>
    <linearGradient id="linear-gradient-18" x1="-3.645" y1="1.156" x2="-3.572" y2="1.156" xlink:href="#linear-gradient-11"/>
    <clipPath id="clip-path-23">
      <path id="パス_504" data-name="パス 504" class="cls-1" d="M50.8,34.64c0,7.106,2.472,16.066,4.48,23.327l1.854-.463c-2.008-7.261-4.48-16.066-4.48-22.864s2.472-9.115,5.407-12.2L56.67,21.2c-2.935,3.09-5.87,6.179-5.87,13.44" transform="translate(-50.8 -21.2)"/>
    </clipPath>
    <linearGradient id="linear-gradient-19" x1="-1.731" y1="3.137" x2="-1.689" y2="3.137" gradientUnits="objectBoundingBox">
      <stop offset="0" stop-color="#a57eb6"/>
      <stop offset="1" stop-color="#5e66ad"/>
    </linearGradient>
    <clipPath id="clip-path-24">
      <path id="パス_505" data-name="パス 505" class="cls-1" d="M54.589,5.436a20.7,20.7,0,0,1,2.781,10.5c0,4.171-1.7,7.106-4.326,7.106a2.626,2.626,0,0,1-1.854-.772l-1.39,1.39a4.48,4.48,0,0,0,3.244,1.39,5.1,5.1,0,0,0,3.708-1.545A10.35,10.35,0,0,0,59.223,16.1,22.4,22.4,0,0,0,55.979,4.2Z" transform="translate(-49.8 -4.2)"/>
    </clipPath>
    <linearGradient id="linear-gradient-20" x1="-3.145" y1="4.585" x2="-3.076" y2="4.585" xlink:href="#linear-gradient-3"/>
    <clipPath id="clip-path-26">
      <path id="パス_508" data-name="パス 508" class="cls-1" d="M56.763,4.081a22.4,22.4,0,0,1,3.862,12.513c0,8.188-2.935,11.277-6.025,14.521l1.39,1.236c3.09-3.244,6.643-6.952,6.643-15.912A24.408,24.408,0,0,0,58.462,3Z" transform="translate(-54.6 -3)"/>
    </clipPath>
    <linearGradient id="linear-gradient-21" x1="-2.461" y1="5.397" x2="-2.409" y2="5.397" xlink:href="#linear-gradient"/>
    <clipPath id="clip-path-27">
      <path id="パス_509" data-name="パス 509" class="cls-1" d="M54.5,26.945a6.643,6.643,0,0,1,2.781,4.634,43.1,43.1,0,0,1,.309,6.488h1.854a43.874,43.874,0,0,0-.309-6.8,8.5,8.5,0,0,0-3.553-5.87Z" transform="translate(-54.5 -25.4)"/>
    </clipPath>
    <linearGradient id="linear-gradient-22" x1="-9.889" y1="2.4" x2="-9.704" y2="2.4" xlink:href="#linear-gradient-2"/>
    <clipPath id="clip-path-29">
      <path id="パス_511" data-name="パス 511" class="cls-1" d="M30,38.881c3.09,6.643,8.188,10.659,12.977,10.659V47.687c-4.171,0-8.651-3.862-11.432-9.887Z" transform="translate(-30 -37.8)"/>
    </clipPath>
    <linearGradient id="linear-gradient-23" x1="-2.531" y1="0.913" x2="-2.442" y2="0.913" xlink:href="#linear-gradient-11"/>
    <clipPath id="clip-path-30">
      <path id="パス_512" data-name="パス 512" class="cls-1" d="M28.1,29.4a33.059,33.059,0,0,0,2.935,14.058l1.545-1.081A31.36,31.36,0,0,1,29.8,29.4Z" transform="translate(-28.098 -29.4)"/>
    </clipPath>
    <linearGradient id="linear-gradient-24" x1="-5.787" y1="1.8" x2="-5.574" y2="1.8" xlink:href="#linear-gradient-2"/>
    <clipPath id="clip-path-31">
      <path id="パス_513" data-name="パス 513" class="cls-1" d="M28.1,34.685h1.854A13.749,13.749,0,0,1,38.3,21.4l-.772-1.7A15.757,15.757,0,0,0,28.1,34.685" transform="translate(-28.094 -19.7)"/>
    </clipPath>
    <linearGradient id="linear-gradient-25" x1="-2.179" y1="2.536" x2="-2.094" y2="2.536" xlink:href="#linear-gradient-5"/>
    <clipPath id="clip-path-32">
      <path id="パス_514" data-name="パス 514" class="cls-1" d="M45.477,19.017A35.377,35.377,0,0,0,34.2,21.334l.772,1.7a33.368,33.368,0,0,1,10.659-2.163,37.539,37.539,0,0,0,11.741-2.317L56.755,16.7a35.222,35.222,0,0,1-11.277,2.317" transform="translate(-34.2 -16.7)"/>
    </clipPath>
    <linearGradient id="linear-gradient-26" x1="-2.187" y1="4.604" x2="-2.123" y2="4.604" gradientUnits="objectBoundingBox">
      <stop offset="0" stop-color="#fcd000"/>
      <stop offset="1" stop-color="#ef8200"/>
    </linearGradient>
    <clipPath id="clip-path-33">
      <path id="パス_515" data-name="パス 515" class="cls-1" d="M52.253,12.5a1.39,1.39,0,0,1,1.39.927,3.4,3.4,0,0,1-.927,3.553,11.432,11.432,0,0,1-4.017,3.09l.618,1.854a13.131,13.131,0,0,0,4.789-3.553,5.252,5.252,0,0,0,1.081-5.561A3.4,3.4,0,0,0,52.1,10.8Z" transform="translate(-48.7 -10.8)"/>
    </clipPath>
    <linearGradient id="linear-gradient-27" x1="-5.518" y1="4.909" x2="-5.4" y2="4.909" xlink:href="#linear-gradient-4"/>
    <clipPath id="clip-path-34">
      <path id="パス_516" data-name="パス 516" class="cls-1" d="M38.6,15.014l.463,1.854,4.326-.309a10.659,10.659,0,0,1,7.879,2.935,10.5,10.5,0,0,1,2.626,4.326l1.854-.463a12.668,12.668,0,0,0-3.09-5.252,12.668,12.668,0,0,0-9.269-3.4l-4.789.309" transform="translate(-38.6 -14.69)"/>
    </clipPath>
    <linearGradient id="linear-gradient-28" x1="-3.824" y1="2.795" x2="-3.725" y2="2.795" gradientUnits="objectBoundingBox">
      <stop offset="0" stop-color="#fcd006"/>
      <stop offset="1" stop-color="#ed86b3"/>
    </linearGradient>
    <clipPath id="clip-path-35">
      <path id="パス_517" data-name="パス 517" class="cls-1" d="M37.3,42.227c2.163,3.862,4.48,5.716,8.342,6.488l.618-1.854C42.4,46.089,40.7,44.235,39,41.3Z" transform="translate(-37.3 -41.3)"/>
    </clipPath>
    <linearGradient id="linear-gradient-29" x1="-4.932" y1="0.855" x2="-4.797" y2="0.855" xlink:href="#linear-gradient-19"/>
    <clipPath id="clip-path-36">
      <path id="パス_518" data-name="パス 518" class="cls-1" d="M3.705,2.4A17.148,17.148,0,0,1,2.16,9.661,21.628,21.628,0,0,0,.307,18.312a10.814,10.814,0,0,0,2.626,7.724A6.025,6.025,0,0,0,7.258,27.89V26.036A4.171,4.171,0,0,1,4.169,24.8a8.96,8.96,0,0,1-2.163-6.488,19.928,19.928,0,0,1,2.008-7.879A19.156,19.156,0,0,0,5.714,2.4Z" transform="translate(-0.288 -2.4)"/>
    </clipPath>
    <linearGradient id="linear-gradient-30" x1="0.081" y1="2.618" x2="0.242" y2="2.618" gradientUnits="objectBoundingBox">
      <stop offset="0" stop-color="#f9be00"/>
      <stop offset="1" stop-color="#ef8200"/>
    </linearGradient>
    <clipPath id="clip-path-37">
      <path id="パス_519" data-name="パス 519" class="cls-1" d="M0,31.816a41.865,41.865,0,0,0,1.081,7.57c.927,4.943,2.008,10.5.154,14.367l1.7.772c2.163-4.48.927-10.35,0-15.6a40.011,40.011,0,0,1-1.081-7.261A6.179,6.179,0,0,1,3.4,27.181L1.858,26.1A8.342,8.342,0,0,0,0,31.816" transform="translate(0.008 -26.1)"/>
    </clipPath>
    <linearGradient id="linear-gradient-31" x1="0" y1="1.097" x2="0.294" y2="1.097" xlink:href="#linear-gradient-2"/>
    <clipPath id="clip-path-38">
      <path id="パス_520" data-name="パス 520" class="cls-1" d="M1.354,26.755,2.9,27.991a3.862,3.862,0,0,1,2.626-1.236c4.789,0,6.179,7.57,7.57,15.448l1.854-.309C13.4,33.089,11.859,24.9,5.526,24.9A5.561,5.561,0,0,0,1.2,26.755" transform="translate(-1.2 -24.898)"/>
    </clipPath>
    <linearGradient id="linear-gradient-32" x1="0.087" y1="1.608" x2="0.159" y2="1.608" xlink:href="#linear-gradient-11"/>
    <clipPath id="clip-path-39">
      <path id="パス_521" data-name="パス 521" class="cls-1" d="M4.937.1A2.163,2.163,0,0,0,3.7,2.263a4.277,4.277,0,0,0,.154,1.39H5.709a5.8,5.8,0,0,0-.154-1.545c-.154-.618,0-.154.154-.309h.463l.463.463.463.309.618.618A7.57,7.57,0,0,1,8.953,7.67c0,3.553-1.39,6.952-2.935,10.5S2.465,26.208,2.465,30.688A26.88,26.88,0,0,0,5.4,41.5a30.9,30.9,0,0,1,2.935,9.887,42.019,42.019,0,0,1-.309,8.188,56.231,56.231,0,0,0-.463,9.578c0,.154,0,.309,0,.309h-5.1l.309-.618-1.7-.927-.309.463a2.163,2.163,0,0,0-.309,2.163,1.7,1.7,0,0,0,1.7.772H7.408A2.163,2.163,0,0,0,8.953,70.7a2.317,2.317,0,0,0,.463-1.854,55.3,55.3,0,0,1,.463-9.423,43.1,43.1,0,0,0,.309-8.5A31.978,31.978,0,0,0,7.1,40.575a25.181,25.181,0,0,1-2.626-9.887c0-4.017,1.545-7.879,3.09-11.432S10.652,12,10.652,7.979A9.423,9.423,0,0,0,9.108,2.417L8.181,1.336H7.872L7.563.872H7.408A2.163,2.163,0,0,0,5.863.254H4.937" transform="translate(-0.296 -0.1)"/>
    </clipPath>
    <linearGradient id="linear-gradient-33" x1="0.422" y1="3.102" x2="0.443" y2="3.102" gradientUnits="objectBoundingBox">
      <stop offset="0" stop-color="#f9be00"/>
      <stop offset="1" stop-color="#00a23e"/>
    </linearGradient>
    <clipPath id="clip-path-40">
      <path id="パス_522" data-name="パス 522" class="cls-1" d="M14.081,13.068A79.251,79.251,0,0,1,11.3,22.337l1.7.618a82.651,82.651,0,0,0,2.935-9.578c1.545-6.025,2.626-9.423,5.407-9.423V2.1h0c-4.326,0-5.561,4.789-7.106,10.814" transform="translate(-11.3 -2.1)"/>
    </clipPath>
    <linearGradient id="linear-gradient-34" x1="-0.467" y1="3.76" x2="-0.4" y2="3.76" xlink:href="#linear-gradient-28"/>
    <clipPath id="clip-path-41">
      <path id="パス_523" data-name="パス 523" class="cls-1" d="M9,36.263A57.777,57.777,0,0,0,12.553,49.7a2.008,2.008,0,0,0,2.626,1.236,39.085,39.085,0,0,0,5.561-1.39,1.587,1.587,0,0,0,.463-2.935l-.772-.772-1.39,1.39.618.618a36.306,36.306,0,0,1-4.943,1.236h-.463v-.309a57,57,0,0,1-3.4-12.977Z" transform="translate(-9 -35.8)"/>
    </clipPath>
    <linearGradient id="linear-gradient-35" x1="-0.527" y1="0.926" x2="-0.45" y2="0.926" xlink:href="#linear-gradient-19"/>
  </defs>
  <g id="Banner_links" data-name="Banner links" transform="translate(-190.258 0.328)">
    <g id="Banner_item" data-name="Banner item" transform="translate(190)">
      <g id="長方形_369" data-name="長方形 369" class="cls-2" transform="translate(0.258 -0.328)">
        <rect class="cls-79" width="348" height="120"/>
        <rect class="cls-1" x="2" y="2" width="344" height="116"/>
      </g>
      <g id="ホールディングスロゴ" transform="translate(174.28 60.17)">
        <g id="グループ_430" data-name="グループ 430" transform="translate(-122.28 -35.869)">
          <path id="パス_478" data-name="パス 478" class="cls-3" d="M79.468,20.3v7.106H71.589V20.3H66.8V39.147h4.789V31.732h7.879v7.415h4.943V20.3Z" transform="translate(36.407 11.06)"/>
          <g id="グループ_388" data-name="グループ 388" class="cls-4" transform="translate(0.013)">
            <path id="パス_479" data-name="パス 479" class="cls-3" d="M134.811,39.312a47.884,47.884,0,0,1-.309-5.561V21.083A15.448,15.448,0,0,0,128.477,20c-7.106,0-11.277,4.171-11.277,10.814s2.781,8.806,7.415,8.806a6.952,6.952,0,0,0,5.407-2.472l.309,2.008Zm-5.1-11.586a14.831,14.831,0,0,1-.309,3.244c-.463,2.472-2.163,4.171-4.326,4.171s-3.09-1.7-3.09-4.326,2.163-6.643,5.561-6.643l2.163.309Z" transform="translate(63.854 10.895)"/>
            <path id="パス_480" data-name="パス 480" class="cls-3" d="M137.361,39.312V31.433a11.277,11.277,0,0,1,.463-4.017,3.862,3.862,0,0,1,3.4-2.935,2.317,2.317,0,0,1,2.163,1.236,6.8,6.8,0,0,1,.463,3.244v10.2H149.1V28.5a10.968,10.968,0,0,0-.772-5.1,5.87,5.87,0,0,0-5.561-3.4,7.879,7.879,0,0,0-5.87,2.626,14.059,14.059,0,0,0-.309-2.163H131.8a29.2,29.2,0,0,1,.618,6.643v12.05Z" transform="translate(71.809 10.895)"/>
            <path id="パス_481" data-name="パス 481" class="cls-3" d="M123.444,23.25a5.87,5.87,0,0,0-5.716-3.244,7.724,7.724,0,0,0-5.87,2.781,5.716,5.716,0,0,0-5.1-2.781,7.724,7.724,0,0,0-5.716,2.626,15.447,15.447,0,0,0-.309-2.008H96.1a29.2,29.2,0,0,1,.618,6.643v12.05h4.943V31.129a10.814,10.814,0,0,1,.463-3.862,3.708,3.708,0,0,1,3.244-2.781,2.163,2.163,0,0,1,2.163,1.236,6.488,6.488,0,0,1,.463,3.09v10.5h4.943V31.129a10.968,10.968,0,0,1,.463-3.862,3.708,3.708,0,0,1,3.244-2.781,2.163,2.163,0,0,1,2.163,1.236,6.488,6.488,0,0,1,.463,3.09v10.5h4.943V28.194a10.35,10.35,0,0,0-.772-4.943" transform="translate(52.358 10.89)"/>
            <path id="パス_482" data-name="パス 482" class="cls-3" d="M81.7,20.3a64.574,64.574,0,0,1,.309,10.659,10.968,10.968,0,0,0,.772,5.1,5.87,5.87,0,0,0,5.561,3.553,7.879,7.879,0,0,0,5.716-2.626,13.748,13.748,0,0,0,.309,2.163h4.789a29.66,29.66,0,0,1-.618-6.643V20.3H93.6v7.879a11.432,11.432,0,0,1-.463,4.017,3.862,3.862,0,0,1-3.4,2.935,2.317,2.317,0,0,1-2.163-1.236,6.952,6.952,0,0,1-.463-3.244,75.236,75.236,0,0,0-.309-10.2Z" transform="translate(44.513 11.06)"/>
          </g>
          <g id="グループ_389" data-name="グループ 389" class="cls-5" transform="translate(13.607 23.481)">
            <rect id="長方形_371" data-name="長方形 371" class="cls-6" width="18.075" height="44.677" transform="translate(-6.584 0.976) rotate(-8.6)"/>
          </g>
          <g id="グループ_390" data-name="グループ 390" class="cls-7" transform="translate(31.496 30.433)">
            <rect id="長方形_372" data-name="長方形 372" class="cls-8" width="41.556" height="14.12" transform="translate(-4.028 40.754) rotate(-84.3)"/>
          </g>
          <g id="グループ_391" data-name="グループ 391" class="cls-9" transform="translate(9.745 4.943)">
            <rect id="長方形_373" data-name="長方形 373" class="cls-10" width="23.172" height="23.682"/>
          </g>
          <g id="グループ_392" data-name="グループ 392" class="cls-4" transform="translate(0.013)">
            <path id="パス_486" data-name="パス 486" class="cls-11" d="M11.675,12.328A3.09,3.09,0,0,0,9.358,11.4,3.708,3.708,0,0,0,5.8,15.417a6.025,6.025,0,0,0,.772,2.935l1.7-.927a4.017,4.017,0,0,1-.463-2.008,2.317,2.317,0,0,1,.618-1.7,1.39,1.39,0,0,1,1.081-.463l.927.463Z" transform="translate(3.155 6.21)"/>
          </g>
          <g id="グループ_393" data-name="グループ 393" class="cls-12" transform="translate(7.737 18.538)">
            <rect id="長方形_375" data-name="長方形 375" class="cls-13" width="13.44" height="13.147" transform="matrix(0.618, -0.786, 0.786, 0.618, -5.282, 6.66)"/>
          </g>
          <g id="グループ_394" data-name="グループ 394" class="cls-14" transform="translate(27.511 3.244)">
            <rect id="長方形_376" data-name="長方形 376" class="cls-15" width="19.774" height="30.31" transform="matrix(0.944, -0.331, 0.331, 0.944, -8.724, 3.179)"/>
          </g>
          <g id="グループ_395" data-name="グループ 395" class="cls-16" transform="translate(32.145 37.385)">
            <rect id="長方形_377" data-name="長方形 377" class="cls-17" width="16.221" height="10.876" transform="translate(-3.928 13.584) rotate(-73.8)"/>
          </g>
          <g id="グループ_396" data-name="グループ 396" class="cls-18" transform="translate(37.861 21.319)">
            <rect id="長方形_378" data-name="長方形 378" class="cls-19" width="18.847" height="12.606" transform="matrix(0.331, -0.944, 0.944, 0.331, -5.187, 15.548)"/>
          </g>
          <g id="グループ_397" data-name="グループ 397" class="cls-4" transform="translate(0.013)">
            <path id="パス_491" data-name="パス 491" class="cls-11" d="M35,14.008A3.09,3.09,0,0,0,32.062,12,4.017,4.017,0,0,0,28.2,14.781l1.7.618a2.317,2.317,0,0,1,2.008-1.7,1.236,1.236,0,0,1,1.236.772Z" transform="translate(15.364 6.538)"/>
          </g>
          <g id="グループ_398" data-name="グループ 398" class="cls-20" transform="translate(45.276 20.392)">
            <rect id="長方形_380" data-name="長方形 380" class="cls-21" width="8.806" height="8.636" transform="translate(-3.245 4.062) rotate(-50.6)"/>
          </g>
          <g id="グループ_399" data-name="グループ 399" class="cls-22" transform="translate(38.788 20.237)">
            <rect id="長方形_381" data-name="長方形 381" class="cls-23" width="9.423" height="9.423" transform="matrix(0.76, -0.649, 0.649, 0.76, -3.259, 2.837)"/>
          </g>
          <g id="グループ_400" data-name="グループ 400" class="cls-24" transform="translate(32.917 4.789)">
            <rect id="長方形_382" data-name="長方形 382" class="cls-25" width="12.668" height="17.596" transform="translate(-5.167 2.012) rotate(-20.6)"/>
          </g>
          <g id="グループ_401" data-name="グループ 401" class="cls-26" transform="translate(32.3 52.061)">
            <rect id="長方形_383" data-name="長方形 383" class="cls-27" width="17.302" height="4.356" transform="translate(-0.232 17.562) rotate(-88.854)"/>
          </g>
          <g id="グループ_402" data-name="グループ 402" class="cls-28" transform="translate(47.284 32.441)">
            <rect id="長方形_384" data-name="長方形 384" class="cls-29" width="10.659" height="17.055" transform="translate(-4.468 1.361) rotate(-16.8)"/>
          </g>
          <g id="グループ_403" data-name="グループ 403" class="cls-30" transform="translate(65.977 31.36)">
            <rect id="長方形_385" data-name="長方形 385" class="cls-31" width="41.865" height="19.697" transform="matrix(0.213, -0.977, 0.977, 0.213, -8.355, 38.444)"/>
          </g>
          <g id="グループ_404" data-name="グループ 404" class="cls-32" transform="translate(50.987 47.89)">
            <rect id="長方形_386" data-name="長方形 386" class="cls-33" width="13.44" height="18.553" transform="matrix(0.94, -0.342, 0.342, 0.94, -5.387, 1.949)"/>
          </g>
          <g id="グループ_405" data-name="グループ 405" class="cls-34" transform="translate(47.283 23.018)">
            <rect id="長方形_387" data-name="長方形 387" class="cls-35" width="15.757" height="15.047" transform="matrix(0.815, -0.579, 0.579, 0.815, -4.453, 3.138)"/>
          </g>
          <g id="グループ_406" data-name="グループ 406" class="cls-36" transform="translate(63.768 43.873)">
            <rect id="長方形_388" data-name="長方形 388" class="cls-37" width="20.767" height="6.06" transform="translate(-2.08 19.984) rotate(-85.426)"/>
          </g>
          <g id="グループ_407" data-name="グループ 407" class="cls-38" transform="translate(66.131 37.381)">
            <rect id="長方形_389" data-name="長方形 389" class="cls-39" width="14.058" height="12.529" transform="translate(-3.329 2.021) rotate(-30.5)"/>
          </g>
          <g id="グループ_408" data-name="グループ 408" class="cls-4" transform="translate(0.013)">
            <path id="パス_502" data-name="パス 502" class="cls-40" d="M57.815,26.061A12.822,12.822,0,0,0,50.4,24.208v1.854a10.968,10.968,0,0,1,6.334,1.545Z" transform="translate(27.459 13.177)"/>
          </g>
          <g id="グループ_409" data-name="グループ 409" class="cls-41" transform="translate(83.124 51.906)">
            <rect id="長方形_391" data-name="長方形 391" class="cls-42" width="21.319" height="14.892" transform="translate(-4.373 18.613) rotate(-77.2)"/>
          </g>
          <g id="グループ_410" data-name="グループ 410" class="cls-43" transform="translate(78.49 32.75)">
            <rect id="長方形_392" data-name="長方形 392" class="cls-44" width="36.767" height="7.801" transform="matrix(0.014, -1, 1, 0.014, -0.661, 36.659)"/>
          </g>
          <g id="グループ_411" data-name="グループ 411" class="cls-45" transform="translate(76.945 6.488)">
            <rect id="長方形_393" data-name="長方形 393" class="cls-46" width="22.4" height="13.425" transform="matrix(0.205, -0.979, 0.979, 0.205, -4.035, 19.917)"/>
          </g>
          <g id="グループ_412" data-name="グループ 412" class="cls-4" transform="translate(0.013)">
            <path id="パス_506" data-name="パス 506" class="cls-11" d="M51.848,18.733a5.252,5.252,0,0,1-1.39-3.553,2.935,2.935,0,0,1,.772-2.008,1.7,1.7,0,0,1,1.236-.463V10.7A4.017,4.017,0,0,0,48.6,15.026a7.106,7.106,0,0,0,2.008,4.943Z" transform="translate(26.475 5.83)"/>
            <path id="パス_507" data-name="パス 507" class="cls-47" d="M54.673,6.3a1.545,1.545,0,0,1-.309-1.545,2.781,2.781,0,0,0-.154-2.163.463.463,0,0,1,0-.463h.618a14.676,14.676,0,0,1,3.244,3.553l1.7-.927A16.375,16.375,0,0,0,55.909.585a2.317,2.317,0,0,0-2.935,0,2.163,2.163,0,0,0-.463,2.781.927.927,0,0,1,0,.927,3.4,3.4,0,0,0,.618,3.09l.309.309Z" transform="translate(28.439 0.033)"/>
          </g>
          <g id="グループ_413" data-name="グループ 413" class="cls-48" transform="translate(84.36 4.634)">
            <rect id="長方形_395" data-name="長方形 395" class="cls-49" width="29.815" height="10.659" transform="translate(-2.706 29.111) rotate(-84.7)"/>
          </g>
          <g id="グループ_414" data-name="グループ 414" class="cls-50" transform="translate(84.206 39.239)">
            <rect id="長方形_396" data-name="長方形 396" class="cls-51" width="8.342" height="13.672" transform="translate(-3.483 1.078) rotate(-16.6)"/>
          </g>
          <g id="グループ_415" data-name="グループ 415" class="cls-4" transform="translate(0.013)">
            <path id="パス_510" data-name="パス 510" class="cls-52" d="M43.343,41.4a5.1,5.1,0,0,1-1.081,3.244A5.1,5.1,0,0,1,38.4,45.88v1.854a6.952,6.952,0,0,0,5.252-1.854A6.334,6.334,0,0,0,45.2,41.863Z" transform="translate(20.922 22.556)"/>
          </g>
          <g id="グループ_416" data-name="グループ 416" class="cls-53" transform="translate(46.357 58.395)">
            <rect id="長方形_398" data-name="長方形 398" class="cls-54" width="17.457" height="17.503" transform="matrix(0.66, -0.751, 0.751, 0.66, -5.683, 6.603)"/>
          </g>
          <g id="グループ_417" data-name="グループ 417" class="cls-55" transform="translate(43.419 45.418)">
            <rect id="長方形_399" data-name="長方形 399" class="cls-56" width="7.261" height="14.707" transform="translate(-2.614 0.365) rotate(-11.535)"/>
          </g>
          <g id="グループ_418" data-name="グループ 418" class="cls-57" transform="translate(43.413 30.433)">
            <rect id="長方形_400" data-name="長方形 400" class="cls-58" width="18.075" height="16.53" transform="translate(-6.796 10.952) rotate(-58.5)"/>
          </g>
          <g id="グループ_419" data-name="グループ 419" class="cls-59" transform="translate(52.846 25.799)">
            <rect id="長方形_401" data-name="長方形 401" class="cls-60" width="23.945" height="10.381" transform="translate(-1.224 0.294) rotate(-10.3)"/>
          </g>
          <g id="グループ_420" data-name="グループ 420" class="cls-61" transform="translate(75.246 16.684)">
            <rect id="長方形_402" data-name="長方形 402" class="cls-62" width="13.131" height="11.215" transform="translate(-3.888 9.202) rotate(-66.1)"/>
          </g>
          <g id="グループ_421" data-name="グループ 421" class="cls-63" transform="translate(59.643 22.694)">
            <rect id="長方形_403" data-name="長方形 403" class="cls-64" width="15.757" height="19.31" transform="matrix(0.445, -0.896, 0.896, 0.445, -3.627, 7.332)"/>
          </g>
          <g id="グループ_422" data-name="グループ 422" class="cls-65" transform="translate(57.635 63.802)">
            <rect id="長方形_404" data-name="長方形 404" class="cls-66" width="11.432" height="11.633" transform="matrix(0.627, -0.779, 0.779, 0.627, -3.605, 4.411)"/>
          </g>
          <g id="グループ_423" data-name="グループ 423" class="cls-67" transform="translate(0.457 3.708)">
            <rect id="長方形_405" data-name="長方形 405" class="cls-68" width="9.578" height="26.046" transform="translate(-2.427 0.214) rotate(-5.6)"/>
          </g>
          <g id="グループ_424" data-name="グループ 424" class="cls-69" transform="translate(0 40.32)">
            <rect id="長方形_406" data-name="長方形 406" class="cls-70" width="5.252" height="28.502" transform="matrix(1, -0.005, 0.005, 1, -0.085, 0)"/>
          </g>
          <g id="グループ_425" data-name="グループ 425" class="cls-71" transform="translate(1.866 38.463)">
            <rect id="長方形_407" data-name="長方形 407" class="cls-72" width="21.319" height="22.137" transform="matrix(0.804, -0.595, 0.595, 0.804, -8.196, 6.095)"/>
          </g>
          <g id="グループ_426" data-name="グループ 426" class="cls-73" transform="translate(0.47 0.154)">
            <rect id="長方形_408" data-name="長方形 408" class="cls-74" width="71.835" height="13.764" transform="matrix(0.04, -1, 1, 0.04, -3.121, 71.059)"/>
          </g>
          <g id="グループ_427" data-name="グループ 427" class="cls-75" transform="translate(17.469 3.244)">
            <rect id="長方形_409" data-name="長方形 409" class="cls-76" width="23.172" height="17.766" transform="translate(-7.997 17.327) rotate(-65.5)"/>
          </g>
          <g id="グループ_428" data-name="グループ 428" class="cls-77" transform="translate(13.916 55.305)">
            <rect id="長方形_410" data-name="長方形 410" class="cls-78" width="19.928" height="20.083" transform="matrix(0.741, -0.672, 0.672, 0.741, -7.605, 6.862)"/>
          </g>
          <g id="グループ_429" data-name="グループ 429" class="cls-4" transform="translate(0.013)">
            <path id="パス_524" data-name="パス 524" class="cls-3" d="M136.825,39.1c-.618,2.472-2.472,3.708-6.025,4.017v1.545l3.553-.463v4.171h2.163V43.426a6.643,6.643,0,0,0,2.935-4.326Z" transform="translate(71.264 21.303)"/>
            <path id="パス_525" data-name="パス 525" class="cls-3" d="M107.779,37.7h-2.317v1.854H101.6v1.854h3.862v8.033h2.163V41.408h4.017V39.554h-3.862Z" transform="translate(55.355 20.54)"/>
            <path id="パス_526" data-name="パス 526" class="cls-3" d="M101.3,47.134c1.854-.309,3.553-2.008,3.553-6.334H102.69c0,2.317-.154,3.862-1.39,4.634Z" transform="translate(55.191 22.229)"/>
            <path id="パス_527" data-name="パス 527" class="cls-3" d="M109.653,47.134c-1.854-.309-3.553-2.008-3.553-6.334h2.163c0,2.317.154,3.862,1.236,4.48Z" transform="translate(57.807 22.229)"/>
            <rect id="長方形_411" data-name="長方形 411" class="cls-3" width="7.57" height="1.792" transform="translate(191.25 58.704)"/>
            <path id="パス_528" data-name="パス 528" class="cls-3" d="M133.541,40.1H123.5v1.7h4.171c0,2.626-1.081,3.862-3.244,4.017V47.67a5.252,5.252,0,0,0,5.716-5.87h3.4Z" transform="translate(67.287 21.848)"/>
            <rect id="長方形_412" data-name="長方形 412" class="cls-3" width="1.236" height="1.977" transform="translate(199.592 58.549)"/>
            <rect id="長方形_413" data-name="長方形 413" class="cls-3" width="1.236" height="1.977" transform="translate(201.6 58.549)"/>
            <path id="パス_529" data-name="パス 529" class="cls-3" d="M81.106,41.1a1.545,1.545,0,0,0-1.7-1.7H74.772v1.854h3.862a40.322,40.322,0,0,1-.309,5.1H74v1.7h8.5v-1.7H80.643a41.4,41.4,0,0,0,.463-5.252" transform="translate(40.318 21.463)"/>
            <rect id="長方形_414" data-name="長方形 414" class="cls-3" width="8.806" height="1.993" transform="translate(123.586 63.184)"/>
            <rect id="長方形_415" data-name="長方形 415" class="cls-3" width="4.943" height="1.946" transform="translate(145.06 59.167)"/>
            <path id="パス_530" data-name="パス 530" class="cls-3" d="M100.906,39.2c0,4.943-1.7,6.952-7.106,6.8v2.317c6.179.309,9.115-2.317,9.115-8.96Z" transform="translate(51.105 21.357)"/>
            <path id="パス_531" data-name="パス 531" class="cls-3" d="M94.851,38.3H86.2v1.854h7.724a4.635,4.635,0,0,1-2.781,4.48l-1.081-2.317H87.745A46.809,46.809,0,0,1,90.217,48.8h2.472l-.927-2.472A6.952,6.952,0,0,0,96.4,39.845c0-1.081-.463-1.545-1.545-1.545" transform="translate(46.964 20.867)"/>
            <path id="パス_532" data-name="パス 532" class="cls-3" d="M69.937,45.524a4.171,4.171,0,0,1-.154-1.545V42.126h6.179V40.117H69.782V37.8H67.311v6.488a5.252,5.252,0,0,0,.463,2.781c.772,1.39,2.472,2.317,6.334,2.317h2.008V47.223H74.571c-2.935,0-4.017-.618-4.48-1.7" transform="translate(36.657 20.595)"/>
            <path id="パス_533" data-name="パス 533" class="cls-3" d="M122.871,42.226c0,1.7-.618,3.708-1.854,4.326V37.9H118.7v9.732q0,1.854,1.854,1.39c1.236-.309,4.171-3.09,4.171-6.8Z" transform="translate(64.671 20.649)"/>
            <path id="パス_534" data-name="パス 534" class="cls-3" d="M119.062,37.9h-2.317v4.326c0,3.244-.463,4.326-1.545,4.943v1.854c2.008-.463,3.708-2.317,3.708-6.179Z" transform="translate(62.765 20.649)"/>
            <rect id="長方形_416" data-name="長方形 416" class="cls-3" width="1.236" height="1.977" transform="translate(231.261 57.159)"/>
            <rect id="長方形_417" data-name="長方形 417" class="cls-3" width="1.236" height="1.977" transform="translate(233.115 57.159)"/>
            <rect id="長方形_418" data-name="長方形 418" class="cls-3" width="4.943" height="1.946" transform="translate(211.796 59.167)"/>
            <path id="パス_535" data-name="パス 535" class="cls-3" d="M144.206,39.2c0,4.943-1.7,6.952-7.106,6.8v2.317c6.179.309,9.115-2.317,9.115-8.96Z" transform="translate(74.696 21.357)"/>
            <path id="パス_536" data-name="パス 536" class="cls-3" d="M161.95,48.918a28.422,28.422,0,0,0-2.626-4.943,11.74,11.74,0,0,0,1.081-4.017,1.545,1.545,0,0,0-1.7-1.854h-6.334v2.008h5.407a7.57,7.57,0,0,1-6.179,7.261v1.854a9.269,9.269,0,0,0,6.334-3.09,17,17,0,0,1,1.39,2.935Z" transform="translate(82.596 20.754)"/>
            <path id="パス_537" data-name="パス 537" class="cls-3" d="M143.9,42.12v1.7a4.171,4.171,0,0,0,3.708-3.862h3.708c0,4.171-1.236,7.261-5.87,7.415v1.7q8.342,0,8.342-9.269a1.545,1.545,0,0,0-1.7-1.7h-5.252c-1.081,0-1.545.463-1.545,1.39a3.09,3.09,0,0,1-1.39,2.781" transform="translate(78.401 20.755)"/>
            <path id="パス_538" data-name="パス 538" class="cls-3" d="M117.906,40.9H109.1v2.008h8.806V40.9Z" transform="translate(59.441 22.284)"/>
          </g>
        </g>
      </g>
    </g>
  </g>
</svg>
