<svg xmlns="http://www.w3.org/2000/svg" width="275.534" height="11.536" viewBox="0 0 275.534 11.536">
  <path id="パス_1723" data-name="パス 1723" d="M-132.965-9.38a4.491,4.491,0,0,0-4.816,4.76A4.491,4.491,0,0,0-132.965.14a4.487,4.487,0,0,0,4.8-4.76A4.487,4.487,0,0,0-132.965-9.38Zm0,1.078a3.447,3.447,0,0,1,3.654,3.682,3.447,3.447,0,0,1-3.654,3.682,3.44,3.44,0,0,1-3.654-3.682A3.44,3.44,0,0,1-132.965-8.3Zm0,1.05a2.41,2.41,0,0,0-2.52,2.646,2.41,2.41,0,0,0,2.52,2.646,2.254,2.254,0,0,0,2.408-1.568l-1.092-.5a1.142,1.142,0,0,1-1.218.742,1.156,1.156,0,0,1-1.218-1.316,1.148,1.148,0,0,1,1.2-1.3,1.091,1.091,0,0,1,1.162.7l1.148-.574A2.285,2.285,0,0,0-132.965-7.252ZM-120,0h6.664V-1.554h-2.548c-.476,0-1.288.028-1.694.056v-.014c2.8-1.722,4.1-3.15,4.1-4.928,0-1.54-1.092-2.94-3.332-2.94a3.148,3.148,0,0,0-3.486,3l1.666.63c.056-1.3.672-2.044,1.708-2.044a1.389,1.389,0,0,1,1.5,1.47c0,1.414-1.218,2.772-4.578,5.012Zm12.936.14c2.45,0,3.7-1.638,3.7-4.76s-1.246-4.76-3.7-4.76-3.7,1.638-3.7,4.76S-109.515.14-107.065.14Zm0-1.554c-1.19,0-1.764-1.008-1.764-3.206s.574-3.206,1.764-3.206S-105.3-6.818-105.3-4.62-105.875-1.414-107.065-1.414ZM-100.583,0h6.664V-1.554h-2.548c-.476,0-1.288.028-1.694.056v-.014c2.8-1.722,4.1-3.15,4.1-4.928,0-1.54-1.092-2.94-3.332-2.94a3.148,3.148,0,0,0-3.486,3l1.666.63c.056-1.3.672-2.044,1.708-2.044A1.389,1.389,0,0,1-96-6.328c0,1.414-1.218,2.772-4.578,5.012Zm12.936.14c2.45,0,3.7-1.638,3.7-4.76s-1.246-4.76-3.7-4.76-3.7,1.638-3.7,4.76S-90.1.14-87.647.14Zm0-1.554c-1.19,0-1.764-1.008-1.764-3.206s.574-3.206,1.764-3.206,1.764,1.008,1.764,3.206S-86.457-1.414-87.647-1.414ZM-69.461-9.24v3.794h-4.074V-9.24h-1.932V0h1.932V-3.892h4.074V0h1.932V-9.24Zm13.216,0h-1.946v5.516c0,1.554-.644,2.282-2,2.282s-2.016-.728-2.016-2.282V-9.24h-1.932v5.6c0,2.52,1.372,3.78,3.948,3.78s3.948-1.26,3.948-3.78Zm13.426,0h-2.716l-1.652,5.054-.6,2.072h-.028L-48.4-4.2l-1.666-5.04h-2.8V0h1.75V-4.816l-.1-2.7h.028L-48.643,0h1.582L-44.5-7.518h.028l-.084,2.7V0h1.736ZM-33.271,0h2l-3.374-9.24h-2.31L-40.327,0h1.974l.756-2.254h3.57Zm-3.836-3.682.882-2.632.392-1.372h.028l.42,1.4.882,2.6ZM-20.839-9.24h-1.736v5.348l.056,1.638h-.028l-.8-1.568L-26.579-9.24h-2.2V0h1.736V-5.348L-27.1-6.986h.014l.8,1.554L-23.051,0h2.212Zm14.938,0v3.794H-9.975V-9.24h-1.932V0h1.932V-3.892H-5.9V0h1.932V-9.24Zm9.45-.14C.805-9.38-.9-7.588-.9-4.62S.805.14,3.549.14,7.987-1.652,7.987-4.62,6.293-9.38,3.549-9.38Zm0,1.582c1.54,0,2.436,1.12,2.436,3.178s-.9,3.178-2.436,3.178S1.1-2.562,1.1-4.62,2-7.8,3.549-7.8Zm9.436,6.244V-9.24H11.053V0h6.8V-1.554ZM24.157-9.24h-3.57V0h3.57c2.9,0,4.55-1.666,4.55-4.62S27.055-9.24,24.157-9.24Zm-.1,7.7h-1.54V-7.7h1.54c1.764,0,2.646,1.092,2.646,3.08S25.823-1.54,24.059-1.54Zm9.646-7.7H31.773V0h1.932Zm11.466,0H43.435v5.348l.056,1.638h-.028l-.8-1.568L39.431-9.24h-2.2V0h1.736V-5.348l-.056-1.638h.014l.8,1.554L42.959,0h2.212Zm7.168,4.354v1.428h2.7v.21c0,1.232-.966,1.834-2.212,1.834-1.708,0-2.59-1.106-2.59-3.206,0-2.058.966-3.178,2.548-3.178a2.012,2.012,0,0,1,2.1,1.456l1.778-.77C55.937-8.68,54.733-9.38,52.731-9.38c-2.744,0-4.494,1.806-4.494,4.774,0,3.01,1.75,4.746,4.284,4.746a3.077,3.077,0,0,0,2.73-1.246L55.293,0h1.414V-4.886ZM63.315-9.38c-2.394,0-3.78,1.274-3.78,2.912,0,1.54.98,2.324,3.556,2.842,1.526.308,2.016.6,2.016,1.106,0,.7-.644,1.078-1.834,1.078a2.908,2.908,0,0,1-2.856-1.512L59.269-1.582C60.053-.462,61.243.14,63.343.14c2.212,0,3.794-1.036,3.794-2.772,0-1.54-.938-2.31-3.43-2.772-1.624-.294-2.128-.63-2.128-1.246,0-.658.588-1.148,1.75-1.148a2.488,2.488,0,0,1,2.492,1.5l1.33-1.3A4.384,4.384,0,0,0,63.315-9.38ZM83.377-2.548,81.6-3.08a2.01,2.01,0,0,1-2.128,1.638c-1.554,0-2.464-1.134-2.464-3.178S77.973-7.8,79.513-7.8A1.826,1.826,0,0,1,81.5-6.244l1.75-.742C82.733-8.6,81.319-9.38,79.429-9.38,76.727-9.38,75-7.588,75-4.62S76.713.14,79.457.14A3.79,3.79,0,0,0,83.377-2.548ZM90.139-9.38c-2.744,0-4.452,1.792-4.452,4.76S87.4.14,90.139.14s4.438-1.792,4.438-4.76S92.883-9.38,90.139-9.38Zm0,1.582c1.54,0,2.436,1.12,2.436,3.178s-.9,3.178-2.436,3.178-2.45-1.12-2.45-3.178S88.585-7.8,90.139-7.8Zm7.854,5.656a1.09,1.09,0,0,0-1.218,1.134A1.09,1.09,0,0,0,97.993.126a1.1,1.1,0,0,0,1.218-1.134A1.1,1.1,0,0,0,97.993-2.142Zm5.026,0A1.128,1.128,0,0,0,101.8-.966,1.013,1.013,0,0,0,102.823.112a.543.543,0,0,0,.406-.14l.056.042a2.474,2.474,0,0,1-1.6,1.47l.882.672A2.869,2.869,0,0,0,104.363-.5C104.363-1.428,103.9-2.142,103.019-2.142Zm6.244.588V-9.24h-1.932V0h6.8V-1.554ZM122.3-9.24h-8.134v1.554h3.108V0H119.2V-7.686H122.3Zm6.272,0H125V0h3.57c2.9,0,4.55-1.666,4.55-4.62S131.467-9.24,128.569-9.24Zm-.1,7.7h-1.54V-7.7h1.54c1.764,0,2.646,1.092,2.646,3.08S130.235-1.54,128.471-1.54Zm8.064-.6a1.09,1.09,0,0,0-1.218,1.134A1.09,1.09,0,0,0,136.535.126a1.1,1.1,0,0,0,1.218-1.134A1.1,1.1,0,0,0,136.535-2.142Z" transform="translate(137.781 9.38)"/>
</svg>
