<?xml version="1.0" encoding="utf-8"?>
<!-- Generator: Adobe Illustrator 24.0.3, SVG Export Plug-In . SVG Version: 6.00 Build 0)  -->
<svg version="1.1" id="レイヤー_1" xmlns="http://www.w3.org/2000/svg" xmlns:xlink="http://www.w3.org/1999/xlink" x="0px"
	 y="0px" viewBox="0 0 570 182.13" style="enable-background:new 0 0 570 182.13;" xml:space="preserve">
<style type="text/css">
	.st0{fill:#231815;}
	.st1{fill:url(#SVGID_1_);}
	.st2{fill:url(#SVGID_2_);}
	.st3{fill:url(#SVGID_3_);}
	.st4{fill:#E62320;}
	.st5{fill:url(#SVGID_4_);}
	.st6{fill:url(#SVGID_5_);}
	.st7{fill:url(#SVGID_6_);}
	.st8{fill:url(#SVGID_7_);}
	.st9{fill:url(#SVGID_8_);}
	.st10{fill:url(#SVGID_9_);}
	.st11{fill:url(#SVGID_10_);}
	.st12{fill:url(#SVGID_11_);}
	.st13{fill:url(#SVGID_12_);}
	.st14{fill:url(#SVGID_13_);}
	.st15{fill:url(#SVGID_14_);}
	.st16{fill:url(#SVGID_15_);}
	.st17{fill:url(#SVGID_16_);}
	.st18{fill:url(#SVGID_17_);}
	.st19{fill:#00A23E;}
	.st20{fill:url(#SVGID_18_);}
	.st21{fill:url(#SVGID_19_);}
	.st22{fill:url(#SVGID_20_);}
	.st23{fill:#ED86B3;}
	.st24{fill:url(#SVGID_21_);}
	.st25{fill:url(#SVGID_22_);}
	.st26{fill:#5E66AD;}
	.st27{fill:url(#SVGID_23_);}
	.st28{fill:url(#SVGID_24_);}
	.st29{fill:url(#SVGID_25_);}
	.st30{fill:url(#SVGID_26_);}
	.st31{fill:url(#SVGID_27_);}
	.st32{fill:url(#SVGID_28_);}
	.st33{fill:url(#SVGID_29_);}
	.st34{fill:url(#SVGID_30_);}
	.st35{fill:url(#SVGID_31_);}
	.st36{fill:url(#SVGID_32_);}
	.st37{fill:url(#SVGID_33_);}
	.st38{fill:url(#SVGID_34_);}
	.st39{fill:url(#SVGID_35_);}
	.st40{fill:#404040;}
</style>
<g>
	<path class="st0" d="M33.89,161.48c-2.94-5.81-5.52-14.38-5.49-22.04v-5.47h-4.88v6.2c0,3.9-0.61,11.01-4.35,19.54
		c-3.15,7.13-9.41,13.24-19.37,17.89l3.1,3.97c9.44-4.4,17.17-11.54,21.24-22.32c0.04-0.09,0.05-0.18,0.3-0.8
		c0.59-1.46,2.67-1.6,3.3,0.07c0.18,0.52,0.21,0.59,0.3,0.8c3.03,7.91,8.75,16.28,20.74,22.45l3.21-4.13
		C42.96,173.33,37.26,168.13,33.89,161.48z"/>
	<path class="st0" d="M114.74,177.71l3.42,2.8c4.53-4.76,6.15-10.76,6.84-13.2l-4.13-1.09C119.35,171.56,118,174.09,114.74,177.71z"
		/>
	<path class="st0" d="M462.14,160.95c1.83-0.69,2.87-1.16,3.96-1.69l-0.32-3.88c-1.21,0.53-2.03,0.87-3.58,1.46
		c-0.34,0.12-0.57,0.23-1,0.34c-0.61,0.16-1.57,0.02-1.57-0.98c0-0.21,0-0.46,0-1.21c0-1.55,0-3.9,0-5.61
		c0-1.19,0.96-2.16,2.16-2.16h3.99v-3.92h-3.99c-1.19,0-2.16-0.96-2.16-2.16v-7.25h-4.56v7.25c0,1.19-0.96,2.16-2.16,2.16h-5.86
		v3.94h5.86c1.19,0,2.16,0.96,2.16,2.16c0,2.12,0,5.29,0,7.16c0,0.62,0,0.73,0,0.98c0,1.39-1.21,2-1.67,2.14
		c-0.37,0.11-0.36,0.14-0.68,0.23c-2.49,0.69-4.03,1.07-6.2,1.46l0.93,4.29c1.82-0.48,3.17-0.82,5.38-1.51
		c0.3-0.09,0.45-0.14,0.78-0.25c0.45-0.14,1.48-0.16,1.48,1.26c0,0.21,0,0.39,0,0.89c0,3.01,0,10.4,0,10.4
		c0,1.14-0.27,1.19-1.64,1.19l-5.4-0.05l0.66,4.29h6.59c1.46,0,4.35-0.41,4.35-4.24c0,0,0-9.42,0-12.95c0-0.55,0-0.66,0-0.86
		c0-1.51,1.3-2.41,1.75-2.57C461.75,161.09,461.82,161.07,462.14,160.95z"/>
	<path class="st0" d="M517.04,159.61c-1.69-0.93-2.73-1.53-2.73-2.26c0-0.68,1.25-1.62,3.42-3.03c13.17-8.43,18.26-12.67,22.79-16.8
		l-4.97-2.65c-4.53,4.65-11.81,10.08-20.95,16.39c-3.87,2.64-5.72,3.97-5.72,6.47c0,2.37,2.07,3.56,7.07,6.41
		c9.69,5.54,17.25,9.87,24.82,16.09l4.31-3.38c-4.47-3.83-12.35-8.84-17.83-11.83C525.79,164.17,518.68,160.48,517.04,159.61z"/>
	<path class="st0" d="M561.71,164.74c-4.47,0-8.11,3.42-8.11,7.7c0,4.24,3.6,7.7,8.11,7.7c4.47,0,8.11-3.46,8.11-7.7
		C569.81,168.11,566.13,164.74,561.71,164.74z M561.71,177.51c-2.99,0-5.38-2.28-5.38-5.06c0-2.85,2.44-5.11,5.38-5.11
		c2.89,0,5.33,2.23,5.33,5.11C567.05,175.23,564.65,177.51,561.71,177.51z"/>
	<path class="st0" d="M91.08,158.88c0.34-0.12,0.68-0.23,1.02-0.36c4.63-1.62,8-2.6,11.76-3.62l-1.3-4.49
		c-3.51,1.14-8.34,2.94-11.24,4.03c-0.48,0.18-0.29,0.11-0.64,0.23c-0.52,0.2-1.67,0.27-2.26-1.07c-0.2-0.45-0.25-0.55-0.46-0.93
		c-1.59-2.71-4.36-3.4-7.27-3.4c-1.55,0-2.92,0.29-4.53,0.93c-0.41,0.18,0.37-0.18-0.41,0.18c-1.78,1-2.58-0.12-2.05-1.14
		c0.5-0.94,0.55-1.16,1.02-2.28c0.07-0.2,0.09-0.23,0.18-0.45c0.18-0.45,1.12-1.62,2.33-1.62c0.98,0,22.32,0,22.32,0v-4.15H79.57
		c0,0-2.78,0.07-2.19-1.83c0.5-1.64,0.57-2.32,0.84-3.76L73,134.94c-0.25,1.98-0.45,2.99-0.69,4.06c-0.3,1.3-1.89,1.73-2.64,1.73
		c-0.34,0-10.33,0-10.33,0v4.13c0,0,5.9,0,8.41,0c0.43,0,0.34,0,0.5,0c1.62,0,1.73,1.51,1.51,2.16c-0.07,0.23-0.09,0.21-0.18,0.43
		c-3.3,8.09-7.29,12.95-11.63,16.85l3.37,3.46c1.75-1.71,5.33-6.25,7.84-9.51c3.81-3.67,7.79-5.27,10.78-5.27
		c1.71,0,2.96,0.48,3.78,1.75c0.21,0.32,0.25,0.45,0.37,0.69c0.46,1.02-0.36,2-1.23,2.39c-0.41,0.2-0.5,0.23-0.94,0.43
		c-5.42,2.55-12.47,6.81-12.47,12.79c0,8.32,12.29,8.32,18.46,8.32c5.17,0,9.91-0.3,13.01-0.52l-0.16-4.45
		c-4.9,0.52-10.01,0.73-14.38,0.73c-5.99,0-12.03,0-12.03-4.54c0-3.51,4.49-6.36,8.41-8.3c0.36-0.18,0.48-0.23,0.82-0.39
		c0.46-0.21,1.57-0.2,1.64,1c0.04,0.61,0.02,0.87,0.02,1.39c0,1.85-0.16,3.78-0.27,4.97h4.74c0.16-1.66,0.16-3.21,0.16-3.94
		c0-1.28-0.05-2.74-0.11-4.12c-0.02-0.3-0.02-0.12-0.02-0.41C89.64,159.81,90.42,159.15,91.08,158.88z"/>
	<path class="st0" d="M145.27,177.41h-10.23c-2.51,0-2.83-0.41-2.83-2.28v-7.71h-4.4v10.46c0,3.46,3.1,3.46,4.13,3.46h15.41
		c4.53,0,5.33-3.31,6.15-8.94l-4.13-1.14C148.27,177.16,148.27,177.41,145.27,177.41z"/>
	<path class="st0" d="M133.78,165.61c3.76,2.23,6.86,4.92,8.98,7.18l3.05-3.05c-2.67-2.69-5.83-5.11-9.19-7.14L133.78,165.61z"/>
	<path class="st0" d="M154.13,168.16c3.1,3.46,5.77,6.98,8,11.88l3.76-2.58c-2.62-4.54-4.53-7.39-8.37-11.33L154.13,168.16z"/>
	<path class="st0" d="M210.78,139.82l-3.55,2.58c5.67,4.4,9.89,11.83,9.89,25.33c0,2.37-0.02,4.08-0.12,5.42l5.11-0.2
		C222.88,152.29,217.27,144.98,210.78,139.82z"/>
	<path class="st0" d="M189.03,173.04c-6.29,0-7-11.56-7-19.58c0-6.98,0.77-11.69,1.21-14.79l-4.97-0.39
		c-0.32,3.51-0.87,9.16-0.87,14.79c0,13.45,2.44,25.03,11.26,25.03c2.78,0,4.79-1.25,6.09-2.48c3.05-2.9,5.56-7.23,7.34-12.04
		l-3.88-2.08C194.44,170.76,191.47,173.04,189.03,173.04z"/>
	<path class="st0" d="M236.4,166.65l-4.13,2.89c1.8,1.82,5.17,5.17,9.03,10.71l4.79-3.21C243.79,174.09,239.93,169.76,236.4,166.65z
		"/>
	<path class="st0" d="M367.7,163.89C367.68,163.89,367.72,163.9,367.7,163.89L367.7,163.89z"/>
	<path class="st0" d="M342.37,163.55c0,0-0.02,0-0.02,0.02C342.24,163.62,342.31,163.56,342.37,163.55z"/>
	<path class="st0" d="M423.78,158.88c0.34-0.12,0.68-0.23,1.02-0.36c4.63-1.62,8-2.6,11.76-3.62l-1.3-4.49
		c-3.51,1.14-8.34,2.94-11.24,4.03c-0.48,0.18-0.29,0.11-0.64,0.23c-0.52,0.2-1.67,0.27-2.24-1.07c-0.2-0.45-0.25-0.55-0.46-0.93
		c-1.59-2.71-4.36-3.4-7.27-3.4c-1.55,0-2.92,0.29-4.53,0.93c-0.39,0.16,0.37-0.2-0.39,0.16c-1.78,1-2.58-0.12-2.05-1.14
		c0.5-0.94,0.55-1.16,1.02-2.28c0.07-0.2,0.09-0.23,0.18-0.45c0.18-0.45,1.12-1.62,2.33-1.62c0.98,0,22.32,0,22.32,0v-4.13h-19.99
		c0,0-2.78,0.07-2.19-1.83c0.5-1.64,0.57-2.32,0.84-3.76l-5.22-0.21c-0.25,1.98-0.45,2.99-0.69,4.06c-0.3,1.3-1.89,1.73-2.64,1.73
		c-0.34,0-10.33,0-10.33,0v4.13c0,0,5.9,0,8.41,0c0.43,0,0.34,0,0.5,0c1.62,0,1.73,1.51,1.51,2.16c-0.07,0.23-0.09,0.21-0.18,0.43
		c-3.3,8.09-7.29,12.95-11.63,16.85l3.37,3.46c1.75-1.71,5.33-6.25,7.84-9.51c3.81-3.67,7.79-5.27,10.78-5.27
		c1.71,0,2.96,0.48,3.78,1.75c0.21,0.32,0.25,0.45,0.37,0.69c0.46,1.02-0.36,2-1.23,2.39c-0.41,0.2-0.5,0.23-0.94,0.43
		c-5.42,2.55-12.47,6.81-12.47,12.79c0,8.32,12.29,8.32,18.46,8.32c5.17,0,9.91-0.3,13.01-0.52l-0.16-4.45
		c-4.9,0.52-10.01,0.73-14.38,0.73c-5.99,0-12.03,0-12.03-4.54c0-3.51,4.49-6.36,8.41-8.3c0.36-0.18,0.48-0.23,0.82-0.39
		c0.46-0.21,1.57-0.2,1.64,1c0.04,0.61,0.02,0.87,0.02,1.39c0,1.85-0.16,3.78-0.27,4.97h4.74c0.16-1.66,0.16-3.21,0.16-3.94
		c0-1.28-0.07-2.74-0.11-4.12c-0.02-0.3-0.02-0.3-0.02-0.59C422.36,159.79,423.12,159.15,423.78,158.88z"/>
	<path class="st0" d="M125.41,163.81h4.12c0,0,0-9.66,0-12.56c0-0.77,0.61-1.05,1.09-0.41c1.48,2.05,2.8,3.44,4.58,5.27l2.44-3.31
		c-3.88-2.81-6.57-6.15-7.66-7.61c-0.61-0.89,0.3-1.91,1.03-1.91c1.46,0,6.95,0,6.95,0v-3.72c0,0-5.9,0-6.82,0
		c-0.91,0-1.62-0.46-1.62-1.62c0-1.16,0-4.01,0-4.01h-4.12c0,0,0,3.3,0,4.01c0,0.73-0.45,1.62-1.62,1.62c-1.18,0-8.46,0-8.46,0v3.72
		c0,0,5.59,0,7.8,0c0.84,0,1.8,0.45,1.07,1.85c-2.14,3.38-5.24,7.5-9.64,10.97l2.23,3.67c3.12-3.05,5.33-5.68,7.32-8.85
		c0.37-0.66,1.16-0.84,1.28,0.29c0,0.04,0,0.09,0,0.12C125.41,154.59,125.41,163.81,125.41,163.81z"/>
	<path class="st0" d="M477.3,150.15c0.57-1.8,1.12-4.03,1.64-7.36c0.23-1.46,1.39-2.57,2.57-2.57c0.18,0-0.12,0,0.62,0
		c4.15,0,15.57,0,15.57,0v-3.97h-32.1v3.97c0,0,4.31,0,6.72,0c0.53,0,0.16,0,0.45,0c0.86,0,2.21,0.66,1.91,2.76
		c-1.12,7.66-4.13,16.27-13.25,23.46l3.1,3.46c2.07-1.78,3.4-3.12,4.61-4.54c0.27-0.3,0.25-0.3,0.52-0.62
		c0.34-0.41,1.02-0.36,1.02,0.71c0,0.14,0-0.02,0,0.53c0,3.71,0,14.88,0,14.88h24.82v-27.19c0,0-11.54,0-15.98,0
		c-0.93,0-0.91,0-1.03,0c-1.78,0.11-2.21-0.53-1.75-1.76C476.92,151.29,477.05,150.88,477.3,150.15z M476.85,157.51h12.29
		c1.19,0,2.16,0.96,2.16,2.16v15.07c0,1.19-0.96,2.16-2.16,2.16h-12.29c-1.19,0-2.16-0.96-2.16-2.16v-15.07
		C474.7,158.47,475.68,157.51,476.85,157.51z"/>
	<path class="st0" d="M140.7,135.47v27.67h22.43v-27.67H140.7z M158.97,157.74c0,1.03-0.86,1.89-1.89,1.89H146.7
		c-1.03,0-1.89-0.86-1.89-1.89v-1.35c0-1.03,0.86-1.89,1.89-1.89h10.39c1.03,0,1.89,0.86,1.89,1.89V157.74z M158.97,149.37
		c0,1.03-0.86,1.89-1.89,1.89H146.7c-1.03,0-1.89-0.86-1.89-1.89v-0.78c0-1.03,0.86-1.89,1.89-1.89h10.39
		c1.03,0,1.89,0.86,1.89,1.89V149.37z M158.97,141.55c0,1.03-0.86,1.89-1.89,1.89H146.7c-1.03,0-1.89-0.86-1.89-1.89v-0.62
		c0-1.03,0.86-1.89,1.89-1.89h10.39c1.03,0,1.89,0.86,1.89,1.89V141.55z"/>
	<path class="st0" d="M311.38,168.36v-16.25c0-1.19,0.96-2.16,2.16-2.16h5.58v-3.97h-5.58c-1.19,0-2.16-0.96-2.16-2.16v-10.05h-4.53
		v10.05c0,1.19-0.96,2.16-2.16,2.16h-6.36c-1.19,0-2.16-0.96-2.16-2.16v-10.05h-4.53v10.05c0,1.19-0.96,2.16-2.16,2.16h-6.52
		c-1.19,0-2.16-0.96-2.16-2.16v-9.53h-4.58v9.53c0,1.19-0.96,2.16-2.16,2.16h-5.68v3.97h5.68c1.19,0,2.16,0.96,2.16,2.16v28.77
		h41.42v-4.13h-34.69c-1.19,0-2.16-0.96-2.16-2.16v-22.48c0-1.19,0.96-2.16,2.16-2.16h6.52c1.19,0,2.16,0.96,2.16,2.16v16.25
		C291.66,168.36,311.38,168.36,311.38,168.36z M296.21,152.11c0-1.19,0.96-2.16,2.16-2.16h6.36c1.19,0,2.16,0.96,2.16,2.16v10.17
		c0,1.19-0.96,2.16-2.16,2.16h-6.36c-1.19,0-2.16-0.96-2.16-2.16V152.11z"/>
	<path class="st0" d="M367.57,158.81c-1.44-1.37-0.57-2.42,0.52-2.42h7.84v-21.06h-42.35v21.06h8.16c1.09,0,1.87,1.02,0.41,2.37
		c-3.67,2.9-7.48,4.54-13.31,6.2l2.07,3.94c1.75-0.61,6.57-2.23,11.42-5.34c0.07-0.05,0.05-0.04,0.02-0.02
		c0.73-0.5,1.67-0.05,1.71,0.62c0,0.16,0,0,0,0.16c-0.25,6.77-2.12,10.92-12.27,13.81l2.73,3.94c12.84-4.13,14.15-11.92,14.2-20.15
		v-3.6c0.62-0.69,1.07-1.3,1.53-1.92h9.19c0.53,0.64,1.12,1.34,1.85,2.12v3.26v0.16v19.94h4.63c0,0,0-13.34,0-16.89
		c0-0.04,0-0.05,0-0.07c0,0,0-0.02,0-0.04c0-1.46,1.3-1.3,1.67-1.03c0.05,0.04,0.09,0.05,0.09,0.07c0,0,0.02,0.02,0.11,0.07
		c4.38,2.85,8.62,4.2,10.85,4.88l2.17-3.94C375.52,163.51,370.99,161.43,367.57,158.81z M356.72,140.99c0-1.19,0.96-2.16,2.16-2.16
		h10.49c1.19,0,2.16,0.96,2.16,2.16v0.94c0,1.19-0.96,2.16-2.16,2.16h-10.49c-1.19,0-2.16-0.96-2.16-2.16V140.99z M352.57,150.72
		c0,1.19-0.96,2.16-2.16,2.16h-10.28c-1.19,0-2.16-0.96-2.16-2.16v-1.16c0-1.19,0.96-2.16,2.16-2.16h10.28
		c1.19,0,2.16,0.96,2.16,2.16V150.72z M352.57,141.94c0,1.19-0.96,2.16-2.16,2.16h-10.28c-1.19,0-2.16-0.96-2.16-2.16v-0.94
		c0-1.19,0.96-2.16,2.16-2.16h10.28c1.19,0,2.16,0.96,2.16,2.16V141.94z M358.88,152.88c-1.19,0-2.16-0.96-2.16-2.16v-1.16
		c0-1.19,0.96-2.16,2.16-2.16h10.49c1.19,0,2.16,0.96,2.16,2.16v1.16c0,1.19-0.96,2.16-2.16,2.16H358.88z"/>
</g>
<g>
	<path class="st0" d="M33.89,161.48c-2.94-5.81-5.52-14.38-5.49-22.04v-5.47h-4.88v6.2c0,3.9-0.61,11.01-4.35,19.54
		c-3.15,7.13-9.41,13.24-19.37,17.89l3.1,3.97c9.44-4.4,17.17-11.54,21.24-22.32c0.04-0.09,0.05-0.18,0.3-0.8
		c0.59-1.46,2.67-1.6,3.3,0.07c0.18,0.52,0.21,0.59,0.3,0.8c3.03,7.91,8.75,16.28,20.74,22.45l3.21-4.13
		C42.96,173.33,37.26,168.13,33.89,161.48z"/>
	<path class="st0" d="M114.74,177.71l3.42,2.8c4.53-4.76,6.15-10.76,6.84-13.2l-4.13-1.09C119.35,171.56,118,174.09,114.74,177.71z"
		/>
	<path class="st0" d="M462.14,160.95c1.83-0.69,2.87-1.16,3.96-1.69l-0.32-3.88c-1.21,0.53-2.03,0.87-3.58,1.46
		c-0.34,0.12-0.57,0.23-1,0.34c-0.61,0.16-1.57,0.02-1.57-0.98c0-0.21,0-0.46,0-1.21c0-1.55,0-3.9,0-5.61
		c0-1.19,0.96-2.16,2.16-2.16h3.99v-3.92h-3.99c-1.19,0-2.16-0.96-2.16-2.16v-7.25h-4.56v7.25c0,1.19-0.96,2.16-2.16,2.16h-5.86
		v3.94h5.86c1.19,0,2.16,0.96,2.16,2.16c0,2.12,0,5.29,0,7.16c0,0.62,0,0.73,0,0.98c0,1.39-1.21,2-1.67,2.14
		c-0.37,0.11-0.36,0.14-0.68,0.23c-2.49,0.69-4.03,1.07-6.2,1.46l0.93,4.29c1.82-0.48,3.17-0.82,5.38-1.51
		c0.3-0.09,0.45-0.14,0.78-0.25c0.45-0.14,1.48-0.16,1.48,1.26c0,0.21,0,0.39,0,0.89c0,3.01,0,10.4,0,10.4
		c0,1.14-0.27,1.19-1.64,1.19l-5.4-0.05l0.66,4.29h6.59c1.46,0,4.35-0.41,4.35-4.24c0,0,0-9.42,0-12.95c0-0.55,0-0.66,0-0.86
		c0-1.51,1.3-2.41,1.75-2.57C461.75,161.09,461.82,161.07,462.14,160.95z"/>
	<path class="st0" d="M517.04,159.61c-1.69-0.93-2.73-1.53-2.73-2.26c0-0.68,1.25-1.62,3.42-3.03c13.17-8.43,18.26-12.67,22.79-16.8
		l-4.97-2.65c-4.53,4.65-11.81,10.08-20.95,16.39c-3.87,2.64-5.72,3.97-5.72,6.47c0,2.37,2.07,3.56,7.07,6.41
		c9.69,5.54,17.25,9.87,24.82,16.09l4.31-3.38c-4.47-3.83-12.35-8.84-17.83-11.83C525.79,164.17,518.68,160.48,517.04,159.61z"/>
	<path class="st0" d="M561.71,164.74c-4.47,0-8.11,3.42-8.11,7.7c0,4.24,3.6,7.7,8.11,7.7c4.47,0,8.11-3.46,8.11-7.7
		C569.81,168.11,566.13,164.74,561.71,164.74z M561.71,177.51c-2.99,0-5.38-2.28-5.38-5.06c0-2.85,2.44-5.11,5.38-5.11
		c2.89,0,5.33,2.23,5.33,5.11C567.05,175.23,564.65,177.51,561.71,177.51z"/>
	<path class="st0" d="M91.08,158.88c0.34-0.12,0.68-0.23,1.02-0.36c4.63-1.62,8-2.6,11.76-3.62l-1.3-4.49
		c-3.51,1.14-8.34,2.94-11.24,4.03c-0.48,0.18-0.29,0.11-0.64,0.23c-0.52,0.2-1.67,0.27-2.26-1.07c-0.2-0.45-0.25-0.55-0.46-0.93
		c-1.59-2.71-4.36-3.4-7.27-3.4c-1.55,0-2.92,0.29-4.53,0.93c-0.41,0.18,0.37-0.18-0.41,0.18c-1.78,1-2.58-0.12-2.05-1.14
		c0.5-0.94,0.55-1.16,1.02-2.28c0.07-0.2,0.09-0.23,0.18-0.45c0.18-0.45,1.12-1.62,2.33-1.62c0.98,0,22.32,0,22.32,0v-4.15H79.57
		c0,0-2.78,0.07-2.19-1.83c0.5-1.64,0.57-2.32,0.84-3.76L73,134.94c-0.25,1.98-0.45,2.99-0.69,4.06c-0.3,1.3-1.89,1.73-2.64,1.73
		c-0.34,0-10.33,0-10.33,0v4.13c0,0,5.9,0,8.41,0c0.43,0,0.34,0,0.5,0c1.62,0,1.73,1.51,1.51,2.16c-0.07,0.23-0.09,0.21-0.18,0.43
		c-3.3,8.09-7.29,12.95-11.63,16.85l3.37,3.46c1.75-1.71,5.33-6.25,7.84-9.51c3.81-3.67,7.79-5.27,10.78-5.27
		c1.71,0,2.96,0.48,3.78,1.75c0.21,0.32,0.25,0.45,0.37,0.69c0.46,1.02-0.36,2-1.23,2.39c-0.41,0.2-0.5,0.23-0.94,0.43
		c-5.42,2.55-12.47,6.81-12.47,12.79c0,8.32,12.29,8.32,18.46,8.32c5.17,0,9.91-0.3,13.01-0.52l-0.16-4.45
		c-4.9,0.52-10.01,0.73-14.38,0.73c-5.99,0-12.03,0-12.03-4.54c0-3.51,4.49-6.36,8.41-8.3c0.36-0.18,0.48-0.23,0.82-0.39
		c0.46-0.21,1.57-0.2,1.64,1c0.04,0.61,0.02,0.87,0.02,1.39c0,1.85-0.16,3.78-0.27,4.97h4.74c0.16-1.66,0.16-3.21,0.16-3.94
		c0-1.28-0.05-2.74-0.11-4.12c-0.02-0.3-0.02-0.12-0.02-0.41C89.64,159.81,90.42,159.15,91.08,158.88z"/>
	<path class="st0" d="M145.27,177.41h-10.23c-2.51,0-2.83-0.41-2.83-2.28v-7.71h-4.4v10.46c0,3.46,3.1,3.46,4.13,3.46h15.41
		c4.53,0,5.33-3.31,6.15-8.94l-4.13-1.14C148.27,177.16,148.27,177.41,145.27,177.41z"/>
	<path class="st0" d="M133.78,165.61c3.76,2.23,6.86,4.92,8.98,7.18l3.05-3.05c-2.67-2.69-5.83-5.11-9.19-7.14L133.78,165.61z"/>
	<path class="st0" d="M154.13,168.16c3.1,3.46,5.77,6.98,8,11.88l3.76-2.58c-2.62-4.54-4.53-7.39-8.37-11.33L154.13,168.16z"/>
	<path class="st0" d="M210.78,139.82l-3.55,2.58c5.67,4.4,9.89,11.83,9.89,25.33c0,2.37-0.02,4.08-0.12,5.42l5.11-0.2
		C222.88,152.29,217.27,144.98,210.78,139.82z"/>
	<path class="st0" d="M189.03,173.04c-6.29,0-7-11.56-7-19.58c0-6.98,0.77-11.69,1.21-14.79l-4.97-0.39
		c-0.32,3.51-0.87,9.16-0.87,14.79c0,13.45,2.44,25.03,11.26,25.03c2.78,0,4.79-1.25,6.09-2.48c3.05-2.9,5.56-7.23,7.34-12.04
		l-3.88-2.08C194.44,170.76,191.47,173.04,189.03,173.04z"/>
	<path class="st0" d="M236.4,166.65l-4.13,2.89c1.8,1.82,5.17,5.17,9.03,10.71l4.79-3.21C243.79,174.09,239.93,169.76,236.4,166.65z
		"/>
	<path class="st0" d="M367.7,163.89C367.68,163.89,367.72,163.9,367.7,163.89L367.7,163.89z"/>
	<path class="st0" d="M342.37,163.55c0,0-0.02,0-0.02,0.02C342.24,163.62,342.31,163.56,342.37,163.55z"/>
	<path class="st0" d="M423.78,158.88c0.34-0.12,0.68-0.23,1.02-0.36c4.63-1.62,8-2.6,11.76-3.62l-1.3-4.49
		c-3.51,1.14-8.34,2.94-11.24,4.03c-0.48,0.18-0.29,0.11-0.64,0.23c-0.52,0.2-1.67,0.27-2.24-1.07c-0.2-0.45-0.25-0.55-0.46-0.93
		c-1.59-2.71-4.36-3.4-7.27-3.4c-1.55,0-2.92,0.29-4.53,0.93c-0.39,0.16,0.37-0.2-0.39,0.16c-1.78,1-2.58-0.12-2.05-1.14
		c0.5-0.94,0.55-1.16,1.02-2.28c0.07-0.2,0.09-0.23,0.18-0.45c0.18-0.45,1.12-1.62,2.33-1.62c0.98,0,22.32,0,22.32,0v-4.13h-19.99
		c0,0-2.78,0.07-2.19-1.83c0.5-1.64,0.57-2.32,0.84-3.76l-5.22-0.21c-0.25,1.98-0.45,2.99-0.69,4.06c-0.3,1.3-1.89,1.73-2.64,1.73
		c-0.34,0-10.33,0-10.33,0v4.13c0,0,5.9,0,8.41,0c0.43,0,0.34,0,0.5,0c1.62,0,1.73,1.51,1.51,2.16c-0.07,0.23-0.09,0.21-0.18,0.43
		c-3.3,8.09-7.29,12.95-11.63,16.85l3.37,3.46c1.75-1.71,5.33-6.25,7.84-9.51c3.81-3.67,7.79-5.27,10.78-5.27
		c1.71,0,2.96,0.48,3.78,1.75c0.21,0.32,0.25,0.45,0.37,0.69c0.46,1.02-0.36,2-1.23,2.39c-0.41,0.2-0.5,0.23-0.94,0.43
		c-5.42,2.55-12.47,6.81-12.47,12.79c0,8.32,12.29,8.32,18.46,8.32c5.17,0,9.91-0.3,13.01-0.52l-0.16-4.45
		c-4.9,0.52-10.01,0.73-14.38,0.73c-5.99,0-12.03,0-12.03-4.54c0-3.51,4.49-6.36,8.41-8.3c0.36-0.18,0.48-0.23,0.82-0.39
		c0.46-0.21,1.57-0.2,1.64,1c0.04,0.61,0.02,0.87,0.02,1.39c0,1.85-0.16,3.78-0.27,4.97h4.74c0.16-1.66,0.16-3.21,0.16-3.94
		c0-1.28-0.07-2.74-0.11-4.12c-0.02-0.3-0.02-0.3-0.02-0.59C422.36,159.79,423.12,159.15,423.78,158.88z"/>
	<path class="st0" d="M125.41,163.81h4.12c0,0,0-9.66,0-12.56c0-0.77,0.61-1.05,1.09-0.41c1.48,2.05,2.8,3.44,4.58,5.27l2.44-3.31
		c-3.88-2.81-6.57-6.15-7.66-7.61c-0.61-0.89,0.3-1.91,1.03-1.91c1.46,0,6.95,0,6.95,0v-3.72c0,0-5.9,0-6.82,0
		c-0.91,0-1.62-0.46-1.62-1.62c0-1.16,0-4.01,0-4.01h-4.12c0,0,0,3.3,0,4.01c0,0.73-0.45,1.62-1.62,1.62c-1.18,0-8.46,0-8.46,0v3.72
		c0,0,5.59,0,7.8,0c0.84,0,1.8,0.45,1.07,1.85c-2.14,3.38-5.24,7.5-9.64,10.97l2.23,3.67c3.12-3.05,5.33-5.68,7.32-8.85
		c0.37-0.66,1.16-0.84,1.28,0.29c0,0.04,0,0.09,0,0.12C125.41,154.59,125.41,163.81,125.41,163.81z"/>
	<path class="st0" d="M477.3,150.15c0.57-1.8,1.12-4.03,1.64-7.36c0.23-1.46,1.39-2.57,2.57-2.57c0.18,0-0.12,0,0.62,0
		c4.15,0,15.57,0,15.57,0v-3.97h-32.1v3.97c0,0,4.31,0,6.72,0c0.53,0,0.16,0,0.45,0c0.86,0,2.21,0.66,1.91,2.76
		c-1.12,7.66-4.13,16.27-13.25,23.46l3.1,3.46c2.07-1.78,3.4-3.12,4.61-4.54c0.27-0.3,0.25-0.3,0.52-0.62
		c0.34-0.41,1.02-0.36,1.02,0.71c0,0.14,0-0.02,0,0.53c0,3.71,0,14.88,0,14.88h24.82v-27.19c0,0-11.54,0-15.98,0
		c-0.93,0-0.91,0-1.03,0c-1.78,0.11-2.21-0.53-1.75-1.76C476.92,151.29,477.05,150.88,477.3,150.15z M476.85,157.51h12.29
		c1.19,0,2.16,0.96,2.16,2.16v15.07c0,1.19-0.96,2.16-2.16,2.16h-12.29c-1.19,0-2.16-0.96-2.16-2.16v-15.07
		C474.7,158.47,475.68,157.51,476.85,157.51z"/>
	<path class="st0" d="M140.7,135.47v27.67h22.43v-27.67H140.7z M158.97,157.74c0,1.03-0.86,1.89-1.89,1.89H146.7
		c-1.03,0-1.89-0.86-1.89-1.89v-1.35c0-1.03,0.86-1.89,1.89-1.89h10.39c1.03,0,1.89,0.86,1.89,1.89V157.74z M158.97,149.37
		c0,1.03-0.86,1.89-1.89,1.89H146.7c-1.03,0-1.89-0.86-1.89-1.89v-0.78c0-1.03,0.86-1.89,1.89-1.89h10.39
		c1.03,0,1.89,0.86,1.89,1.89V149.37z M158.97,141.55c0,1.03-0.86,1.89-1.89,1.89H146.7c-1.03,0-1.89-0.86-1.89-1.89v-0.62
		c0-1.03,0.86-1.89,1.89-1.89h10.39c1.03,0,1.89,0.86,1.89,1.89V141.55z"/>
	<path class="st0" d="M311.38,168.36v-16.25c0-1.19,0.96-2.16,2.16-2.16h5.58v-3.97h-5.58c-1.19,0-2.16-0.96-2.16-2.16v-10.05h-4.53
		v10.05c0,1.19-0.96,2.16-2.16,2.16h-6.36c-1.19,0-2.16-0.96-2.16-2.16v-10.05h-4.53v10.05c0,1.19-0.96,2.16-2.16,2.16h-6.52
		c-1.19,0-2.16-0.96-2.16-2.16v-9.53h-4.58v9.53c0,1.19-0.96,2.16-2.16,2.16h-5.68v3.97h5.68c1.19,0,2.16,0.96,2.16,2.16v28.77
		h41.42v-4.13h-34.69c-1.19,0-2.16-0.96-2.16-2.16v-22.48c0-1.19,0.96-2.16,2.16-2.16h6.52c1.19,0,2.16,0.96,2.16,2.16v16.25
		C291.66,168.36,311.38,168.36,311.38,168.36z M296.21,152.11c0-1.19,0.96-2.16,2.16-2.16h6.36c1.19,0,2.16,0.96,2.16,2.16v10.17
		c0,1.19-0.96,2.16-2.16,2.16h-6.36c-1.19,0-2.16-0.96-2.16-2.16V152.11z"/>
	<path class="st0" d="M367.57,158.81c-1.44-1.37-0.57-2.42,0.52-2.42h7.84v-21.06h-42.35v21.06h8.16c1.09,0,1.87,1.02,0.41,2.37
		c-3.67,2.9-7.48,4.54-13.31,6.2l2.07,3.94c1.75-0.61,6.57-2.23,11.42-5.34c0.07-0.05,0.05-0.04,0.02-0.02
		c0.73-0.5,1.67-0.05,1.71,0.62c0,0.16,0,0,0,0.16c-0.25,6.77-2.12,10.92-12.27,13.81l2.73,3.94c12.84-4.13,14.15-11.92,14.2-20.15
		v-3.6c0.62-0.69,1.07-1.3,1.53-1.92h9.19c0.53,0.64,1.12,1.34,1.85,2.12v3.26v0.16v19.94h4.63c0,0,0-13.34,0-16.89
		c0-0.04,0-0.05,0-0.07c0,0,0-0.02,0-0.04c0-1.46,1.3-1.3,1.67-1.03c0.05,0.04,0.09,0.05,0.09,0.07c0,0,0.02,0.02,0.11,0.07
		c4.38,2.85,8.62,4.2,10.85,4.88l2.17-3.94C375.52,163.51,370.99,161.43,367.57,158.81z M356.72,140.99c0-1.19,0.96-2.16,2.16-2.16
		h10.49c1.19,0,2.16,0.96,2.16,2.16v0.94c0,1.19-0.96,2.16-2.16,2.16h-10.49c-1.19,0-2.16-0.96-2.16-2.16V140.99z M352.57,150.72
		c0,1.19-0.96,2.16-2.16,2.16h-10.28c-1.19,0-2.16-0.96-2.16-2.16v-1.16c0-1.19,0.96-2.16,2.16-2.16h10.28
		c1.19,0,2.16,0.96,2.16,2.16V150.72z M352.57,141.94c0,1.19-0.96,2.16-2.16,2.16h-10.28c-1.19,0-2.16-0.96-2.16-2.16v-0.94
		c0-1.19,0.96-2.16,2.16-2.16h10.28c1.19,0,2.16,0.96,2.16,2.16V141.94z M358.88,152.88c-1.19,0-2.16-0.96-2.16-2.16v-1.16
		c0-1.19,0.96-2.16,2.16-2.16h10.49c1.19,0,2.16,0.96,2.16,2.16v1.16c0,1.19-0.96,2.16-2.16,2.16H358.88z"/>
</g>
<g>
	<g>
		
			<linearGradient id="SVGID_1_" gradientUnits="userSpaceOnUse" x1="-403.5438" y1="-616.5927" x2="-396.4124" y2="-569.6859" gradientTransform="matrix(1 0 0 1 807.2505 645.9741)">
			<stop  offset="0" style="stop-color:#ED86B3"/>
			<stop  offset="1" style="stop-color:#A57EB6"/>
		</linearGradient>
		<path class="st1" d="M414.91,76.77c-2.9-3.2-3.02-7.14-3.17-12.02c-0.1-3.55-0.23-7.56-1.56-11.8c-1.06-3.38-2.69-5.54-4.13-7.45
			c-1.51-1.99-2.7-3.57-2.7-5.96c0-2.06,0.85-3.75,2.02-6.09c0.72-1.44,1.55-3.08,2.37-5.18l-2.05-0.8c-0.79,2-1.59,3.59-2.28,4.99
			c-1.26,2.51-2.26,4.5-2.26,7.08c0,3.13,1.53,5.15,3.14,7.29c1.34,1.75,2.84,3.76,3.79,6.77c1.24,3.95,1.35,7.63,1.46,11.21
			c0.15,4.97,0.3,9.69,3.81,13.51L414.91,76.77z"/>
		
			<linearGradient id="SVGID_2_" gradientUnits="userSpaceOnUse" x1="896.0786" y1="-424.2307" x2="900.068" y2="-464.2621" gradientTransform="matrix(1 0 0 1 -467.741 503.9785)">
			<stop  offset="0" style="stop-color:#15A590"/>
			<stop  offset="1" style="stop-color:#00A23E"/>
		</linearGradient>
		<path class="st2" d="M422.96,80.26c-0.77,1.15-0.63,1.96-0.38,2.45c0.24,0.45,0.78,0.98,1.99,0.98h6.92
			c0.62,0,1.39-0.08,1.92-0.67c0.53-0.61,0.51-1.41,0.43-2.03c-1.08-8.56-0.65-14.61-0.23-20.47c0.22-3.07,0.45-6.25,0.45-9.71
			c0-7.67-1.72-11.01-3.71-14.87l-1.95,1.01c1.93,3.76,3.46,6.73,3.46,13.86c0,3.38-0.21,6.39-0.44,9.55
			c-0.43,5.96-0.87,12.13,0.24,20.9c0.04,0.33,0.02,0.44,0.02,0.45c0.02-0.1,0.14-0.23,0.23-0.26c-0.01,0-0.1,0.03-0.41,0.03h-6.92
			c-0.18,0-0.25-0.02-0.25-0.02c0.14,0.05,0.28,0.29,0.26,0.43c0,0,0.02-0.14,0.21-0.42c0.07-0.1,0.13-0.2,0.2-0.3L422.96,80.26z"/>
		
			<linearGradient id="SVGID_3_" gradientUnits="userSpaceOnUse" x1="864.4988" y1="-484.3899" x2="891.6432" y2="-484.3899" gradientTransform="matrix(1 0 0 1 -467.741 503.9785)">
			<stop  offset="0" style="stop-color:#E62320"/>
			<stop  offset="1" style="stop-color:#ED86B3"/>
		</linearGradient>
		<path class="st3" d="M396.76,28.72c0.38,0.67,0.86,1.32,1.46,1.9c1.81,1.81,4.28,2.84,6.78,2.84c8.78,0,11.17-8.75,13.1-15.78
			c1.44-5.25,2.68-9.77,5.81-9.77v-2.2c-4.81,0-6.33,5.53-7.93,11.39c-1.91,6.97-3.88,14.16-10.97,14.16c-1.93,0-3.83-0.8-5.22-2.19
			c-0.43-0.44-0.8-0.9-1.07-1.39L396.76,28.72z"/>
		<path class="st4" d="M402.67,21.73c-0.72-0.72-1.64-1.1-2.67-1.1c-2.4,0-4.15,1.99-4.15,4.71c0,1.16,0.32,2.31,0.92,3.39
			l1.94-1.04c-0.43-0.75-0.66-1.55-0.66-2.35c0-0.83,0.25-1.55,0.71-2c0.33-0.34,0.75-0.51,1.24-0.51c0.44,0,0.81,0.15,1.12,0.46
			L402.67,21.73z"/>
		
			<linearGradient id="SVGID_4_" gradientUnits="userSpaceOnUse" x1="-411.1082" y1="-612.4107" x2="-404.8117" y2="-620.4081" gradientTransform="matrix(1 0 0 1 807.2505 645.9741)">
			<stop  offset="0" style="stop-color:#EF8200"/>
			<stop  offset="1" style="stop-color:#E62320"/>
		</linearGradient>
		<path class="st5" d="M394.12,34.14c2.68,0,5.2-1.06,7.12-2.97c1.73-1.73,2.72-3.96,2.72-6.13c0-1.28-0.47-2.48-1.29-3.31
			l-1.56,1.56c0.4,0.41,0.65,1.06,0.65,1.75c0,3.26-3.26,6.9-7.64,6.9V34.14z"/>
		
			<linearGradient id="SVGID_5_" gradientUnits="userSpaceOnUse" x1="887.1282" y1="-497.4241" x2="896.8964" y2="-469.4956" gradientTransform="matrix(1 0 0 1 -467.741 503.9785)">
			<stop  offset="0" style="stop-color:#FCD006"/>
			<stop  offset="1" style="stop-color:#00A23E"/>
		</linearGradient>
		<path class="st6" d="M430.35,35.94c-1.31-2.55-2.8-5.44-4-10.15c-0.66-2.57-1.17-5.2-1.68-7.75c-1.57-7.94-2.8-14.21-7.24-14.21
			v2.2c2.63,0,3.82,6.04,5.08,12.45c0.51,2.57,1.03,5.24,1.7,7.87c1.26,4.95,2.81,7.96,4.18,10.6L430.35,35.94z"/>
		
			<linearGradient id="SVGID_6_" gradientUnits="userSpaceOnUse" x1="895.8116" y1="-458.1352" x2="892.0978" y2="-445.3434" gradientTransform="matrix(1 0 0 1 -467.741 503.9785)">
			<stop  offset="0" style="stop-color:#B983B7"/>
			<stop  offset="1" style="stop-color:#5E66AD"/>
		</linearGradient>
		<path class="st7" d="M429.84,43.62c-3.41,2.46-6.94,5-6.94,12.9c0,1.4,0.13,2.88,0.32,4.44l2.22-0.01
			c-0.2-1.58-0.34-3.06-0.34-4.44c0-6.77,2.66-8.69,6.02-11.13L429.84,43.62z"/>
		
			<linearGradient id="SVGID_7_" gradientUnits="userSpaceOnUse" x1="906.2399" y1="-477.0828" x2="900.326" y2="-460.1664" gradientTransform="matrix(1 0 0 1 -467.741 503.9785)">
			<stop  offset="0" style="stop-color:#E62320"/>
			<stop  offset="0.5" style="stop-color:#ED86B3"/>
			<stop  offset="1" style="stop-color:#B983B7"/>
		</linearGradient>
		<path class="st8" d="M436.3,24.99c-0.87,2.26-0.75,4.58-0.62,6.83c0.17,3.17,0.33,6.15-2.28,8.87c-1.11,1.15-2.36,2.05-3.56,2.93
			l1.29,1.78c1.29-0.92,2.61-1.88,3.86-3.17c3.27-3.41,3.07-7.18,2.89-10.51c-0.11-2.11-0.22-4.1,0.48-5.92L436.3,24.99z"/>
		<path class="st4" d="M444.28,23.93c-0.62-1.41-1.93-2.26-3.5-2.26c-2.01,0-3.69,1.24-4.48,3.33l2.05,0.79
			c0.28-0.72,0.95-1.91,2.43-1.91c0.93,0,1.33,0.59,1.48,0.94L444.28,23.93z"/>
		
			<linearGradient id="SVGID_8_" gradientUnits="userSpaceOnUse" x1="907.6636" y1="-473.6782" x2="910.8271" y2="-477.5294" gradientTransform="matrix(1 0 0 1 -467.741 503.9785)">
			<stop  offset="0" style="stop-color:#EF8200"/>
			<stop  offset="1" style="stop-color:#E62320"/>
		</linearGradient>
		<path class="st9" d="M438.41,31.63c1.47-0.15,3.37-0.9,4.71-2.35c1.47-1.59,1.91-3.64,1.16-5.35l-2.02,0.88
			c0.29,0.67,0.27,1.86-0.76,2.97c-0.9,0.97-2.23,1.53-3.25,1.65L438.41,31.63z"/>
		
			<linearGradient id="SVGID_9_" gradientUnits="userSpaceOnUse" x1="900.0845" y1="-478.4884" x2="904.0755" y2="-473.8092" gradientTransform="matrix(1 0 0 1 -467.741 503.9785)">
			<stop  offset="0" style="stop-color:#FBC70D"/>
			<stop  offset="1" style="stop-color:#EF8200"/>
		</linearGradient>
		<path class="st10" d="M430.75,24.37c1.17,4.03,3.07,7.29,7.1,7.29c0.17,0,0.36-0.01,0.56-0.03l-0.15-2.2
			c-0.14,0.02-0.28,0.03-0.41,0.03c-2.63,0-3.99-2.17-5-5.77L430.75,24.37z"/>
		
			<linearGradient id="SVGID_10_" gradientUnits="userSpaceOnUse" x1="899.6" y1="-481.2765" x2="894.2343" y2="-495.5851" gradientTransform="matrix(1 0 0 1 -467.741 503.9785)">
			<stop  offset="0" style="stop-color:#FBC70D"/>
			<stop  offset="1" style="stop-color:#ED86B3"/>
		</linearGradient>
		<path class="st11" d="M430.43,12.73c-1.09-3.93-2.81-7.02-6.53-7.02v2.2c2.22,0,3.41,1.94,4.33,5.21
			c0.44,1.53,0.82,3.36,1.21,5.42c0.38,1.94,0.76,3.97,1.31,5.83l2.1-0.68c-0.45-1.6-0.84-3.47-1.24-5.56
			C431.26,16.29,430.9,14.43,430.43,12.73z"/>
		
			<linearGradient id="SVGID_11_" gradientUnits="userSpaceOnUse" x1="892.8419" y1="-441.4976" x2="892.5667" y2="-424.0249" gradientTransform="matrix(1 0 0 1 -467.741 503.9785)">
			<stop  offset="0" style="stop-color:#5E66AD"/>
			<stop  offset="1" style="stop-color:#15A590"/>
		</linearGradient>
		<path class="st12" d="M423.22,60.96c0.15,1.17,0.32,2.38,0.51,3.6c0.87,5.86,1.77,11.91-0.76,15.69l2.03,0.91
			c2.76-4.47,1.82-10.8,0.91-16.93c-0.17-1.12-0.33-2.23-0.47-3.29L423.22,60.96z"/>
		
			<linearGradient id="SVGID_12_" gradientUnits="userSpaceOnUse" x1="915.0719" y1="-449.105" x2="910.1183" y2="-465.4794" gradientTransform="matrix(1 0 0 1 -467.741 503.9785)">
			<stop  offset="0" style="stop-color:#15A590"/>
			<stop  offset="1" style="stop-color:#00A23E"/>
		</linearGradient>
		<path class="st13" d="M447.73,56.54c0.25-1.23,0.5-2.51,0.5-4.01c0-3.62-1.41-5.68-2.78-7.67c-1.29-1.89-2.52-3.68-2.52-6.92
			h-2.19c0,3.92,1.54,6.18,2.9,8.17c1.28,1.88,2.4,3.49,2.4,6.43c0,1.29-0.23,2.4-0.46,3.58L447.73,56.54z"/>
		
			<linearGradient id="SVGID_13_" gradientUnits="userSpaceOnUse" x1="943.6022" y1="-465.3209" x2="934.3846" y2="-422.9472" gradientTransform="matrix(1 0 0 1 -467.741 503.9785)">
			<stop  offset="0" style="stop-color:#ED86B3"/>
			<stop  offset="1" style="stop-color:#A57EB6"/>
		</linearGradient>
		<path class="st14" d="M462.61,83.36c1.03,0.21,2.14,0.34,3.38,0.43c1.65,0.11,2.67,0.04,3.35-0.61c0.67-0.64,0.7-1.52,0.68-2.3
			c-0.32-13.59,1.7-19.71,3.48-25.1c1.26-3.79,2.44-7.37,2.44-12.8c0-2.32-0.3-4.46-0.89-6.37l-2.13,0.58
			c0.53,1.72,0.81,3.67,0.81,5.79c0,5.08-1.08,8.33-2.33,12.11c-1.84,5.56-3.92,11.87-3.59,25.84c0.01,0.53-0.03,0.68-0.05,0.71
			c0.02-0.03,0.06-0.08,0.09-0.1c-0.08,0.04-0.41,0.13-1.73,0.04c-1.05-0.07-2-0.19-2.85-0.35L462.61,83.36z"/>
		
			<linearGradient id="SVGID_14_" gradientUnits="userSpaceOnUse" x1="919.8238" y1="-428.8838" x2="913.9071" y2="-445.1203" gradientTransform="matrix(1 0 0 1 -467.741 503.9785)">
			<stop  offset="0" style="stop-color:#5E66AD"/>
			<stop  offset="1" style="stop-color:#15A590"/>
		</linearGradient>
		<path class="st15" d="M454.71,74.65c-0.89-1.55-1.32-1.95-2.43-2.89c-3.09-2.57-5-7.05-5-11.66c0-1.28,0.22-2.38,0.45-3.56
			l-2.16-0.43c-0.24,1.23-0.49,2.49-0.49,3.99c0,5.33,2.16,10.32,5.78,13.36c0.94,0.78,1.19,0.99,1.93,2.29L454.71,74.65z"/>
		
			<linearGradient id="SVGID_15_" gradientUnits="userSpaceOnUse" x1="921.259" y1="-476.616" x2="909.8378" y2="-468.4973" gradientTransform="matrix(1 0 0 1 -467.741 503.9785)">
			<stop  offset="0" style="stop-color:#FCD006"/>
			<stop  offset="1" style="stop-color:#00A23E"/>
		</linearGradient>
		<path class="st16" d="M442.92,37.94c0-1.37,0.3-2.49,0.94-3.52c1.81-2.94,6.7-4.69,11.72-5.39l-0.46-2.16
			c-5.6,0.81-10.97,2.88-13.14,6.4c-0.84,1.38-1.26,2.91-1.26,4.68H442.92z"/>
		
			<linearGradient id="SVGID_16_" gradientUnits="userSpaceOnUse" x1="928.7781" y1="-430.1488" x2="930.567" y2="-451.2033" gradientTransform="matrix(1 0 0 1 -467.741 503.9785)">
			<stop  offset="0" style="stop-color:#5E66AD"/>
			<stop  offset="1" style="stop-color:#15A590"/>
		</linearGradient>
		<path class="st17" d="M462.73,51.64c-3.12,6.03-2.66,12.5-2.3,17.71c0.14,2.03,0.28,3.93,0.18,5.52l2.16,0.61
			c0.17-1.87,0.02-4-0.14-6.28c-0.36-5.19-0.78-11.07,2.05-16.54L462.73,51.64z"/>
		
			<linearGradient id="SVGID_17_" gradientUnits="userSpaceOnUse" x1="931.8573" y1="-453.1654" x2="942.5845" y2="-459.4917" gradientTransform="matrix(1 0 0 1 -467.741 503.9785)">
			<stop  offset="0" style="stop-color:#15A590"/>
			<stop  offset="1" style="stop-color:#00A23E"/>
		</linearGradient>
		<path class="st18" d="M476.54,43.75c-6,0-11.28,3.02-13.81,7.89l1.95,1.02c2.15-4.15,6.69-6.71,11.85-6.71V43.75z"/>
		<path class="st19" d="M485.26,45.99c-1.95-1.35-4.74-2.24-8.72-2.24v2.19c3.15,0,5.63,0.62,7.41,1.84L485.26,45.99z"/>
		
			<linearGradient id="SVGID_18_" gradientUnits="userSpaceOnUse" x1="956.7314" y1="-423.2648" x2="960.5814" y2="-440.1772" gradientTransform="matrix(1 0 0 1 -467.741 503.9785)">
			<stop  offset="0" style="stop-color:#5E66AD"/>
			<stop  offset="1" style="stop-color:#15A590"/>
		</linearGradient>
		<path class="st20" d="M482.5,81.32c0.52,1.86,0.97,2.36,3.14,2.36h7.36c1.3,0,1.75-0.71,1.88-1.02c0.13-0.3,0.35-1.11-0.51-2.02
			c-4.81-5.19-4.74-12.88-4.68-19.67l-2.21-0.02c-0.07,7.21-0.14,15.36,5.27,21.18c0.06,0.07,0.08,0.1,0.08,0.1
			c-0.03-0.06-0.07-0.24,0.02-0.45c0.08-0.21,0.24-0.31,0.3-0.32c0,0-0.05,0.01-0.16,0.01h-7.36c-0.49,0-0.79-0.02-0.88-0.05
			c0.04,0.01,0.1,0.07,0.13,0.1c-0.07-0.1-0.18-0.5-0.27-0.79L482.5,81.32z"/>
		
			<linearGradient id="SVGID_19_" gradientUnits="userSpaceOnUse" x1="949.2695" y1="-463.9712" x2="948.7191" y2="-424.4791" gradientTransform="matrix(1 0 0 1 -467.741 503.9785)">
			<stop  offset="0" style="stop-color:#A57EB6"/>
			<stop  offset="1" style="stop-color:#5E66AD"/>
		</linearGradient>
		<path class="st21" d="M484.11,38.31c-3.42,3.6-6.94,7.32-6.94,15.71c0,8.32,2.95,18.84,5.33,27.3l2.12-0.59
			c-2.34-8.33-5.25-18.7-5.25-26.71c0-7.51,2.94-10.61,6.34-14.2L484.11,38.31z"/>
		
			<linearGradient id="SVGID_20_" gradientUnits="userSpaceOnUse" x1="948.3003" y1="-475.3497" x2="951.8765" y2="-492.543" gradientTransform="matrix(1 0 0 1 -467.741 503.9785)">
			<stop  offset="0" style="stop-color:#E62320"/>
			<stop  offset="1" style="stop-color:#ED86B3"/>
		</linearGradient>
		<path class="st22" d="M475.48,30.21c1.06,1.06,2.34,1.61,3.72,1.61c1.62,0,3.12-0.64,4.33-1.84c1.88-1.88,2.92-4.98,2.92-8.73
			c0-5.03-1.51-10.48-3.85-13.88l-1.54,1.66c1.94,3.09,3.18,7.81,3.18,12.22c0,4.93-2.07,8.37-5.04,8.37
			c-0.79,0-1.52-0.32-2.16-0.96L475.48,30.21z"/>
		<path class="st4" d="M477.04,28.66c-1-0.99-1.64-2.64-1.64-4.19c0-0.97,0.31-1.82,0.83-2.36c0.39-0.38,0.87-0.58,1.44-0.58v-2.2
			c-2.59,0-4.47,2.16-4.47,5.14c0,2.14,0.87,4.34,2.28,5.75L477.04,28.66z"/>
		<path class="st23" d="M482.61,7.36c-0.56-0.8-0.58-1.15-0.39-1.87c0.27-1.02,0.21-1.74-0.21-2.57c-0.12-0.24-0.11-0.45,0.03-0.57
			c0.16-0.13,0.43-0.09,0.72,0.12c1.34,0.96,2.69,2.37,3.9,4.11l1.93-1.04c-1.4-2.06-2.98-3.72-4.56-4.86
			c-1.13-0.81-2.48-0.81-3.43,0c-0.92,0.78-1.15,2.08-0.57,3.23c0.15,0.3,0.19,0.46,0.04,1.02c-0.37,1.4-0.18,2.4,0.71,3.68
			c0.09,0.14,0.18,0.28,0.27,0.42L482.61,7.36z"/>
		
			<linearGradient id="SVGID_21_" gradientUnits="userSpaceOnUse" x1="958.4539" y1="-496.2986" x2="955.702" y2="-466.7146" gradientTransform="matrix(1 0 0 1 -467.741 503.9785)">
			<stop  offset="0" style="stop-color:#ED86B3"/>
			<stop  offset="1" style="stop-color:#A57EB6"/>
		</linearGradient>
		<path class="st24" d="M486.66,6.57c2.6,3.73,4.58,8.98,4.58,14.66c0,9.54-3.46,13.2-7.14,17.07l1.6,1.51
			c3.64-3.83,7.75-8.17,7.75-18.59c0-6.02-2.08-11.63-4.86-15.71L486.66,6.57z"/>
		
			<linearGradient id="SVGID_22_" gradientUnits="userSpaceOnUse" x1="956.9854" y1="-444.4847" x2="953.4072" y2="-456.4578" gradientTransform="matrix(1 0 0 1 -467.741 503.9785)">
			<stop  offset="0" style="stop-color:#15A590"/>
			<stop  offset="1" style="stop-color:#00A23E"/>
		</linearGradient>
		<path class="st25" d="M489.68,60.98c0.03-2.92,0.05-5.68-0.32-8.04c-0.38-2.41-1.46-5.1-4.11-6.95l-1.31,1.8
			c1.78,1.22,2.86,3.06,3.24,5.49c0.34,2.18,0.32,4.85,0.29,7.67L489.68,60.98z"/>
		<path class="st26" d="M460.61,74.87c-0.1,1.59-0.43,2.9-1.22,3.73c-0.87,0.94-2.37,1.4-4.58,1.4v2.2c2.85,0,4.88-0.69,6.19-2.08
			c1.12-1.2,1.61-2.78,1.78-4.64L460.61,74.87z"/>
		
			<linearGradient id="SVGID_23_" gradientUnits="userSpaceOnUse" x1="920.678" y1="-422.5181" x2="908.1567" y2="-433.5258" gradientTransform="matrix(1 0 0 1 -467.741 503.9785)">
			<stop  offset="0" style="stop-color:#5E66AD"/>
			<stop  offset="1" style="stop-color:#15A590"/>
		</linearGradient>
		<path class="st27" d="M454.8,80c-4.87,0-10.09-4.48-13.33-11.58l-1.88,1.28c3.66,7.77,9.63,12.49,15.2,12.5V80z"/>
		
			<linearGradient id="SVGID_24_" gradientUnits="userSpaceOnUse" x1="907.4841" y1="-436.2972" x2="905.0081" y2="-448.6774" gradientTransform="matrix(1 0 0 1 -467.741 503.9785)">
			<stop  offset="0" style="stop-color:#15A590"/>
			<stop  offset="1" style="stop-color:#00A23E"/>
		</linearGradient>
		<path class="st28" d="M441.48,68.42c-1.94-4.27-3.17-9.48-3.17-15.22h-2.2c0,6.32,1.35,11.94,3.49,16.51L441.48,68.42z"/>
		
			<linearGradient id="SVGID_25_" gradientUnits="userSpaceOnUse" x1="913.1624" y1="-466.9926" x2="904.6307" y2="-453.0943" gradientTransform="matrix(1 0 0 1 -467.741 503.9785)">
			<stop  offset="0" style="stop-color:#FCD006"/>
			<stop  offset="1" style="stop-color:#00A23E"/>
		</linearGradient>
		<path class="st29" d="M438.31,53.2c0-7.22,3.37-12.62,9.74-15.59l-0.93-2c-7.1,3.32-11.01,9.56-11.01,17.59H438.31z"/>
		
			<linearGradient id="SVGID_26_" gradientUnits="userSpaceOnUse" x1="916.7355" y1="-467.8722" x2="940.1202" y2="-472.1365" gradientTransform="matrix(1 0 0 1 -467.741 503.9785)">
			<stop  offset="0" style="stop-color:#FCD000"/>
			<stop  offset="1" style="stop-color:#EF8200"/>
		</linearGradient>
		<path class="st30" d="M460.52,35.11c4.79-0.46,9.67-0.93,13.79-2.8l-0.72-2.11c-3.86,1.81-8.62,2.27-13.27,2.72
			c-4.61,0.44-9.38,0.91-13.2,2.69l0.93,2C451.52,35.98,455.9,35.55,460.52,35.11z"/>
		
			<linearGradient id="SVGID_27_" gradientUnits="userSpaceOnUse" x1="943.6068" y1="-473.2018" x2="946.631" y2="-480.0343" gradientTransform="matrix(1 0 0 1 -467.741 503.9785)">
			<stop  offset="0" style="stop-color:#EF8200"/>
			<stop  offset="1" style="stop-color:#E62320"/>
		</linearGradient>
		<path class="st31" d="M479.96,28.08c1.73-2.07,2.25-4.55,1.36-6.46c-0.67-1.44-2.03-2.29-3.65-2.29v2.2
			c0.76,0,1.36,0.37,1.66,1.03c0.41,0.88,0.36,2.43-1.04,4.11c-1.3,1.56-2.9,2.69-4.69,3.53l0.72,2.11
			C476.45,31.35,478.37,30,479.96,28.08z"/>
		
			<linearGradient id="SVGID_28_" gradientUnits="userSpaceOnUse" x1="925.1013" y1="-477.6534" x2="940.9188" y2="-469.8134" gradientTransform="matrix(1 0 0 1 -467.741 503.9785)">
			<stop  offset="0" style="stop-color:#FCD006"/>
			<stop  offset="1" style="stop-color:#ED86B3"/>
		</linearGradient>
		<path class="st32" d="M455.59,29.03c1.72-0.24,3.45-0.36,5.09-0.36c3.89,0,7.01,1.14,9.25,3.39c1.36,1.35,2.36,3.09,3,5.14
			l2.13-0.58c-0.74-2.43-1.94-4.49-3.57-6.12c-2.64-2.64-6.37-4.03-10.81-4.03c-1.81,0-3.69,0.13-5.55,0.4L455.59,29.03z"/>
		
			<linearGradient id="SVGID_29_" gradientUnits="userSpaceOnUse" x1="929.5513" y1="-421.5616" x2="922.5316" y2="-427.2049" gradientTransform="matrix(1 0 0 1 -467.741 503.9785)">
			<stop  offset="0" style="stop-color:#A57EB6"/>
			<stop  offset="1" style="stop-color:#5E66AD"/>
		</linearGradient>
		<path class="st33" d="M463.28,81.24c-4.49-0.86-6.53-3.01-8.58-6.59l-1.92,1.1c2.56,4.47,5.32,6.69,9.82,7.61L463.28,81.24z"/>
		
			<linearGradient id="SVGID_30_" gradientUnits="userSpaceOnUse" x1="-419.086" y1="-640.0515" x2="-416.6097" y2="-615.0139" gradientTransform="matrix(1 0 0 1 807.2505 645.9741)">
			<stop  offset="0" style="stop-color:#F9BE00"/>
			<stop  offset="1" style="stop-color:#EF8200"/>
		</linearGradient>
		<path class="st34" d="M389.87,4.32c0.08,3.56-0.85,5.99-1.84,8.54c-1.06,2.76-2.17,5.62-2.17,10.01c0,3.85,1.12,7.09,3.14,9.12
			c1.41,1.4,3.18,2.14,5.12,2.14v-2.2c-1.37,0-2.56-0.5-3.56-1.5c-1.61-1.61-2.5-4.29-2.5-7.56c0-3.98,1.03-6.64,2.03-9.22
			c1.02-2.65,2.07-5.38,1.99-9.37L389.87,4.32z"/>
		
			<linearGradient id="SVGID_31_" gradientUnits="userSpaceOnUse" x1="-419.6024" y1="-597.261" x2="-419.4648" y2="-567.538" gradientTransform="matrix(1 0 0 1 807.2505 645.9741)">
			<stop  offset="0" style="stop-color:#15A590"/>
			<stop  offset="1" style="stop-color:#00A23E"/>
		</linearGradient>
		<path class="st35" d="M387.59,47.19c-1.45,1.57-2.32,3.9-2.32,6.62c0,2.6,0.61,5.65,1.25,8.89c1.15,5.8,2.45,12.35,0.2,16.97
			l2.02,0.89c2.51-5.28,1.15-12.17-0.07-18.3c-0.62-3.12-1.2-6.08-1.2-8.46c0-2.18,0.67-4.04,1.89-5.27L387.59,47.19z"/>
		
			<linearGradient id="SVGID_32_" gradientUnits="userSpaceOnUse" x1="-403.4772" y1="-583.8624" x2="-414.4847" y2="-598.7226" gradientTransform="matrix(1 0 0 1 807.2505 645.9741)">
			<stop  offset="0" style="stop-color:#5E66AD"/>
			<stop  offset="1" style="stop-color:#15A590"/>
		</linearGradient>
		<path class="st36" d="M403.67,64.96c-1.87-10.27-3.64-19.97-11.09-19.97c-1.98,0-3.71,0.8-4.99,2.2l1.78,1.35
			c0.89-0.88,2.01-1.36,3.22-1.36c5.62,0,7.22,8.82,8.92,18.17L403.67,64.96z"/>
		
			<linearGradient id="SVGID_33_" gradientUnits="userSpaceOnUse" x1="-412.6244" y1="-640.2257" x2="-415.7793" y2="-566.9772" gradientTransform="matrix(1 0 0 1 807.2505 645.9741)">
			<stop  offset="0" style="stop-color:#F9BE00"/>
			<stop  offset="1" style="stop-color:#00A23E"/>
		</linearGradient>
		<path class="st37" d="M386.73,79.68c-0.09,0.19-0.19,0.38-0.29,0.56c-0.22,0.38-0.88,1.53-0.3,2.54c0.24,0.41,0.76,0.91,1.92,0.91
			h6.08c0.59,0,1.34-0.08,1.87-0.63c0.55-0.58,0.59-1.39,0.55-2.09c-0.22-4.3,0.15-7.75,0.51-11.08c0.36-3.29,0.69-6.39,0.41-9.93
			c-0.37-4.61-2.03-8.47-3.64-12.2c-1.66-3.87-3.23-7.53-3.23-11.72c0-4.77,1.92-9.21,3.78-13.5c1.82-4.21,3.7-8.55,3.7-13.13
			c0-2.68-0.68-5.09-1.88-6.62c-0.48-0.6-0.89-0.9-1.22-1.15c-0.12-0.09-0.24-0.18-0.35-0.27c-0.14-0.12-0.24-0.23-0.36-0.37
			c-0.07-0.08-0.14-0.16-0.22-0.24c-0.76-0.81-1.9-1.04-2.89-0.58c-0.97,0.45-1.52,1.45-1.41,2.55c0.06,0.56,0.09,1.09,0.1,1.6
			l2.2-0.03c-0.02-0.57-0.05-1.17-0.12-1.79c-0.02-0.17,0.03-0.27,0.15-0.32c0.07-0.03,0.21-0.07,0.37,0.1
			c0.05,0.06,0.11,0.12,0.17,0.18c0.14,0.16,0.32,0.37,0.58,0.58c0.17,0.15,0.33,0.26,0.47,0.37c0.28,0.21,0.5,0.37,0.79,0.74
			c0.89,1.12,1.41,3.09,1.41,5.25c0,4.13-1.71,8.08-3.51,12.26c-1.95,4.5-3.96,9.15-3.96,14.38c0,4.64,1.74,8.68,3.42,12.57
			c1.53,3.58,3.12,7.27,3.46,11.52c0.27,3.34-0.06,6.33-0.41,9.51c-0.37,3.42-0.75,6.96-0.52,11.43c0.02,0.43-0.02,0.56-0.02,0.57
			c0.03-0.07,0.12-0.16,0.18-0.19c0,0-0.09,0.03-0.39,0.03h-6.08c-0.18,0-0.24-0.02-0.24-0.02c0.14,0.05,0.3,0.28,0.29,0.43
			c0-0.01,0.01-0.17,0.24-0.56c0.14-0.25,0.28-0.5,0.4-0.76L386.73,79.68z"/>
		
			<linearGradient id="SVGID_34_" gradientUnits="userSpaceOnUse" x1="-391.4475" y1="-641.1272" x2="-401.0902" y2="-619.9334" gradientTransform="matrix(1 0 0 1 807.2505 645.9741)">
			<stop  offset="0" style="stop-color:#FCD006"/>
			<stop  offset="1" style="stop-color:#ED86B3"/>
		</linearGradient>
		<path class="st38" d="M407.74,28.27c1.53-3.91,2.54-7.76,3.42-11.15c1.84-7.08,3.04-11.09,6.27-11.09v-2.2
			c-5.09,0-6.55,5.62-8.41,12.74c-0.86,3.33-1.85,7.12-3.33,10.91L407.74,28.27z"/>
		
			<linearGradient id="SVGID_35_" gradientUnits="userSpaceOnUse" x1="-396.8912" y1="-566.8729" x2="-406.4107" y2="-577.384" gradientTransform="matrix(1 0 0 1 807.2505 645.9741)">
			<stop  offset="0" style="stop-color:#A57EB6"/>
			<stop  offset="1" style="stop-color:#5E66AD"/>
		</linearGradient>
		<path class="st39" d="M401.5,65.36c1.02,5.6,2.07,11.38,4.1,15.72c0.64,1.37,1.4,1.75,3.02,1.5c2.72-0.42,5.27-1.17,6.56-1.56
			c0.86-0.27,1.36-0.75,1.5-1.4c0.14-0.66-0.15-1.31-0.86-1.95c-0.33-0.29-0.63-0.59-0.91-0.9l-1.56,1.56
			c0.3,0.33,0.64,0.67,1.01,0.99c0.16,0.14,0.2,0.21,0.2,0.21c-0.11-0.19-0.02-0.58,0.16-0.7c0,0-0.05,0.04-0.2,0.09
			c-1.22,0.39-3.65,1.1-6.22,1.51c-0.45,0.06-0.58,0.05-0.6,0.04c0.03,0.01,0.07,0.04,0.1,0.06c-0.02-0.02-0.07-0.09-0.2-0.37
			c-1.91-4.08-2.93-9.72-3.92-15.19L401.5,65.36z"/>
	</g>
	<g>
		<polygon class="st40" points="104.41,38.05 104.41,55.33 85.47,55.33 85.47,38.02 73.48,38.02 73.48,83.63 85.47,83.63 
			85.47,65.84 104.41,65.84 104.41,83.63 116.41,83.63 116.41,38.05 		"/>
		<path class="st40" d="M306.16,83.67c-0.46-4.02-0.8-8.67-0.8-13.45V39.5c-4.19-1.81-9.3-2.77-14.83-2.77
			c-17.27,0-27.6,10.34-27.6,26.48c0,13.4,6.88,21.44,18.23,21.44c5.25,0,9.98-2.26,13.04-5.97c0.21,1.76,0.5,3.67,0.75,4.99H306.16
			z M293.84,55.65c0,2.79-0.03,5.16-0.59,7.8c-1.31,6.12-5.31,10.32-10.4,10.32c-4.91,0-7.7-3.98-7.7-10.47
			c0-9.93,5.34-16.02,13.39-16.02c2.18,0,3.81,0.26,5.3,0.8V55.65z"/>
		<path class="st40" d="M331.94,83.67V64.63c0-4.63,0.39-7.43,1.31-9.9c1.67-4.5,4.81-7.15,8.38-7.15c2.51,0,4.32,1,5.42,3.09
			c1.05,2.03,1.22,4.19,1.22,8.05v24.96h12.32v-26.1c0-6.01-0.4-9.18-1.96-12.45c-2.51-5.23-7.28-8.38-13.53-8.38
			c-5.27,0-10.06,2.13-14.15,6.39c-0.18-1.72-0.52-3.67-0.9-5.09H318.4c1.09,4.88,1.63,9.77,1.63,16.31v29.33H331.94z"/>
		<path class="st40" d="M250.66,44.76c-2.46-5.01-7.15-8.03-13.78-8.03c-5.36,0-10.11,2.2-14.17,6.6c-2.43-4.25-7.09-6.6-12.55-6.6
			c-5.28,0-10.05,2.25-13.83,6.24c-0.18-1.69-0.48-3.69-0.81-4.94h-11.46c1.09,4.88,1.64,9.77,1.64,16.31v29.33h11.91V63.89
			c0-4.43,0.37-7.12,1.25-9.47c1.6-4.31,4.6-6.85,8.03-6.85c2.41,0,4.14,0.95,5.19,2.95c1.01,1.94,1.16,4.01,1.16,7.7v25.44h11.91
			V63.89c0-4.43,0.37-7.12,1.24-9.47c1.59-4.31,4.57-6.85,7.96-6.85c2.4,0,4.12,0.95,5.16,2.95c1,1.94,1.15,4.01,1.15,7.7v25.44
			h11.91V56.68C252.58,50.92,252.19,47.88,250.66,44.76z"/>
		<path class="st40" d="M129.77,38.03c1.49,10.84,0.61,17.54,0.61,26.1c0,6.02,0.4,9.18,1.96,12.45c2.5,5.23,7.27,8.38,13.49,8.38
			c5.25,0,10.01-2.13,14.11-6.39c0.17,1.73,0.51,3.68,0.9,5.1h11.63c-1.09-4.88-1.63-9.77-1.63-16.31V38.03h-11.91v19.04
			c0,4.63-0.39,7.43-1.3,9.89c-1.66,4.5-4.76,7.15-8.32,7.15c-2.5,0-4.3-0.99-5.39-3.09c-1.05-2.03-1.2-4.18-1.2-8.04
			c0-7.73,0.53-16.22-0.62-24.96H129.77z"/>
	</g>
</g>
</svg>
