<svg id="コンポーネント_6_1" data-name="コンポーネント 6 – 1" xmlns="http://www.w3.org/2000/svg" xmlns:xlink="http://www.w3.org/1999/xlink" width="240" height="48.41" viewBox="0 0 240 48.41">
  <defs>
    <linearGradient id="linear-gradient" x1="-157.142" y1="-34.031" x2="-156.624" y2="-33.109" gradientUnits="objectBoundingBox">
      <stop offset="0" stop-color="#e470a5"/>
      <stop offset="1" stop-color="#8e6aa9"/>
    </linearGradient>
    <linearGradient id="linear-gradient-2" x1="107.994" y1="-27.393" x2="108.336" y2="-28.231" gradientUnits="objectBoundingBox">
      <stop offset="0" stop-color="#25977f"/>
      <stop offset="1" stop-color="#00942c"/>
    </linearGradient>
    <linearGradient id="linear-gradient-3" x1="46.215" y1="-48.208" x2="47.215" y2="-48.208" gradientUnits="objectBoundingBox">
      <stop offset="0" stop-color="#de0517"/>
      <stop offset="1" stop-color="#e470a5"/>
    </linearGradient>
    <linearGradient id="linear-gradient-4" x1="-219.874" y1="-138.686" x2="-219.234" y2="-139.33" gradientUnits="objectBoundingBox">
      <stop offset="0" stop-color="#ed6b00"/>
      <stop offset="1" stop-color="#de0517"/>
    </linearGradient>
    <linearGradient id="linear-gradient-5" x1="97.273" y1="-40.736" x2="98.03" y2="-39.892" gradientUnits="objectBoundingBox">
      <stop offset="0" stop-color="#ffc500"/>
      <stop offset="1" stop-color="#00942c"/>
    </linearGradient>
    <linearGradient id="linear-gradient-6" x1="153.037" y1="-77.815" x2="152.586" y2="-77.077" gradientUnits="objectBoundingBox">
      <stop offset="0" stop-color="#a56faa"/>
      <stop offset="1" stop-color="#4054a0"/>
    </linearGradient>
    <linearGradient id="linear-gradient-7" x1="148.291" y1="-66.168" x2="147.596" y2="-65.338" gradientUnits="objectBoundingBox">
      <stop offset="0" stop-color="#de0517"/>
      <stop offset="0.5" stop-color="#e470a5"/>
      <stop offset="1" stop-color="#a56faa"/>
    </linearGradient>
    <linearGradient id="linear-gradient-8" x1="196.853" y1="-174.714" x2="197.349" y2="-175.214" xlink:href="#linear-gradient-4"/>
    <linearGradient id="linear-gradient-9" x1="164.155" y1="-169.292" x2="164.677" y2="-168.705" gradientUnits="objectBoundingBox">
      <stop offset="0" stop-color="#fb0"/>
      <stop offset="1" stop-color="#ed6b00"/>
    </linearGradient>
    <linearGradient id="linear-gradient-10" x1="141.1" y1="-71.541" x2="140.5" y2="-72.308" gradientUnits="objectBoundingBox">
      <stop offset="0" stop-color="#fb0"/>
      <stop offset="1" stop-color="#e470a5"/>
    </linearGradient>
    <linearGradient id="linear-gradient-11" x1="325.2" y1="-66.774" x2="325.129" y2="-65.91" gradientUnits="objectBoundingBox">
      <stop offset="0" stop-color="#4054a0"/>
      <stop offset="1" stop-color="#25977f"/>
    </linearGradient>
    <linearGradient id="linear-gradient-12" x1="168.231" y1="-71.73" x2="167.57" y2="-72.61" xlink:href="#linear-gradient-2"/>
    <linearGradient id="linear-gradient-13" x1="95.107" y1="-28.58" x2="94.415" y2="-27.682" xlink:href="#linear-gradient"/>
    <linearGradient id="linear-gradient-14" x1="131.053" y1="-67.883" x2="130.438" y2="-68.71" xlink:href="#linear-gradient-11"/>
    <linearGradient id="linear-gradient-15" x1="85.275" y1="-122.043" x2="84.507" y2="-121.31" xlink:href="#linear-gradient-5"/>
    <linearGradient id="linear-gradient-16" x1="278.302" y1="-55.779" x2="278.699" y2="-56.662" xlink:href="#linear-gradient-11"/>
    <linearGradient id="linear-gradient-17" x1="90.96" y1="-150.917" x2="91.737" y2="-151.627" xlink:href="#linear-gradient-2"/>
    <linearGradient id="linear-gradient-18" x1="100.853" y1="-58.597" x2="101.161" y2="-59.341" xlink:href="#linear-gradient-11"/>
    <linearGradient id="linear-gradient-19" x1="147.462" y1="-31.385" x2="147.397" y2="-30.466" gradientUnits="objectBoundingBox">
      <stop offset="0" stop-color="#8e6aa9"/>
      <stop offset="1" stop-color="#4054a0"/>
    </linearGradient>
    <linearGradient id="linear-gradient-20" x1="114.741" y1="-54.391" x2="115.067" y2="-55.094" xlink:href="#linear-gradient-3"/>
    <linearGradient id="linear-gradient-21" x1="134.923" y1="-39.347" x2="134.629" y2="-38.485" xlink:href="#linear-gradient"/>
    <linearGradient id="linear-gradient-22" x1="218.965" y1="-89.272" x2="218.343" y2="-90.071" xlink:href="#linear-gradient-2"/>
    <linearGradient id="linear-gradient-23" x1="83.4" y1="-97.142" x2="82.577" y2="-97.941" xlink:href="#linear-gradient-11"/>
    <linearGradient id="linear-gradient-24" x1="234.316" y1="-81.017" x2="233.855" y2="-81.767" xlink:href="#linear-gradient-2"/>
    <linearGradient id="linear-gradient-25" x1="105.867" y1="-76.759" x2="105.153" y2="-75.969" xlink:href="#linear-gradient-5"/>
    <linearGradient id="linear-gradient-26" x1="46.202" y1="-181.936" x2="47.062" y2="-182.512" gradientUnits="objectBoundingBox">
      <stop offset="0" stop-color="#ffc500"/>
      <stop offset="1" stop-color="#ed6b00"/>
    </linearGradient>
    <linearGradient id="linear-gradient-27" x1="154.002" y1="-103.225" x2="154.373" y2="-103.751" xlink:href="#linear-gradient-4"/>
    <linearGradient id="linear-gradient-28" x1="63.057" y1="-126.008" x2="63.85" y2="-125.277" gradientUnits="objectBoundingBox">
      <stop offset="0" stop-color="#ffc500"/>
      <stop offset="1" stop-color="#e470a5"/>
    </linearGradient>
    <linearGradient id="linear-gradient-29" x1="120.425" y1="-154.321" x2="119.756" y2="-154.969" xlink:href="#linear-gradient-19"/>
    <linearGradient id="linear-gradient-30" x1="-261.817" y1="-57.995" x2="-261.517" y2="-57.156" gradientUnits="objectBoundingBox">
      <stop offset="0" stop-color="#ffaf00"/>
      <stop offset="1" stop-color="#ed6b00"/>
    </linearGradient>
    <linearGradient id="linear-gradient-31" x1="-442.07" y1="-51.861" x2="-442.041" y2="-50.97" xlink:href="#linear-gradient-2"/>
    <linearGradient id="linear-gradient-32" x1="-133.625" y1="-84.212" x2="-134.31" y2="-84.941" xlink:href="#linear-gradient-11"/>
    <linearGradient id="linear-gradient-33" x1="-176.848" y1="-20.619" x2="-177.107" y2="-19.744" gradientUnits="objectBoundingBox">
      <stop offset="0" stop-color="#ffaf00"/>
      <stop offset="1" stop-color="#00942c"/>
    </linearGradient>
    <linearGradient id="linear-gradient-34" x1="-183.568" y1="-70.835" x2="-184.39" y2="-69.968" xlink:href="#linear-gradient-28"/>
    <linearGradient id="linear-gradient-35" x1="-141.724" y1="-97.133" x2="-142.35" y2="-97.727" xlink:href="#linear-gradient-19"/>
  </defs>
  <g id="グループ_902" data-name="グループ 902" transform="translate(177.524 0)">
    <path id="パス_1023" data-name="パス 1023" d="M349.636,443.9c-1.652-1.823-1.721-4.066-1.8-6.844a23.934,23.934,0,0,0-.889-6.717,13.1,13.1,0,0,0-2.353-4.239,5.422,5.422,0,0,1-1.536-3.393,7.7,7.7,0,0,1,1.151-3.469c.411-.82.88-1.755,1.348-2.947l-1.167-.457c-.447,1.138-.9,2.046-1.3,2.842A8.692,8.692,0,0,0,341.8,422.7a6.573,6.573,0,0,0,1.79,4.15,12.09,12.09,0,0,1,2.159,3.854,22.68,22.68,0,0,1,.829,6.384c.086,2.831.169,5.514,2.171,7.692Z" transform="translate(-332.758 -400.155)" fill="url(#linear-gradient)"/>
    <path id="パス_1024" data-name="パス 1024" d="M350.048,444.222a1.308,1.308,0,0,0-.215,1.393,1.162,1.162,0,0,0,1.133.557h3.94a1.4,1.4,0,0,0,1.092-.379,1.43,1.43,0,0,0,.244-1.154,53.485,53.485,0,0,1-.131-11.654c.125-1.748.254-3.559.254-5.531a15.551,15.551,0,0,0-2.112-8.466l-1.112.573a14.374,14.374,0,0,1,1.971,7.893c0,1.927-.122,3.636-.25,5.441a54.789,54.789,0,0,0,.134,11.9,1.079,1.079,0,0,1,.012.253.25.25,0,0,1,.131-.15.856.856,0,0,1-.234.018h-3.94a.561.561,0,0,1-.144-.012.29.29,0,0,1,.15.247.613.613,0,0,1,.119-.237c.04-.055.075-.112.113-.173Z" transform="translate(-328.585 -398.492)" fill="url(#linear-gradient-2)"/>
    <path id="パス_1025" data-name="パス 1025" d="M340.162,420.818a4.923,4.923,0,0,0,.829,1.084,5.5,5.5,0,0,0,3.862,1.616c5,0,6.362-4.981,7.456-8.983.82-2.987,1.524-5.564,3.307-5.564v-1.252c-2.741,0-3.6,3.149-4.515,6.484-1.086,3.967-2.21,8.064-6.249,8.064a4.235,4.235,0,0,1-2.973-1.249,3.716,3.716,0,0,1-.611-.791Z" transform="translate(-333.622 -404.431)" fill="url(#linear-gradient-3)"/>
    <path id="パス_1026" data-name="パス 1026" d="M343.706,413.906a2.107,2.107,0,0,0-1.521-.628,2.458,2.458,0,0,0-2.365,2.681,3.965,3.965,0,0,0,.522,1.929l1.107-.592a2.7,2.7,0,0,1-.376-1.336,1.577,1.577,0,0,1,.4-1.139.957.957,0,0,1,.707-.289.865.865,0,0,1,.635.26Z" transform="translate(-333.802 -401.501)" fill="#de0517"/>
    <path id="パス_1027" data-name="パス 1027" d="M339.18,420.753a5.7,5.7,0,0,0,4.053-1.69,5.039,5.039,0,0,0,1.548-3.492,2.657,2.657,0,0,0-.738-1.881l-.886.886a1.437,1.437,0,0,1,.37,1,4.314,4.314,0,0,1-4.347,3.931Z" transform="translate(-334.139 -401.284)" fill="url(#linear-gradient-4)"/>
    <path id="パス_1028" data-name="パス 1028" d="M355.225,425.3a24.881,24.881,0,0,1-2.278-5.777c-.376-1.463-.667-2.961-.954-4.413-.892-4.518-1.6-8.092-4.121-8.092v1.251c1.5,0,2.174,3.442,2.894,7.087.289,1.466.586,2.982.968,4.479a25.772,25.772,0,0,0,2.381,6.038Z" transform="translate(-329.559 -404.801)" fill="url(#linear-gradient-5)"/>
    <path id="パス_1029" data-name="パス 1029" d="M353.86,421.851c-1.941,1.4-3.952,2.845-3.952,7.345a20.771,20.771,0,0,0,.185,2.529l1.264,0a20.615,20.615,0,0,1-.194-2.526c0-3.856,1.513-4.948,3.431-6.334Z" transform="translate(-328.486 -396.983)" fill="url(#linear-gradient-6)"/>
    <path id="パス_1030" data-name="パス 1030" d="M356.176,414.907a9.077,9.077,0,0,0-.354,3.888c.1,1.8.188,3.5-1.3,5.048a14.632,14.632,0,0,1-2.028,1.668l.734,1.011a14.946,14.946,0,0,0,2.2-1.808c1.865-1.939,1.747-4.089,1.643-5.986a8.129,8.129,0,0,1,.275-3.372Z" transform="translate(-327.122 -400.642)" fill="url(#linear-gradient-7)"/>
    <path id="パス_1031" data-name="パス 1031" d="M359.452,414.956a2.115,2.115,0,0,0-1.993-1.289,2.721,2.721,0,0,0-2.553,1.894l1.17.449a1.513,1.513,0,0,1,1.383-1.087.871.871,0,0,1,.844.534Z" transform="translate(-325.851 -401.296)" fill="#de0517"/>
    <path id="パス_1032" data-name="パス 1032" d="M355.719,418.9a4.414,4.414,0,0,0,2.685-1.339,2.824,2.824,0,0,0,.663-3.045l-1.148.5a1.6,1.6,0,0,1-.432,1.69,3.181,3.181,0,0,1-1.849.942Z" transform="translate(-325.466 -400.851)" fill="url(#linear-gradient-8)"/>
    <path id="パス_1033" data-name="パス 1033" d="M352.838,414.807c.667,2.3,1.75,4.154,4.04,4.154a2.874,2.874,0,0,0,.316-.018l-.082-1.251a2.092,2.092,0,0,1-.234.015c-1.5,0-2.269-1.232-2.848-3.286Z" transform="translate(-326.941 -400.898)" fill="url(#linear-gradient-9)"/>
    <path id="パス_1034" data-name="パス 1034" d="M354,411.714c-.623-2.24-1.6-4-3.717-4v1.252c1.261,0,1.942,1.107,2.466,2.965.25.873.466,1.913.69,3.086.214,1.1.435,2.26.745,3.318l1.193-.386c-.257-.91-.476-1.976-.707-3.167C354.47,413.739,354.269,412.682,354,411.714Z" transform="translate(-328.288 -404.431)" fill="url(#linear-gradient-10)"/>
    <path id="パス_1035" data-name="パス 1035" d="M350.079,428.318c.084.664.185,1.353.29,2.052.495,3.335,1.008,6.783-.435,8.936l1.156.521c1.573-2.545,1.038-6.149.519-9.64-.095-.64-.188-1.267-.266-1.872Z" transform="translate(-328.472 -393.576)" fill="url(#linear-gradient-11)"/>
    <path id="パス_1036" data-name="パス 1036" d="M360.541,430.327a11.141,11.141,0,0,0,.284-2.284,7,7,0,0,0-1.585-4.367,6.283,6.283,0,0,1-1.434-3.943h-1.249a7.487,7.487,0,0,0,1.652,4.65,5.845,5.845,0,0,1,1.365,3.66,10.019,10.019,0,0,1-.263,2.04Z" transform="translate(-324.981 -398.099)" fill="url(#linear-gradient-12)"/>
    <path id="パス_1037" data-name="パス 1037" d="M364.717,445.855a15.051,15.051,0,0,0,1.924.246c.939.064,1.518.026,1.909-.345a1.636,1.636,0,0,0,.383-1.309c-.185-7.737.97-11.222,1.984-14.29a20.925,20.925,0,0,0,1.39-7.288,12.493,12.493,0,0,0-.5-3.63l-1.211.331a11.106,11.106,0,0,1,.463,3.3,19.687,19.687,0,0,1-1.324,6.895c-1.051,3.167-2.234,6.76-2.046,14.714a1.278,1.278,0,0,1-.026.4.157.157,0,0,1,.053-.057,2.566,2.566,0,0,1-.988.024,13.647,13.647,0,0,1-1.625-.2Z" transform="translate(-320.681 -398.359)" fill="url(#linear-gradient-13)"/>
    <path id="パス_1038" data-name="パス 1038" d="M363.66,437.064a4.808,4.808,0,0,0-1.383-1.645,8.761,8.761,0,0,1-2.848-6.639,10.134,10.134,0,0,1,.257-2.025l-1.229-.244a11.257,11.257,0,0,0-.276,2.269,9.928,9.928,0,0,0,3.292,7.606,3.507,3.507,0,0,1,1.1,1.3Z" transform="translate(-324.126 -394.527)" fill="url(#linear-gradient-14)"/>
    <path id="パス_1039" data-name="パス 1039" d="M357.806,421.909a3.647,3.647,0,0,1,.538-2c1.031-1.677,3.815-2.669,6.675-3.071l-.263-1.229c-3.188.461-6.245,1.637-7.484,3.64a4.975,4.975,0,0,0-.715,2.663Z" transform="translate(-324.981 -400.275)" fill="url(#linear-gradient-15)"/>
    <path id="パス_1040" data-name="パス 1040" d="M365.263,424.844c-1.777,3.431-1.515,7.117-1.31,10.084a25.411,25.411,0,0,1,.1,3.141l1.231.345a23.3,23.3,0,0,0-.079-3.573c-.206-2.958-.444-6.3,1.168-9.419Z" transform="translate(-321.161 -395.405)" fill="url(#linear-gradient-16)"/>
    <path id="パス_1041" data-name="パス 1041" d="M372.621,421.9a8.692,8.692,0,0,0-7.861,4.494l1.112.579a7.445,7.445,0,0,1,6.749-3.822Z" transform="translate(-320.658 -396.956)" fill="url(#linear-gradient-17)"/>
    <path id="パス_1042" data-name="パス 1042" d="M374.874,423.174a8.544,8.544,0,0,0-4.966-1.273v1.251a7.356,7.356,0,0,1,4.218,1.049Z" transform="translate(-317.945 -396.956)" fill="#00942c"/>
    <path id="パス_1043" data-name="パス 1043" d="M372.131,439.913c.3,1.061.551,1.344,1.787,1.344h4.19a1.054,1.054,0,0,0,1.07-.579,1.02,1.02,0,0,0-.292-1.148c-2.741-2.953-2.7-7.333-2.665-11.2l-1.255-.014c-.038,4.1-.081,8.747,3,12.062a.383.383,0,0,1,.047.06.35.35,0,0,1,.009-.257A.327.327,0,0,1,378.2,440a.442.442,0,0,1-.089.006h-4.19a2.278,2.278,0,0,1-.5-.029.2.2,0,0,1,.07.057,3.088,3.088,0,0,1-.151-.452Z" transform="translate(-316.774 -393.576)" fill="url(#linear-gradient-18)"/>
    <path id="パス_1044" data-name="パス 1044" d="M374.093,419.872c-1.947,2.049-3.95,4.17-3.95,8.947,0,4.74,1.681,10.729,3.036,15.544l1.2-.336c-1.33-4.744-2.991-10.643-2.991-15.208,0-4.276,1.674-6.039,3.611-8.084Z" transform="translate(-317.821 -398.026)" fill="url(#linear-gradient-19)"/>
    <path id="パス_1045" data-name="パス 1045" d="M369.514,421.344a2.955,2.955,0,0,0,2.119.915,3.444,3.444,0,0,0,2.468-1.049,6.971,6.971,0,0,0,1.663-4.972,14.925,14.925,0,0,0-2.191-7.905l-.877.947a13.877,13.877,0,0,1,1.81,6.959c0,2.81-1.18,4.767-2.872,4.767a1.712,1.712,0,0,1-1.231-.547Z" transform="translate(-318.153 -404.107)" fill="url(#linear-gradient-20)"/>
    <path id="パス_1046" data-name="パス 1046" d="M370.851,418.106a3.528,3.528,0,0,1-.938-2.387,1.92,1.92,0,0,1,.475-1.342,1.139,1.139,0,0,1,.82-.331v-1.251a2.662,2.662,0,0,0-2.544,2.924,4.756,4.756,0,0,0,1.3,3.272Z" transform="translate(-318.601 -401.755)" fill="#de0517"/>
    <path id="パス_1047" data-name="パス 1047" d="M372.738,409.765a1.047,1.047,0,0,1-.221-1.066,1.879,1.879,0,0,0-.119-1.464c-.069-.134-.063-.257.018-.324s.244-.05.408.067a9.772,9.772,0,0,1,2.223,2.338l1.1-.594a11.073,11.073,0,0,0-2.594-2.764,1.545,1.545,0,0,0-1.95,0,1.49,1.49,0,0,0-.322,1.84.646.646,0,0,1,.023.58,2.25,2.25,0,0,0,.4,2.1c.05.081.1.157.156.238Z" transform="translate(-317.318 -405.541)" fill="#e470a5"/>
    <path id="パス_1048" data-name="パス 1048" d="M374.187,408.243a14.907,14.907,0,0,1,2.61,8.35c0,5.433-1.971,7.514-4.066,9.721l.91.863c2.071-2.181,4.412-4.653,4.412-10.584a16.245,16.245,0,0,0-2.765-8.944Z" transform="translate(-316.458 -404.467)" fill="url(#linear-gradient-21)"/>
    <path id="パス_1049" data-name="パス 1049" d="M375.938,431.269a29.1,29.1,0,0,0-.182-4.576,5.74,5.74,0,0,0-2.338-3.958l-.748,1.026a4.439,4.439,0,0,1,1.846,3.126,28.534,28.534,0,0,1,.166,4.369Z" transform="translate(-316.49 -396.517)" fill="url(#linear-gradient-22)"/>
    <path id="パス_1050" data-name="パス 1050" d="M365.109,433.505a3.354,3.354,0,0,1-.695,2.127,3.427,3.427,0,0,1-2.61.794v1.251a4.6,4.6,0,0,0,3.524-1.186,4.263,4.263,0,0,0,1.011-2.64Z" transform="translate(-322.216 -390.841)" fill="#4054a0"/>
    <path id="パス_1051" data-name="パス 1051" d="M364.792,437.694c-2.775,0-5.748-2.55-7.588-6.6l-1.067.73c2.081,4.425,5.482,7.113,8.655,7.116Z" transform="translate(-325.203 -392.109)" fill="url(#linear-gradient-23)"/>
    <path id="パス_1052" data-name="パス 1052" d="M357.891,434.09a21,21,0,0,1-1.8-8.667h-1.252a22.119,22.119,0,0,0,1.99,9.4Z" transform="translate(-325.889 -395.1)" fill="url(#linear-gradient-24)"/>
    <path id="パス_1053" data-name="パス 1053" d="M356.086,428.88a9.2,9.2,0,0,1,5.545-8.88l-.528-1.136a10.51,10.51,0,0,0-6.268,10.016Z" transform="translate(-325.889 -398.557)" fill="url(#linear-gradient-25)"/>
    <path id="パス_1054" data-name="パス 1054" d="M366.571,419.644a25.035,25.035,0,0,0,7.85-1.594l-.411-1.2a23.459,23.459,0,0,1-7.559,1.545,23.573,23.573,0,0,0-7.513,1.53l.528,1.136A22.326,22.326,0,0,1,366.571,419.644Z" transform="translate(-323.726 -399.618)" fill="url(#linear-gradient-26)"/>
    <path id="パス_1055" data-name="パス 1055" d="M372.437,417.779a3.518,3.518,0,0,0,.773-3.68,2.233,2.233,0,0,0-2.078-1.3v1.251a.976.976,0,0,1,.942.588,2.266,2.266,0,0,1-.592,2.341,7.657,7.657,0,0,1-2.672,2.013l.411,1.2A8.756,8.756,0,0,0,372.437,417.779Z" transform="translate(-318.524 -401.755)" fill="url(#linear-gradient-27)"/>
    <path id="パス_1056" data-name="パス 1056" d="M362.189,416.913a21.032,21.032,0,0,1,2.9-.2,7.142,7.142,0,0,1,5.267,1.929,6.994,6.994,0,0,1,1.709,2.927l1.211-.331a8.3,8.3,0,0,0-2.031-3.483,8.461,8.461,0,0,0-6.155-2.294,22.31,22.31,0,0,0-3.161.228Z" transform="translate(-322.152 -400.353)" fill="url(#linear-gradient-28)"/>
    <path id="パス_1057" data-name="パス 1057" d="M367.029,437.175c-2.559-.489-3.72-1.715-4.883-3.753l-1.09.625c1.458,2.547,3.03,3.811,5.592,4.334Z" transform="translate(-322.611 -390.885)" fill="url(#linear-gradient-29)"/>
    <path id="パス_1058" data-name="パス 1058" d="M338.384,407.2a11.572,11.572,0,0,1-1.051,4.865,14.413,14.413,0,0,0-1.234,5.7,7.273,7.273,0,0,0,1.785,5.192,4.075,4.075,0,0,0,2.918,1.219v-1.252a2.777,2.777,0,0,1-2.028-.855,6.019,6.019,0,0,1-1.423-4.3,13.3,13.3,0,0,1,1.154-5.247,12.831,12.831,0,0,0,1.13-5.335Z" transform="translate(-335.762 -404.711)" fill="url(#linear-gradient-30)"/>
    <path id="パス_1059" data-name="パス 1059" d="M337.2,423.183a5.519,5.519,0,0,0-1.321,3.769,27.794,27.794,0,0,0,.713,5.065c.655,3.3,1.4,7.032.116,9.664l1.151.505c1.431-3.007.655-6.928-.04-10.417a27,27,0,0,1-.686-4.818,4.171,4.171,0,0,1,1.077-3Z" transform="translate(-335.879 -396.281)" fill="url(#linear-gradient-31)"/>
    <path id="パス_1060" data-name="パス 1060" d="M345.9,433.733c-1.064-5.845-2.069-11.372-6.314-11.372a3.785,3.785,0,0,0-2.842,1.255l1.011.77a2.561,2.561,0,0,1,1.831-.773c3.2,0,4.114,5.024,5.08,10.346Z" transform="translate(-335.423 -396.714)" fill="url(#linear-gradient-32)"/>
    <path id="パス_1061" data-name="パス 1061" d="M336.584,450.966c-.053.108-.11.217-.168.321a1.485,1.485,0,0,0-.169,1.443,1.152,1.152,0,0,0,1.095.516H340.8a1.41,1.41,0,0,0,1.066-.36,1.55,1.55,0,0,0,.313-1.193,37.225,37.225,0,0,1,.292-6.31,29.207,29.207,0,0,0,.237-5.651,21.487,21.487,0,0,0-2.071-6.948,16.825,16.825,0,0,1-1.84-6.67c0-2.72,1.095-5.244,2.15-7.689,1.035-2.394,2.106-4.868,2.106-7.476a6.22,6.22,0,0,0-1.07-3.767,3.364,3.364,0,0,0-.692-.654c-.069-.05-.134-.1-.2-.153a1.9,1.9,0,0,1-.206-.209c-.038-.043-.081-.092-.125-.137a1.411,1.411,0,0,0-2.448,1.118c.032.319.05.623.06.912l1.252-.017c-.009-.325-.027-.667-.066-1.02-.009-.1.018-.156.084-.185a.176.176,0,0,1,.211.057c.031.032.063.066.1.1a2.736,2.736,0,0,0,.328.331c.095.082.188.148.267.208a2.11,2.11,0,0,1,.45.423,5.051,5.051,0,0,1,.8,2.99c0,2.35-.973,4.6-2,6.978-1.109,2.561-2.254,5.207-2.254,8.186a17.958,17.958,0,0,0,1.944,7.159,20.628,20.628,0,0,1,1.968,6.559,27.79,27.79,0,0,1-.232,5.415,37.93,37.93,0,0,0-.3,6.508,1.053,1.053,0,0,1-.011.324.218.218,0,0,1,.1-.105.813.813,0,0,1-.221.018h-3.462a.5.5,0,0,1-.137-.012.3.3,0,0,1,.163.246.859.859,0,0,1,.137-.321c.081-.144.159-.283.231-.432Z" transform="translate(-335.755 -405.565)" fill="url(#linear-gradient-33)"/>
    <path id="パス_1062" data-name="パス 1062" d="M344.661,420.933a55.462,55.462,0,0,0,1.947-6.351c1.051-4.031,1.733-6.316,3.57-6.316v-1.251c-2.9,0-3.727,3.2-4.787,7.252a53.413,53.413,0,0,1-1.9,6.209Z" transform="translate(-331.866 -404.801)" fill="url(#linear-gradient-34)"/>
    <path id="パス_1063" data-name="パス 1063" d="M341.932,430.034a38.463,38.463,0,0,0,2.335,8.95,1.344,1.344,0,0,0,1.721.855,27.126,27.126,0,0,0,3.734-.89,1.118,1.118,0,0,0,.854-.8,1.165,1.165,0,0,0-.49-1.109,6.3,6.3,0,0,1-.518-.51l-.886.887a7.411,7.411,0,0,0,.573.562.6.6,0,0,1,.113.119.366.366,0,0,1,.089-.4.447.447,0,0,1-.116.049,24.952,24.952,0,0,1-3.543.857,1.246,1.246,0,0,1-.341.024.175.175,0,0,1,.057.035,1.169,1.169,0,0,1-.113-.211,37.872,37.872,0,0,1-2.234-8.646Z" transform="translate(-332.689 -392.789)" fill="url(#linear-gradient-35)"/>
  </g>
  <g id="グループ_903" data-name="グループ 903" transform="translate(0 20.947)">
    <path id="パス_1064" data-name="パス 1064" d="M237.235,419.781v9.842H226.449v-9.86h-6.825v25.971h6.825V435.6h10.786v10.131h6.834V419.781Z" transform="translate(-219.623 -419.03)" fill="#404040"/>
    <path id="パス_1065" data-name="パス 1065" d="M314.878,446.007a68.067,68.067,0,0,1-.457-7.655V420.859a21.48,21.48,0,0,0-8.446-1.576c-9.834,0-15.716,5.887-15.716,15.075,0,7.627,3.917,12.207,10.378,12.207a9.573,9.573,0,0,0,7.426-3.4c.122,1,.286,2.09.429,2.842Zm-7.015-15.95a20.387,20.387,0,0,1-.334,4.439c-.748,3.483-3.02,5.878-5.92,5.878-2.8,0-4.384-2.265-4.384-5.963,0-5.651,3.042-9.122,7.623-9.122a8.483,8.483,0,0,1,3.016.457Z" transform="translate(-182.398 -419.283)" fill="#404040"/>
    <path id="パス_1066" data-name="パス 1066" d="M318.654,446.007v-10.84a15.589,15.589,0,0,1,.745-5.636c.951-2.562,2.738-4.073,4.772-4.073a3.194,3.194,0,0,1,3.085,1.758c.6,1.156.692,2.382.692,4.581v14.21h7.012V431.146c0-3.424-.227-5.225-1.119-7.09a8.176,8.176,0,0,0-7.7-4.773,10.924,10.924,0,0,0-8.055,3.637,19.822,19.822,0,0,0-.513-2.9h-6.624a40.762,40.762,0,0,1,.928,9.286v16.7Z" transform="translate(-171.495 -419.283)" fill="#404040"/>
    <path id="パス_1067" data-name="パス 1067" d="M298.774,423.853c-1.4-2.849-4.071-4.57-7.849-4.57a10.7,10.7,0,0,0-8.069,3.756,7.916,7.916,0,0,0-7.143-3.756,10.721,10.721,0,0,0-7.872,3.553,22.215,22.215,0,0,0-.46-2.813h-6.523a40.579,40.579,0,0,1,.931,9.286v16.7h6.781V434.749a14.922,14.922,0,0,1,.712-5.392c.913-2.454,2.62-3.9,4.573-3.9a3.061,3.061,0,0,1,2.955,1.683c.574,1.1.661,2.281.661,4.384v14.482h6.778V434.749a15.071,15.071,0,0,1,.709-5.392c.9-2.454,2.6-3.9,4.535-3.9a3.041,3.041,0,0,1,2.938,1.683c.568,1.1.654,2.281.654,4.384v14.482h6.781V430.639C299.867,427.361,299.644,425.632,298.774,423.853Z" transform="translate(-197.892 -419.283)" fill="#404040"/>
    <path id="パス_1068" data-name="パス 1068" d="M240.612,419.768c.848,6.169.344,9.987.344,14.859,0,3.425.228,5.229,1.115,7.09a8.149,8.149,0,0,0,7.679,4.773,10.9,10.9,0,0,0,8.034-3.64,18.749,18.749,0,0,0,.512,2.9h6.624a40.76,40.76,0,0,1-.93-9.284v-16.7h-6.778V430.61a15.744,15.744,0,0,1-.742,5.635c-.947,2.561-2.714,4.071-4.74,4.071a3.17,3.17,0,0,1-3.068-1.759c-.6-1.156-.684-2.378-.684-4.58,0-4.4.3-9.234-.353-14.209Z" transform="translate(-208.562 -419.027)" fill="#404040"/>
  </g>
</svg>
