<?xml version="1.0" encoding="utf-8"?>
<!-- Generator: Adobe Illustrator 24.0.3, SVG Export Plug-In . SVG Version: 6.00 Build 0)  -->
<svg version="1.1" id="レイヤー_2" xmlns="http://www.w3.org/2000/svg" xmlns:xlink="http://www.w3.org/1999/xlink" x="0px"
	 y="0px" viewBox="0 0 240 48.41" style="enable-background:new 0 0 240 48.41;" xml:space="preserve">
<style type="text/css">
	.st0{fill:url(#SVGID_1_);}
	.st1{fill:url(#SVGID_2_);}
	.st2{fill:url(#SVGID_3_);}
	.st3{fill:#E62320;}
	.st4{fill:url(#SVGID_4_);}
	.st5{fill:url(#SVGID_5_);}
	.st6{fill:url(#SVGID_6_);}
	.st7{fill:url(#SVGID_7_);}
	.st8{fill:url(#SVGID_8_);}
	.st9{fill:url(#SVGID_9_);}
	.st10{fill:url(#SVGID_10_);}
	.st11{fill:url(#SVGID_11_);}
	.st12{fill:url(#SVGID_12_);}
	.st13{fill:url(#SVGID_13_);}
	.st14{fill:url(#SVGID_14_);}
	.st15{fill:url(#SVGID_15_);}
	.st16{fill:url(#SVGID_16_);}
	.st17{fill:url(#SVGID_17_);}
	.st18{fill:#00A23E;}
	.st19{fill:url(#SVGID_18_);}
	.st20{fill:url(#SVGID_19_);}
	.st21{fill:url(#SVGID_20_);}
	.st22{fill:#ED86B3;}
	.st23{fill:url(#SVGID_21_);}
	.st24{fill:url(#SVGID_22_);}
	.st25{fill:#5E66AD;}
	.st26{fill:url(#SVGID_23_);}
	.st27{fill:url(#SVGID_24_);}
	.st28{fill:url(#SVGID_25_);}
	.st29{fill:url(#SVGID_26_);}
	.st30{fill:url(#SVGID_27_);}
	.st31{fill:url(#SVGID_28_);}
	.st32{fill:url(#SVGID_29_);}
	.st33{fill:url(#SVGID_30_);}
	.st34{fill:url(#SVGID_31_);}
	.st35{fill:url(#SVGID_32_);}
	.st36{fill:url(#SVGID_33_);}
	.st37{fill:url(#SVGID_34_);}
	.st38{fill:url(#SVGID_35_);}
	.st39{fill:#404040;}
</style>
<g>
	<g>
		
			<linearGradient id="SVGID_1_" gradientUnits="userSpaceOnUse" x1="-619.2294" y1="-629.2067" x2="-615.1691" y2="-602.4997" gradientTransform="matrix(1 0 0 1 807.2505 645.9741)">
			<stop  offset="0" style="stop-color:#ED86B3"/>
			<stop  offset="1" style="stop-color:#A57EB6"/>
		</linearGradient>
		<path class="st0" d="M194.4,43.75c-1.65-1.82-1.72-4.07-1.8-6.84c-0.06-2.02-0.13-4.3-0.89-6.72c-0.6-1.93-1.53-3.15-2.35-4.24
			c-0.86-1.13-1.54-2.03-1.54-3.39c0-1.17,0.48-2.14,1.15-3.47c0.41-0.82,0.88-1.75,1.35-2.95l-1.17-0.46
			c-0.45,1.14-0.9,2.05-1.3,2.84c-0.72,1.43-1.29,2.56-1.29,4.03c0,1.78,0.87,2.93,1.79,4.15c0.76,1,1.62,2.14,2.16,3.85
			c0.7,2.25,0.77,4.35,0.83,6.38c0.09,2.83,0.17,5.51,2.17,7.69L194.4,43.75z"/>
		
			<linearGradient id="SVGID_2_" gradientUnits="userSpaceOnUse" x1="669.7859" y1="-458.5343" x2="672.0574" y2="-481.3267" gradientTransform="matrix(1 0 0 1 -467.741 503.9785)">
			<stop  offset="0" style="stop-color:#15A590"/>
			<stop  offset="1" style="stop-color:#00A23E"/>
		</linearGradient>
		<path class="st1" d="M198.99,45.73c-0.44,0.66-0.36,1.12-0.21,1.39c0.13,0.26,0.44,0.56,1.13,0.56h3.94
			c0.35,0,0.79-0.04,1.09-0.38c0.3-0.34,0.29-0.8,0.24-1.15c-0.62-4.87-0.37-8.32-0.13-11.65c0.13-1.75,0.25-3.56,0.25-5.53
			c0-4.37-0.98-6.27-2.11-8.47l-1.11,0.57c1.1,2.14,1.97,3.83,1.97,7.89c0,1.93-0.12,3.64-0.25,5.44c-0.24,3.39-0.5,6.91,0.13,11.9
			c0.02,0.19,0.01,0.25,0.01,0.25c0.01-0.06,0.08-0.13,0.13-0.15c0,0-0.06,0.02-0.23,0.02h-3.94c-0.1,0-0.14-0.01-0.14-0.01
			c0.08,0.03,0.16,0.17,0.15,0.25c0,0,0.01-0.08,0.12-0.24c0.04-0.06,0.07-0.11,0.11-0.17L198.99,45.73z"/>
		
			<linearGradient id="SVGID_3_" gradientUnits="userSpaceOnUse" x1="651.8056" y1="-492.7867" x2="667.2606" y2="-492.7867" gradientTransform="matrix(1 0 0 1 -467.741 503.9785)">
			<stop  offset="0" style="stop-color:#E62320"/>
			<stop  offset="1" style="stop-color:#ED86B3"/>
		</linearGradient>
		<path class="st2" d="M184.06,16.39c0.21,0.38,0.49,0.75,0.83,1.08c1.03,1.03,2.44,1.62,3.86,1.62c5,0,6.36-4.98,7.46-8.98
			c0.82-2.99,1.52-5.56,3.31-5.56V3.29c-2.74,0-3.6,3.15-4.52,6.48c-1.09,3.97-2.21,8.06-6.25,8.06c-1.1,0-2.18-0.45-2.97-1.25
			c-0.25-0.25-0.45-0.51-0.61-0.79L184.06,16.39z"/>
		<path class="st3" d="M187.43,12.41c-0.41-0.41-0.94-0.63-1.52-0.63c-1.37,0-2.37,1.13-2.37,2.68c0,0.66,0.18,1.32,0.52,1.93
			l1.11-0.59c-0.24-0.43-0.38-0.88-0.38-1.34c0-0.47,0.14-0.88,0.41-1.14c0.19-0.19,0.43-0.29,0.71-0.29c0.25,0,0.46,0.09,0.64,0.26
			L187.43,12.41z"/>
		
			<linearGradient id="SVGID_4_" gradientUnits="userSpaceOnUse" x1="-623.5363" y1="-626.8256" x2="-619.9513" y2="-631.379" gradientTransform="matrix(1 0 0 1 807.2505 645.9741)">
			<stop  offset="0" style="stop-color:#EF8200"/>
			<stop  offset="1" style="stop-color:#E62320"/>
		</linearGradient>
		<path class="st4" d="M182.56,19.47c1.52,0,2.96-0.6,4.05-1.69c0.98-0.98,1.55-2.25,1.55-3.49c0-0.73-0.27-1.41-0.74-1.88
			l-0.89,0.89c0.23,0.23,0.37,0.6,0.37,1c0,1.86-1.86,3.93-4.35,3.93V19.47z"/>
		
			<linearGradient id="SVGID_5_" gradientUnits="userSpaceOnUse" x1="664.6899" y1="-500.2079" x2="670.2516" y2="-484.3065" gradientTransform="matrix(1 0 0 1 -467.741 503.9785)">
			<stop  offset="0" style="stop-color:#FCD006"/>
			<stop  offset="1" style="stop-color:#00A23E"/>
		</linearGradient>
		<path class="st5" d="M203.19,20.5c-0.75-1.45-1.59-3.1-2.28-5.78c-0.38-1.46-0.67-2.96-0.95-4.41c-0.89-4.52-1.6-8.09-4.12-8.09
			v1.25c1.5,0,2.17,3.44,2.89,7.09c0.29,1.47,0.59,2.98,0.97,4.48c0.72,2.82,1.6,4.53,2.38,6.04L203.19,20.5z"/>
		
			<linearGradient id="SVGID_6_" gradientUnits="userSpaceOnUse" x1="669.6339" y1="-477.8383" x2="667.5195" y2="-470.5551" gradientTransform="matrix(1 0 0 1 -467.741 503.9785)">
			<stop  offset="0" style="stop-color:#B983B7"/>
			<stop  offset="1" style="stop-color:#5E66AD"/>
		</linearGradient>
		<path class="st6" d="M202.9,24.87c-1.94,1.4-3.95,2.85-3.95,7.35c0,0.8,0.07,1.64,0.18,2.53l1.26,0c-0.11-0.9-0.19-1.74-0.19-2.53
			c0-3.86,1.51-4.95,3.43-6.33L202.9,24.87z"/>
		
			<linearGradient id="SVGID_7_" gradientUnits="userSpaceOnUse" x1="675.5714" y1="-488.6263" x2="672.2043" y2="-478.9947" gradientTransform="matrix(1 0 0 1 -467.741 503.9785)">
			<stop  offset="0" style="stop-color:#E62320"/>
			<stop  offset="0.5" style="stop-color:#ED86B3"/>
			<stop  offset="1" style="stop-color:#B983B7"/>
		</linearGradient>
		<path class="st7" d="M206.58,14.27c-0.5,1.29-0.43,2.61-0.36,3.89c0.1,1.8,0.19,3.5-1.3,5.05c-0.63,0.66-1.34,1.17-2.03,1.67
			l0.73,1.01c0.73-0.52,1.49-1.07,2.2-1.81c1.86-1.94,1.75-4.09,1.64-5.99c-0.06-1.2-0.13-2.33,0.27-3.37L206.58,14.27z"/>
		<path class="st3" d="M211.12,13.66c-0.35-0.81-1.1-1.29-1.99-1.29c-1.15,0-2.1,0.71-2.55,1.89l1.17,0.45
			c0.16-0.41,0.54-1.09,1.38-1.09c0.53,0,0.75,0.33,0.84,0.53L211.12,13.66z"/>
		
			<linearGradient id="SVGID_8_" gradientUnits="userSpaceOnUse" x1="676.3821" y1="-486.6879" x2="678.1832" y2="-488.8806" gradientTransform="matrix(1 0 0 1 -467.741 503.9785)">
			<stop  offset="0" style="stop-color:#EF8200"/>
			<stop  offset="1" style="stop-color:#E62320"/>
		</linearGradient>
		<path class="st8" d="M207.78,18.05c0.84-0.08,1.92-0.51,2.68-1.34c0.84-0.9,1.09-2.07,0.66-3.05l-1.15,0.5
			c0.17,0.38,0.15,1.06-0.43,1.69c-0.51,0.55-1.27,0.87-1.85,0.94L207.78,18.05z"/>
		
			<linearGradient id="SVGID_9_" gradientUnits="userSpaceOnUse" x1="672.0668" y1="-489.4266" x2="674.3391" y2="-486.7625" gradientTransform="matrix(1 0 0 1 -467.741 503.9785)">
			<stop  offset="0" style="stop-color:#FBC70D"/>
			<stop  offset="1" style="stop-color:#EF8200"/>
		</linearGradient>
		<path class="st9" d="M203.42,13.91c0.67,2.3,1.75,4.15,4.04,4.15c0.1,0,0.21-0.01,0.32-0.02l-0.08-1.25
			c-0.08,0.01-0.16,0.02-0.23,0.02c-1.5,0-2.27-1.23-2.85-3.29L203.42,13.91z"/>
		
			<linearGradient id="SVGID_10_" gradientUnits="userSpaceOnUse" x1="671.7909" y1="-491.014" x2="668.7358" y2="-499.1608" gradientTransform="matrix(1 0 0 1 -467.741 503.9785)">
			<stop  offset="0" style="stop-color:#FBC70D"/>
			<stop  offset="1" style="stop-color:#ED86B3"/>
		</linearGradient>
		<path class="st10" d="M203.24,7.29c-0.62-2.24-1.6-4-3.72-4v1.25c1.26,0,1.94,1.11,2.47,2.96c0.25,0.87,0.47,1.91,0.69,3.09
			c0.21,1.1,0.44,2.26,0.75,3.32l1.19-0.39c-0.26-0.91-0.48-1.98-0.71-3.17C203.71,9.31,203.5,8.26,203.24,7.29z"/>
		
			<linearGradient id="SVGID_11_" gradientUnits="userSpaceOnUse" x1="667.9431" y1="-468.3654" x2="667.7864" y2="-458.4171" gradientTransform="matrix(1 0 0 1 -467.741 503.9785)">
			<stop  offset="0" style="stop-color:#5E66AD"/>
			<stop  offset="1" style="stop-color:#15A590"/>
		</linearGradient>
		<path class="st11" d="M199.13,34.75c0.08,0.66,0.18,1.35,0.29,2.05c0.5,3.33,1.01,6.78-0.44,8.94l1.16,0.52
			c1.57-2.55,1.04-6.15,0.52-9.64c-0.1-0.64-0.19-1.27-0.27-1.87L199.13,34.75z"/>
		
			<linearGradient id="SVGID_12_" gradientUnits="userSpaceOnUse" x1="680.6" y1="-472.6969" x2="677.7797" y2="-482.0198" gradientTransform="matrix(1 0 0 1 -467.741 503.9785)">
			<stop  offset="0" style="stop-color:#15A590"/>
			<stop  offset="1" style="stop-color:#00A23E"/>
		</linearGradient>
		<path class="st12" d="M213.08,32.23c0.14-0.7,0.28-1.43,0.28-2.28c0-2.06-0.81-3.23-1.58-4.37c-0.74-1.08-1.43-2.1-1.43-3.94
			h-1.25c0,2.23,0.88,3.52,1.65,4.65c0.73,1.07,1.37,1.99,1.37,3.66c0,0.73-0.13,1.37-0.26,2.04L213.08,32.23z"/>
		
			<linearGradient id="SVGID_13_" gradientUnits="userSpaceOnUse" x1="696.8441" y1="-481.9295" x2="691.5959" y2="-457.8036" gradientTransform="matrix(1 0 0 1 -467.741 503.9785)">
			<stop  offset="0" style="stop-color:#ED86B3"/>
			<stop  offset="1" style="stop-color:#A57EB6"/>
		</linearGradient>
		<path class="st13" d="M221.56,47.5c0.58,0.12,1.22,0.2,1.92,0.25c0.94,0.06,1.52,0.03,1.91-0.35c0.38-0.36,0.4-0.87,0.38-1.31
			c-0.18-7.74,0.97-11.22,1.98-14.29c0.72-2.16,1.39-4.19,1.39-7.29c0-1.32-0.17-2.54-0.5-3.63l-1.21,0.33
			c0.3,0.98,0.46,2.09,0.46,3.3c0,2.89-0.61,4.74-1.32,6.89c-1.05,3.17-2.23,6.76-2.05,14.71c0.01,0.3-0.02,0.38-0.03,0.41
			c0.01-0.02,0.04-0.05,0.05-0.06c-0.05,0.02-0.24,0.07-0.99,0.02c-0.6-0.04-1.14-0.11-1.63-0.2L221.56,47.5z"/>
		
			<linearGradient id="SVGID_14_" gradientUnits="userSpaceOnUse" x1="683.3056" y1="-461.1836" x2="679.9368" y2="-470.4281" gradientTransform="matrix(1 0 0 1 -467.741 503.9785)">
			<stop  offset="0" style="stop-color:#5E66AD"/>
			<stop  offset="1" style="stop-color:#15A590"/>
		</linearGradient>
		<path class="st14" d="M217.06,42.54c-0.51-0.88-0.75-1.11-1.38-1.64c-1.76-1.46-2.85-4.01-2.85-6.64c0-0.73,0.13-1.35,0.26-2.03
			l-1.23-0.24c-0.14,0.7-0.28,1.42-0.28,2.27c0,3.04,1.23,5.88,3.29,7.61c0.54,0.44,0.68,0.57,1.1,1.3L217.06,42.54z"/>
		
			<linearGradient id="SVGID_15_" gradientUnits="userSpaceOnUse" x1="684.1227" y1="-488.3605" x2="677.6199" y2="-483.7381" gradientTransform="matrix(1 0 0 1 -467.741 503.9785)">
			<stop  offset="0" style="stop-color:#FCD006"/>
			<stop  offset="1" style="stop-color:#00A23E"/>
		</linearGradient>
		<path class="st15" d="M210.35,21.64c0-0.78,0.17-1.42,0.54-2c1.03-1.68,3.81-2.67,6.67-3.07l-0.26-1.23
			c-3.19,0.46-6.25,1.64-7.48,3.64c-0.48,0.79-0.72,1.66-0.72,2.66H210.35z"/>
		
			<linearGradient id="SVGID_16_" gradientUnits="userSpaceOnUse" x1="688.4038" y1="-461.9039" x2="689.4224" y2="-473.8915" gradientTransform="matrix(1 0 0 1 -467.741 503.9785)">
			<stop  offset="0" style="stop-color:#5E66AD"/>
			<stop  offset="1" style="stop-color:#15A590"/>
		</linearGradient>
		<path class="st16" d="M221.63,29.44c-1.78,3.43-1.52,7.12-1.31,10.09c0.08,1.15,0.16,2.24,0.1,3.14l1.23,0.35
			c0.1-1.06,0.01-2.28-0.08-3.57c-0.21-2.96-0.44-6.3,1.17-9.42L221.63,29.44z"/>
		
			<linearGradient id="SVGID_17_" gradientUnits="userSpaceOnUse" x1="690.157" y1="-475.0086" x2="696.2646" y2="-478.6106" gradientTransform="matrix(1 0 0 1 -467.741 503.9785)">
			<stop  offset="0" style="stop-color:#15A590"/>
			<stop  offset="1" style="stop-color:#00A23E"/>
		</linearGradient>
		<path class="st17" d="M229.49,24.95c-3.41,0-6.42,1.72-7.86,4.49l1.11,0.58c1.22-2.36,3.81-3.82,6.75-3.82V24.95z"/>
		<path class="st18" d="M234.45,26.22c-1.11-0.77-2.7-1.27-4.97-1.27v1.25c1.79,0,3.2,0.35,4.22,1.05L234.45,26.22z"/>
		
			<linearGradient id="SVGID_18_" gradientUnits="userSpaceOnUse" x1="704.3194" y1="-457.9844" x2="706.5114" y2="-467.6137" gradientTransform="matrix(1 0 0 1 -467.741 503.9785)">
			<stop  offset="0" style="stop-color:#5E66AD"/>
			<stop  offset="1" style="stop-color:#15A590"/>
		</linearGradient>
		<path class="st19" d="M232.88,46.34c0.3,1.06,0.55,1.34,1.79,1.34h4.19c0.74,0,1-0.4,1.07-0.58c0.07-0.17,0.2-0.63-0.29-1.15
			c-2.74-2.95-2.7-7.33-2.66-11.2l-1.26-0.01c-0.04,4.1-0.08,8.75,3,12.06c0.04,0.04,0.05,0.06,0.05,0.06
			c-0.02-0.03-0.04-0.14,0.01-0.26c0.05-0.12,0.14-0.18,0.17-0.18c0,0-0.03,0.01-0.09,0.01h-4.19c-0.28,0-0.45-0.01-0.5-0.03
			c0.02,0.01,0.06,0.04,0.07,0.06c-0.04-0.06-0.1-0.28-0.15-0.45L232.88,46.34z"/>
		
			<linearGradient id="SVGID_19_" gradientUnits="userSpaceOnUse" x1="700.0709" y1="-481.1611" x2="699.7575" y2="-458.6758" gradientTransform="matrix(1 0 0 1 -467.741 503.9785)">
			<stop  offset="0" style="stop-color:#A57EB6"/>
			<stop  offset="1" style="stop-color:#5E66AD"/>
		</linearGradient>
		<path class="st20" d="M233.8,21.85c-1.95,2.05-3.95,4.17-3.95,8.95c0,4.74,1.68,10.73,3.04,15.54l1.2-0.34
			c-1.33-4.75-2.99-10.64-2.99-15.21c0-4.28,1.67-6.04,3.61-8.09L233.8,21.85z"/>
		
			<linearGradient id="SVGID_20_" gradientUnits="userSpaceOnUse" x1="699.519" y1="-487.6396" x2="701.5552" y2="-497.4288" gradientTransform="matrix(1 0 0 1 -467.741 503.9785)">
			<stop  offset="0" style="stop-color:#E62320"/>
			<stop  offset="1" style="stop-color:#ED86B3"/>
		</linearGradient>
		<path class="st21" d="M228.88,17.24c0.6,0.6,1.33,0.92,2.12,0.92c0.92,0,1.78-0.36,2.47-1.05c1.07-1.07,1.66-2.84,1.66-4.97
			c0-2.86-0.86-5.97-2.19-7.91l-0.88,0.95c1.11,1.76,1.81,4.44,1.81,6.96c0,2.81-1.18,4.77-2.87,4.77c-0.45,0-0.87-0.18-1.23-0.55
			L228.88,17.24z"/>
		<path class="st3" d="M229.77,16.35c-0.57-0.57-0.94-1.5-0.94-2.39c0-0.55,0.18-1.04,0.47-1.34c0.22-0.22,0.5-0.33,0.82-0.33v-1.25
			c-1.48,0-2.54,1.23-2.54,2.92c0,1.22,0.5,2.47,1.3,3.27L229.77,16.35z"/>
		<path class="st22" d="M232.94,4.23c-0.32-0.46-0.33-0.66-0.22-1.07c0.15-0.58,0.12-0.99-0.12-1.46c-0.07-0.13-0.06-0.26,0.02-0.32
			c0.09-0.08,0.24-0.05,0.41,0.07c0.76,0.55,1.53,1.35,2.22,2.34l1.1-0.59c-0.8-1.17-1.7-2.12-2.59-2.76
			c-0.64-0.46-1.41-0.46-1.95,0c-0.52,0.44-0.65,1.18-0.32,1.84c0.09,0.17,0.11,0.26,0.02,0.58c-0.21,0.79-0.1,1.36,0.4,2.1
			c0.05,0.08,0.1,0.16,0.16,0.24L232.94,4.23z"/>
		
			<linearGradient id="SVGID_21_" gradientUnits="userSpaceOnUse" x1="705.3001" y1="-499.567" x2="703.7332" y2="-482.7231" gradientTransform="matrix(1 0 0 1 -467.741 503.9785)">
			<stop  offset="0" style="stop-color:#ED86B3"/>
			<stop  offset="1" style="stop-color:#A57EB6"/>
		</linearGradient>
		<path class="st23" d="M235.25,3.78c1.48,2.12,2.61,5.11,2.61,8.35c0,5.43-1.97,7.51-4.07,9.72l0.91,0.86
			c2.07-2.18,4.41-4.65,4.41-10.58c0-3.43-1.19-6.62-2.76-8.94L235.25,3.78z"/>
		
			<linearGradient id="SVGID_22_" gradientUnits="userSpaceOnUse" x1="704.4639" y1="-470.0662" x2="702.4266" y2="-476.8832" gradientTransform="matrix(1 0 0 1 -467.741 503.9785)">
			<stop  offset="0" style="stop-color:#15A590"/>
			<stop  offset="1" style="stop-color:#00A23E"/>
		</linearGradient>
		<path class="st24" d="M236.97,34.76c0.01-1.66,0.03-3.24-0.18-4.58c-0.21-1.37-0.83-2.91-2.34-3.96l-0.75,1.03
			c1.01,0.69,1.63,1.74,1.85,3.13c0.19,1.24,0.18,2.76,0.17,4.37L236.97,34.76z"/>
		<path class="st25" d="M220.42,42.67c-0.06,0.91-0.24,1.65-0.69,2.13c-0.5,0.54-1.35,0.8-2.61,0.79v1.25
			c1.63,0,2.78-0.39,3.53-1.19c0.64-0.68,0.92-1.58,1.01-2.64L220.42,42.67z"/>
		
			<linearGradient id="SVGID_23_" gradientUnits="userSpaceOnUse" x1="683.7919" y1="-457.5593" x2="676.6628" y2="-463.8267" gradientTransform="matrix(1 0 0 1 -467.741 503.9785)">
			<stop  offset="0" style="stop-color:#5E66AD"/>
			<stop  offset="1" style="stop-color:#15A590"/>
		</linearGradient>
		<path class="st26" d="M217.11,45.59c-2.77,0-5.75-2.55-7.59-6.6l-1.07,0.73c2.08,4.42,5.48,7.11,8.66,7.12V45.59z"/>
		
			<linearGradient id="SVGID_24_" gradientUnits="userSpaceOnUse" x1="676.2798" y1="-465.4045" x2="674.8701" y2="-472.4533" gradientTransform="matrix(1 0 0 1 -467.741 503.9785)">
			<stop  offset="0" style="stop-color:#15A590"/>
			<stop  offset="1" style="stop-color:#00A23E"/>
		</linearGradient>
		<path class="st27" d="M209.53,38.99c-1.11-2.43-1.8-5.4-1.8-8.67h-1.25c0,3.6,0.77,6.8,1.99,9.4L209.53,38.99z"/>
		
			<linearGradient id="SVGID_25_" gradientUnits="userSpaceOnUse" x1="679.5128" y1="-482.8813" x2="674.6552" y2="-474.9682" gradientTransform="matrix(1 0 0 1 -467.741 503.9785)">
			<stop  offset="0" style="stop-color:#FCD006"/>
			<stop  offset="1" style="stop-color:#00A23E"/>
		</linearGradient>
		<path class="st28" d="M207.72,30.33c0-4.11,1.92-7.19,5.54-8.88l-0.53-1.14c-4.04,1.89-6.27,5.45-6.27,10.02H207.72z"/>
		
			<linearGradient id="SVGID_26_" gradientUnits="userSpaceOnUse" x1="681.5472" y1="-483.3822" x2="694.8616" y2="-485.8101" gradientTransform="matrix(1 0 0 1 -467.741 503.9785)">
			<stop  offset="0" style="stop-color:#FCD000"/>
			<stop  offset="1" style="stop-color:#EF8200"/>
		</linearGradient>
		<path class="st29" d="M220.37,20.03c2.73-0.26,5.51-0.53,7.85-1.59l-0.41-1.2c-2.2,1.03-4.91,1.29-7.56,1.55
			c-2.62,0.25-5.34,0.52-7.51,1.53l0.53,1.14C215.25,20.52,217.74,20.28,220.37,20.03z"/>
		
			<linearGradient id="SVGID_27_" gradientUnits="userSpaceOnUse" x1="696.8467" y1="-486.4166" x2="698.5686" y2="-490.3068" gradientTransform="matrix(1 0 0 1 -467.741 503.9785)">
			<stop  offset="0" style="stop-color:#EF8200"/>
			<stop  offset="1" style="stop-color:#E62320"/>
		</linearGradient>
		<path class="st30" d="M231.44,16.03c0.98-1.18,1.28-2.59,0.77-3.68c-0.38-0.82-1.16-1.3-2.08-1.3v1.25c0.44,0,0.77,0.21,0.94,0.59
			c0.24,0.5,0.2,1.38-0.59,2.34c-0.74,0.89-1.65,1.53-2.67,2.01l0.41,1.2C229.44,17.89,230.53,17.12,231.44,16.03z"/>
		
			<linearGradient id="SVGID_28_" gradientUnits="userSpaceOnUse" x1="686.3104" y1="-488.9512" x2="695.3162" y2="-484.4874" gradientTransform="matrix(1 0 0 1 -467.741 503.9785)">
			<stop  offset="0" style="stop-color:#FCD006"/>
			<stop  offset="1" style="stop-color:#ED86B3"/>
		</linearGradient>
		<path class="st31" d="M217.56,16.56c0.98-0.14,1.97-0.2,2.9-0.2c2.22,0,3.99,0.65,5.27,1.93c0.78,0.77,1.35,1.76,1.71,2.93
			l1.21-0.33c-0.42-1.38-1.11-2.56-2.03-3.48c-1.5-1.5-3.63-2.29-6.16-2.29c-1.03,0-2.1,0.07-3.16,0.23L217.56,16.56z"/>
		
			<linearGradient id="SVGID_29_" gradientUnits="userSpaceOnUse" x1="688.844" y1="-457.0146" x2="684.8472" y2="-460.2278" gradientTransform="matrix(1 0 0 1 -467.741 503.9785)">
			<stop  offset="0" style="stop-color:#A57EB6"/>
			<stop  offset="1" style="stop-color:#5E66AD"/>
		</linearGradient>
		<path class="st32" d="M221.94,46.3c-2.56-0.49-3.72-1.71-4.88-3.75l-1.09,0.62c1.46,2.55,3.03,3.81,5.59,4.33L221.94,46.3z"/>
		
			<linearGradient id="SVGID_30_" gradientUnits="userSpaceOnUse" x1="-628.0786" y1="-642.5632" x2="-626.6687" y2="-628.3077" gradientTransform="matrix(1 0 0 1 807.2505 645.9741)">
			<stop  offset="0" style="stop-color:#F9BE00"/>
			<stop  offset="1" style="stop-color:#EF8200"/>
		</linearGradient>
		<path class="st33" d="M180.15,2.5c0.05,2.03-0.49,3.41-1.05,4.86c-0.61,1.57-1.23,3.2-1.23,5.7c0,2.19,0.64,4.04,1.79,5.19
			c0.8,0.8,1.81,1.22,2.92,1.22v-1.25c-0.78,0-1.46-0.29-2.03-0.86c-0.92-0.91-1.42-2.44-1.42-4.3c0-2.27,0.59-3.78,1.15-5.25
			c0.58-1.51,1.18-3.06,1.13-5.34L180.15,2.5z"/>
		
			<linearGradient id="SVGID_31_" gradientUnits="userSpaceOnUse" x1="-628.3726" y1="-618.2" x2="-628.2943" y2="-601.2767" gradientTransform="matrix(1 0 0 1 807.2505 645.9741)">
			<stop  offset="0" style="stop-color:#15A590"/>
			<stop  offset="1" style="stop-color:#00A23E"/>
		</linearGradient>
		<path class="st34" d="M178.85,26.91c-0.82,0.89-1.32,2.22-1.32,3.77c0,1.48,0.35,3.22,0.71,5.06c0.66,3.3,1.4,7.03,0.12,9.66
			l1.15,0.51c1.43-3.01,0.66-6.93-0.04-10.42c-0.35-1.78-0.69-3.46-0.69-4.82c0-1.24,0.38-2.3,1.08-3L178.85,26.91z"/>
		
			<linearGradient id="SVGID_32_" gradientUnits="userSpaceOnUse" x1="-619.1915" y1="-610.5713" x2="-625.4587" y2="-619.0321" gradientTransform="matrix(1 0 0 1 807.2505 645.9741)">
			<stop  offset="0" style="stop-color:#5E66AD"/>
			<stop  offset="1" style="stop-color:#15A590"/>
		</linearGradient>
		<path class="st35" d="M188,37.02c-1.06-5.85-2.07-11.37-6.31-11.37c-1.13,0-2.11,0.46-2.84,1.25l1.01,0.77
			c0.51-0.5,1.14-0.77,1.83-0.77c3.2,0,4.11,5.02,5.08,10.35L188,37.02z"/>
		
			<linearGradient id="SVGID_33_" gradientUnits="userSpaceOnUse" x1="-624.3995" y1="-642.6624" x2="-626.1959" y2="-600.9575" gradientTransform="matrix(1 0 0 1 807.2505 645.9741)">
			<stop  offset="0" style="stop-color:#F9BE00"/>
			<stop  offset="1" style="stop-color:#00A23E"/>
		</linearGradient>
		<path class="st36" d="M178.35,45.4c-0.05,0.11-0.11,0.22-0.17,0.32c-0.13,0.22-0.5,0.87-0.17,1.44c0.14,0.24,0.44,0.52,1.09,0.52
			h3.46c0.34,0,0.76-0.04,1.06-0.36c0.31-0.33,0.33-0.79,0.31-1.19c-0.13-2.45,0.09-4.41,0.29-6.31c0.2-1.87,0.39-3.64,0.24-5.65
			c-0.21-2.62-1.15-4.82-2.07-6.95c-0.95-2.2-1.84-4.29-1.84-6.67c0-2.72,1.09-5.24,2.15-7.69c1.03-2.39,2.11-4.87,2.11-7.48
			c0-1.53-0.39-2.9-1.07-3.77c-0.27-0.34-0.51-0.51-0.69-0.65c-0.07-0.05-0.13-0.1-0.2-0.15c-0.08-0.07-0.14-0.13-0.21-0.21
			c-0.04-0.04-0.08-0.09-0.13-0.14c-0.44-0.46-1.08-0.59-1.64-0.33c-0.55,0.25-0.87,0.82-0.81,1.45c0.03,0.32,0.05,0.62,0.06,0.91
			l1.25-0.02c-0.01-0.33-0.03-0.67-0.07-1.02c-0.01-0.1,0.02-0.16,0.08-0.18c0.04-0.02,0.12-0.04,0.21,0.06
			c0.03,0.03,0.06,0.07,0.1,0.1c0.08,0.09,0.18,0.21,0.33,0.33c0.1,0.08,0.19,0.15,0.27,0.21c0.16,0.12,0.28,0.21,0.45,0.42
			c0.5,0.64,0.8,1.76,0.8,2.99c0,2.35-0.97,4.6-2,6.98c-1.11,2.56-2.25,5.21-2.25,8.19c0,2.64,0.99,4.94,1.94,7.16
			c0.87,2.04,1.78,4.14,1.97,6.56c0.15,1.9-0.04,3.6-0.23,5.41c-0.21,1.95-0.43,3.96-0.3,6.51c0.01,0.25-0.01,0.32-0.01,0.33
			c0.01-0.04,0.07-0.09,0.1-0.11c0,0-0.05,0.02-0.22,0.02h-3.46c-0.1,0-0.14-0.01-0.14-0.01c0.08,0.03,0.17,0.16,0.16,0.25
			c0,0,0.01-0.1,0.14-0.32c0.08-0.14,0.16-0.28,0.23-0.43L178.35,45.4z"/>
		
			<linearGradient id="SVGID_34_" gradientUnits="userSpaceOnUse" x1="-612.3422" y1="-643.1757" x2="-617.8325" y2="-631.1088" gradientTransform="matrix(1 0 0 1 807.2505 645.9741)">
			<stop  offset="0" style="stop-color:#FCD006"/>
			<stop  offset="1" style="stop-color:#ED86B3"/>
		</linearGradient>
		<path class="st37" d="M190.32,16.14c0.87-2.22,1.44-4.42,1.95-6.35c1.05-4.03,1.73-6.32,3.57-6.32V2.22c-2.9,0-3.73,3.2-4.79,7.25
			c-0.49,1.9-1.05,4.06-1.9,6.21L190.32,16.14z"/>
		
			<linearGradient id="SVGID_35_" gradientUnits="userSpaceOnUse" x1="-615.4417" y1="-600.8981" x2="-620.8618" y2="-606.8828" gradientTransform="matrix(1 0 0 1 807.2505 645.9741)">
			<stop  offset="0" style="stop-color:#A57EB6"/>
			<stop  offset="1" style="stop-color:#5E66AD"/>
		</linearGradient>
		<path class="st38" d="M186.77,37.25c0.58,3.19,1.18,6.48,2.34,8.95c0.36,0.78,0.8,1,1.72,0.85c1.55-0.24,3-0.66,3.73-0.89
			c0.49-0.16,0.77-0.43,0.85-0.8c0.08-0.38-0.09-0.75-0.49-1.11c-0.19-0.17-0.36-0.34-0.52-0.51l-0.89,0.89
			c0.17,0.19,0.36,0.38,0.57,0.56c0.09,0.08,0.11,0.12,0.11,0.12c-0.06-0.11-0.01-0.33,0.09-0.4c0,0-0.03,0.02-0.12,0.05
			c-0.69,0.22-2.08,0.63-3.54,0.86c-0.26,0.04-0.33,0.03-0.34,0.02c0.01,0,0.04,0.02,0.06,0.04c-0.01-0.01-0.04-0.05-0.11-0.21
			c-1.09-2.32-1.67-5.54-2.23-8.65L186.77,37.25z"/>
	</g>
	<g>
		<polygon class="st39" points="17.61,21.7 17.61,31.54 6.83,31.54 6.83,21.68 0,21.68 0,47.66 6.83,47.66 6.83,37.52 17.61,37.52 
			17.61,47.66 24.45,47.66 24.45,21.7 		"/>
		<path class="st39" d="M132.48,47.68c-0.26-2.29-0.46-4.94-0.46-7.66V22.53c-2.39-1.03-5.3-1.57-8.45-1.57
			c-9.83,0-15.72,5.89-15.72,15.07c0,7.63,3.92,12.21,10.38,12.21c2.99,0,5.68-1.29,7.43-3.4c0.12,1,0.29,2.09,0.43,2.84H132.48z
			 M125.47,31.73c0,1.59-0.01,2.94-0.33,4.44c-0.75,3.48-3.02,5.88-5.92,5.88c-2.8,0-4.38-2.26-4.38-5.96
			c0-5.65,3.04-9.12,7.62-9.12c1.24,0,2.17,0.15,3.02,0.46V31.73z"/>
		<path class="st39" d="M147.16,47.68V36.83c0-2.64,0.22-4.23,0.75-5.64c0.95-2.56,2.74-4.07,4.77-4.07c1.43,0,2.46,0.57,3.08,1.76
			c0.6,1.16,0.69,2.38,0.69,4.58v14.21h7.01V32.81c0-3.42-0.23-5.23-1.12-7.09c-1.43-2.98-4.15-4.77-7.7-4.77
			c-3,0-5.73,1.21-8.06,3.64c-0.1-0.98-0.3-2.09-0.51-2.9h-6.62c0.62,2.78,0.93,5.56,0.93,9.29v16.7H147.16z"/>
		<path class="st39" d="M100.88,25.52c-1.4-2.85-4.07-4.57-7.85-4.57c-3.05,0-5.76,1.25-8.07,3.76c-1.39-2.42-4.04-3.76-7.14-3.76
			c-3.01,0-5.72,1.28-7.87,3.55c-0.1-0.96-0.27-2.1-0.46-2.81h-6.52c0.62,2.78,0.93,5.56,0.93,9.29v16.7h6.78V36.42
			c0-2.52,0.21-4.05,0.71-5.39c0.91-2.45,2.62-3.9,4.57-3.9c1.37,0,2.36,0.54,2.96,1.68c0.57,1.1,0.66,2.28,0.66,4.38v14.48h6.78
			V36.42c0-2.52,0.21-4.05,0.71-5.39c0.9-2.45,2.6-3.9,4.53-3.9c1.36,0,2.34,0.54,2.94,1.68c0.57,1.1,0.65,2.28,0.65,4.38v14.48
			h6.78V32.31C101.98,29.03,101.75,27.3,100.88,25.52z"/>
		<path class="st39" d="M32.05,21.69c0.85,6.17,0.34,9.99,0.34,14.86c0,3.43,0.23,5.23,1.11,7.09c1.42,2.98,4.14,4.77,7.68,4.77
			c2.99,0,5.7-1.21,8.03-3.64c0.1,0.98,0.29,2.1,0.51,2.9h6.62c-0.62-2.78-0.93-5.56-0.93-9.28v-16.7h-6.78v10.84
			c0,2.63-0.22,4.23-0.74,5.63c-0.95,2.56-2.71,4.07-4.74,4.07c-1.42,0-2.45-0.56-3.07-1.76c-0.6-1.16-0.68-2.38-0.68-4.58
			c0-4.4,0.3-9.23-0.35-14.21H32.05z"/>
	</g>
</g>
</svg>
