<svg id="Blank_icon" data-name="Blank icon" xmlns="http://www.w3.org/2000/svg" xmlns:xlink="http://www.w3.org/1999/xlink" width="16.072" height="16.072" viewBox="0 0 16.072 16.072">
  <defs>
    <style>
      .cls-1 {
        fill: url(#linear-gradient);
      }
    </style>
    <linearGradient id="linear-gradient" y1="-0.154" x2="1" y2="1" gradientUnits="objectBoundingBox">
      <stop offset="0" stop-color="#d82121"/>
      <stop offset="1" stop-color="#fd9b64"/>
    </linearGradient>
  </defs>
  <path id="パス_476" data-name="パス 476" class="cls-1" d="M522.565,705.52h-9a2.5,2.5,0,0,1-2.5-2.5v-9a2.5,2.5,0,0,1,2.5-2.5h4.5a1,1,0,0,1,0,2h-4.5a.5.5,0,0,0-.5.5v9a.5.5,0,0,0,.5.5h9a.5.5,0,0,0,.5-.5v-4.5a1,1,0,0,1,2,0v4.5A2.5,2.5,0,0,1,522.565,705.52Z" transform="translate(-511.065 -689.448)"/>
  <path id="パス_477" data-name="パス 477" class="cls-1" d="M527.06,690.066a1.006,1.006,0,0,0-.923-.618h-5a1,1,0,0,0,0,2h2.586l-5.365,5.365a1,1,0,1,0,1.414,1.414l5.365-5.365v2.586a1,1,0,0,0,2,0v-5A1.014,1.014,0,0,0,527.06,690.066Z" transform="translate(-511.065 -689.448)"/>
</svg>
